<?xml version="1.0" encoding="utf-8"?>
<!-- Generator: Adobe Illustrator 15.0.0, SVG Export Plug-In . SVG Version: 6.00 Build 0)  -->
<!DOCTYPE svg PUBLIC "-//W3C//DTD SVG 1.1//EN" "http://www.w3.org/Graphics/SVG/1.1/DTD/svg11.dtd">
<svg version="1.1" id="Layer_1" xmlns="http://www.w3.org/2000/svg" xmlns:xlink="http://www.w3.org/1999/xlink" x="0px" y="0px"
	 width="384.878px" height="357.266px" viewBox="0 0 384.878 357.266" enable-background="new 0 0 384.878 357.266"
	 xml:space="preserve">
<path d="M257.63,152.725v-36.501c0-35.945-29.247-65.19-65.19-65.19s-65.19,29.245-65.19,65.19v36.501l-18.45,1.629v135.3
	l83.64,7.38l83.639-7.38v-135.3L257.63,152.725z M202.28,241.683h-9.84h-9.84l5.636-20.653c-3.324-1.582-5.636-4.939-5.636-8.866
	c0-5.437,4.406-9.839,9.84-9.839c5.438,0,9.84,4.402,9.84,9.839c0,3.927-2.309,7.284-5.63,8.864L202.28,241.683z M237.95,150.991
	l-45.51-4.018l-45.51,4.018v-34.767c0-25.094,20.416-45.509,45.51-45.509c25.094,0,45.51,20.415,45.51,45.509V150.991z"/>
</svg>
