<?xml version="1.0" encoding="utf-8"?>
<!-- Generator: Adobe Illustrator 15.0.0, SVG Export Plug-In . SVG Version: 6.00 Build 0)  -->
<!DOCTYPE svg PUBLIC "-//W3C//DTD SVG 1.1//EN" "http://www.w3.org/Graphics/SVG/1.1/DTD/svg11.dtd">
<svg version="1.1" id="Layer_1" xmlns="http://www.w3.org/2000/svg" xmlns:xlink="http://www.w3.org/1999/xlink" x="0px" y="0px"
	 width="384.878px" height="357.267px" viewBox="180.301 48.233 384.878 357.267"
	 enable-background="new 180.301 48.233 384.878 357.267" xml:space="preserve">
<path d="M369.399,122.968c-61.872,0-112.033,50.166-112.033,112.037c0,61.88,50.161,112.028,112.033,112.028
	c61.875,0,112.041-50.147,112.041-112.028C481.44,173.133,431.274,122.968,369.399,122.968z M366.8,159.725
	c10.817,0,19.588,8.77,19.588,19.588c0,10.819-8.771,19.589-19.588,19.589c-10.818,0-19.589-8.77-19.589-19.589
	C347.211,168.495,355.981,159.725,366.8,159.725z M401.921,298.687h-62.799v-4.513c4.168-0.753,7.131-1.395,8.892-1.949
	c1.761-0.557,3.253-1.323,4.485-2.305c1.224-0.968,2.191-2.486,2.877-4.513c0.686-2.025,1.053-5.197,1.053-9.51v-40.203
	c0-3.935-0.115-7.098-0.326-9.496c-0.211-2.397-0.954-4.32-2.236-5.763c-1.281-1.443-3.24-2.519-5.853-3.227
	c-2.622-0.704-6.329-1.304-11.137-1.792v-4.894l37.321-0.833h9.774v65.94c0,5.279,0.421,8.959,1.281,11.02
	c0.852,2.066,2.487,3.626,4.89,4.706c2.402,1.071,6.323,2.008,11.773,2.814v4.518H401.921z"/>
</svg>
