<?xml version="1.0" encoding="utf-8"?>
<!-- Generator: Adobe Illustrator 15.0.0, SVG Export Plug-In . SVG Version: 6.00 Build 0)  -->
<!DOCTYPE svg PUBLIC "-//W3C//DTD SVG 1.1//EN" "http://www.w3.org/Graphics/SVG/1.1/DTD/svg11.dtd">
<svg version="1.1" id="Layer_1" xmlns="http://www.w3.org/2000/svg" xmlns:xlink="http://www.w3.org/1999/xlink" x="0px" y="0px"
	 width="730px" height="470px" viewBox="0 0 730 470" enable-background="new 0 0 730 470" xml:space="preserve">
<g id="Keyboard">
	<path id="BaseKeyboard" d="M574.49,124.452H23.77c-7.674,0-13.906,6.232-13.906,13.913v193.278c0,7.682,6.233,13.905,13.906,13.905
		h550.72c7.684,0,13.907-6.224,13.907-11.137V141.134C588.405,130.683,582.183,124.452,574.49,124.452z M512.381,139.552
		c0-2.195,1.784-3.963,3.969-3.963h21.853c2.194,0,3.963,1.776,3.963,3.963v7.952c0,2.195-1.776,3.964-3.963,3.964H516.35
		c-2.192,0-3.969-1.777-3.969-3.964V139.552z M420.285,237.806v17.887c0,3.285-2.661,5.961-5.962,5.961h-17.869
		c-3.294,0-5.972-2.668-5.972-5.961v-17.887c0-3.284,2.67-5.962,5.972-5.962h17.869
		C417.625,231.842,420.285,234.513,420.285,237.806z M416.33,219.288v-17.879c0-3.291,2.671-5.961,5.964-5.961h17.875
		c3.285,0,5.965,2.662,5.965,5.961v17.879c0,3.292-2.672,5.962-5.965,5.962h-17.875C419.001,225.25,416.33,222.58,416.33,219.288z
		 M417.724,274.193c0-3.284,2.669-5.965,5.97-5.965h17.879c3.29,0,5.961,2.675,5.961,5.965v17.884c0,3.287-2.663,5.964-5.961,5.964
		h-17.879c-3.295,0-5.97-2.671-5.97-5.964V274.193z M434.281,261.645c-3.293,0-5.962-2.669-5.962-5.961v-17.886
		c0-3.285,2.661-5.962,5.962-5.962h17.879c3.293,0,5.962,2.67,5.962,5.962v17.886c0,3.284-2.66,5.961-5.962,5.961H434.281z
		 M453.93,219.288v-17.879c0-3.291,2.672-5.961,5.962-5.961h17.88c3.3,0,5.97,2.662,5.97,5.961v17.879
		c0,3.292-2.662,5.962-5.97,5.962h-17.88C456.601,225.25,453.93,222.58,453.93,219.288z M456.427,274.193
		c0-3.284,2.663-5.965,5.962-5.965h17.879c3.294,0,5.963,2.675,5.963,5.965v17.884c0,3.287-2.662,5.964-5.963,5.964h-17.879
		c-3.292,0-5.962-2.671-5.962-5.964V274.193z M472.11,261.645c-3.291,0-5.962-2.669-5.962-5.961v-17.886
		c0-3.285,2.662-5.962,5.962-5.962h17.88c3.292,0,5.959,2.67,5.959,5.962v17.886c0,3.284-2.66,5.961-5.959,5.961H472.11z
		 M494.05,274.193c0-3.284,2.671-5.965,5.964-5.965h67.539c3.285,0,5.963,2.675,5.963,5.965v17.884c0,3.287-2.67,5.964-5.963,5.964
		h-67.539c-3.285,0-5.964-2.671-5.964-5.964V274.193L494.05,274.193z M533.781,255.684c0,3.284-2.665,5.961-5.963,5.961H509.94
		c-3.284,0-5.971-2.669-5.971-5.961v-17.886c0-3.285,2.678-5.962,5.971-5.962h17.879c3.292,0,5.963,2.67,5.963,5.962
		L533.781,255.684L533.781,255.684z M521.331,219.288h-0.007c0,3.292-2.673,5.962-5.971,5.962h-17.871
		c-3.284,0-5.962-2.66-5.962-5.962v-17.879c0-3.291,2.671-5.961,5.962-5.961h17.88c3.29,0,5.969,2.662,5.969,5.961V219.288
		L521.331,219.288z M491.079,182.901v-17.879c0-3.292,2.661-5.962,5.963-5.962h17.877c3.285,0,5.962,2.662,5.962,5.962v17.879
		c0,3.292-2.672,5.962-5.962,5.962h-17.877C493.74,188.855,491.079,186.193,491.079,182.901z M477.278,139.552
		c0-2.195,1.785-3.963,3.971-3.963h21.853c2.194,0,3.972,1.776,3.972,3.963v7.952c0,2.195-1.786,3.964-3.972,3.964h-21.853
		c-2.194,0-3.971-1.777-3.971-3.964V139.552z M481.692,165.022v17.879c0,3.292-2.661,5.962-5.962,5.962h-17.879
		c-3.293,0-5.962-2.661-5.962-5.962v-17.879c0-3.292,2.665-5.962,5.962-5.962h17.879
		C479.031,159.068,481.692,161.731,481.692,165.022z M442.187,139.552c0-2.195,1.775-3.963,3.971-3.963h21.85
		c2.195,0,3.964,1.776,3.964,3.963v7.952c0,2.195-1.775,3.964-3.964,3.964h-21.85c-2.201,0-3.971-1.777-3.971-3.964V139.552z
		 M442.523,165.022v17.879c0,3.292-2.672,5.962-5.964,5.962h-17.878c-3.292,0-5.964-2.661-5.964-5.962v-17.879
		c0-3.292,2.664-5.962,5.964-5.962h17.878C439.852,159.068,442.523,161.731,442.523,165.022z M407.085,139.552
		c0-2.195,1.785-3.963,3.972-3.963h21.852c2.201,0,3.963,1.776,3.963,3.963v7.952c0,2.195-1.77,3.964-3.963,3.964h-21.852
		c-2.195,0-3.972-1.777-3.972-3.964V139.552z M408.526,201.409v17.879c0,3.292-2.671,5.962-5.963,5.962h-17.878
		c-3.291,0-5.971-2.66-5.971-5.962v-17.879c0-3.291,2.672-5.961,5.971-5.961h17.878
		C405.855,195.456,408.526,198.118,408.526,201.409z M87.846,237.806c0-3.284,2.662-5.962,5.963-5.962h17.886
		c3.275,0,5.954,2.671,5.954,5.962v17.887c0,3.285-2.669,5.961-5.954,5.961H93.809c-3.292,0-5.963-2.668-5.963-5.961V237.806z
		 M83.875,225.25c-3.292,0-5.962-2.66-5.962-5.962v-17.879c0-3.291,2.661-5.961,5.962-5.961h17.888c3.283,0,5.953,2.662,5.953,5.961
		v17.879c0,3.292-2.662,5.962-5.953,5.962H83.875z M115.512,219.288v-17.879c0-3.291,2.669-5.961,5.97-5.961h17.878
		c3.285,0,5.962,2.662,5.962,5.961v17.879c0,3.292-2.669,5.962-5.962,5.962h-17.878C118.19,225.25,115.512,222.58,115.512,219.288z
		 M138.517,182.901v-17.879c0-3.292,2.663-5.962,5.954-5.962h17.886c3.293,0,5.963,2.662,5.963,5.962v17.879
		c0,3.292-2.662,5.962-5.963,5.962h-17.886C141.179,188.855,138.517,186.193,138.517,182.901z M125.684,237.806
		c0-3.284,2.661-5.962,5.963-5.962h17.885c3.283,0,5.954,2.671,5.954,5.962v17.887c0,3.285-2.662,5.961-5.954,5.961h-17.885
		c-3.293,0-5.963-2.668-5.963-5.961V237.806z M153.119,219.288v-17.879c0-3.291,2.671-5.961,5.962-5.961h17.879
		c3.293,0,5.962,2.662,5.962,5.961v17.879c0,3.292-2.661,5.962-5.962,5.962h-17.879C155.79,225.25,153.119,222.58,153.119,219.288z
		 M246.655,182.901c0,3.292-2.661,5.962-5.963,5.962h-17.878c-3.292,0-5.962-2.661-5.962-5.962v-17.879
		c0-3.292,2.663-5.962,5.962-5.962h17.878c3.293,0,5.963,2.662,5.963,5.962V182.901z M252.15,195.456
		c3.292,0,5.971,2.662,5.971,5.962v17.879c0,3.293-2.67,5.962-5.971,5.962h-17.869c-3.293,0-5.962-2.661-5.962-5.962v-17.879
		c0-3.292,2.661-5.962,5.962-5.962H252.15z M220.513,201.409v17.879c0,3.292-2.653,5.962-5.954,5.962h-17.886
		c-3.285,0-5.954-2.66-5.954-5.962v-17.879c0-3.291,2.662-5.961,5.954-5.961h17.886
		C217.851,195.456,220.513,198.118,220.513,201.409z M207.482,182.901c0,3.292-2.662,5.962-5.962,5.962h-17.888
		c-3.284,0-5.953-2.661-5.953-5.962v-17.879c0-3.292,2.662-5.962,5.953-5.962h17.887c3.292,0,5.962,2.662,5.962,5.962V182.901
		L207.482,182.901z M163.521,237.806c0-3.284,2.661-5.962,5.954-5.962h17.886c3.284,0,5.953,2.671,5.953,5.962v17.887
		c0,3.285-2.662,5.961-5.953,5.961h-17.886c-3.284,0-5.954-2.668-5.954-5.961V237.806L163.521,237.806z M185.486,274.193
		c0-3.284,2.661-5.965,5.961-5.965h17.886c3.284,0,5.955,2.675,5.955,5.965v17.884c0,3.287-2.661,5.964-5.955,5.964h-17.886
		c-3.292,0-5.961-2.671-5.961-5.964V274.193z M207.295,261.645c-3.284,0-5.962-2.669-5.962-5.961v-17.886
		c0-3.285,2.67-5.962,5.962-5.962h17.887c3.284,0,5.954,2.67,5.954,5.962v17.886c0,3.284-2.662,5.961-5.954,5.961H207.295z
		 M224.19,274.193c0-3.284,2.67-5.965,5.971-5.965h17.879c3.285,0,5.962,2.675,5.962,5.965v17.884c0,3.287-2.671,5.964-5.962,5.964
		h-17.879c-3.292,0-5.971-2.671-5.971-5.964V274.193z M245.131,261.645c-3.284,0-5.954-2.669-5.954-5.961v-17.886
		c0-3.285,2.661-5.962,5.954-5.962h17.886c3.292,0,5.954,2.67,5.954,5.962v17.886c0,3.284-2.653,5.961-5.954,5.961H245.131z
		 M265.926,219.288v-17.879c0-3.291,2.669-5.961,5.962-5.961h17.878c3.292,0,5.97,2.662,5.97,5.961v17.879
		c0,3.292-2.67,5.962-5.97,5.962h-17.878C268.595,225.25,265.926,222.58,265.926,219.288z M262.895,274.193
		c0-3.284,2.67-5.965,5.962-5.965h17.878c3.293,0,5.971,2.675,5.971,5.965v17.884c0,3.287-2.67,5.964-5.971,5.964h-17.878
		c-3.284,0-5.962-2.671-5.962-5.964V274.193z M282.961,261.645c-3.284,0-5.963-2.669-5.963-5.961v-17.886
		c0-3.285,2.669-5.962,5.963-5.962h17.885c3.284,0,5.955,2.67,5.955,5.962v17.886c0,3.284-2.662,5.961-5.955,5.961H282.961z
		 M301.608,274.193c0-3.284,2.67-5.965,5.962-5.965h17.879c3.292,0,5.961,2.675,5.961,5.965v17.884c0,3.287-2.662,5.964-5.961,5.964
		H307.57c-3.284,0-5.962-2.671-5.962-5.964V274.193z M320.789,261.645c-3.284,0-5.954-2.669-5.954-5.961v-17.886
		c0-3.285,2.662-5.962,5.954-5.962h17.886c3.293,0,5.962,2.67,5.962,5.962v17.886c0,3.284-2.663,5.961-5.962,5.961H320.789z
		 M340.321,274.193c0-3.284,2.661-5.965,5.955-5.965h17.886c3.284,0,5.953,2.675,5.953,5.965v17.884c0,3.287-2.66,5.964-5.953,5.964
		h-17.886c-3.285,0-5.955-2.671-5.955-5.964V274.193z M358.618,261.645c-3.284,0-5.955-2.669-5.955-5.961v-17.886
		c0-3.285,2.661-5.962,5.955-5.962h17.886c3.291,0,5.962,2.67,5.962,5.962v17.886c0,3.284-2.663,5.961-5.962,5.961H358.618z
		 M403.35,182.901c0,3.292-2.663,5.962-5.96,5.962h-17.88c-3.292,0-5.961-2.661-5.961-5.962v-17.879c0-3.292,2.66-5.962,5.961-5.962
		h17.88c3.289,0,5.96,2.662,5.96,5.962V182.901z M371.99,139.552c0-2.195,1.778-3.963,3.964-3.963h21.851
		c2.195,0,3.971,1.776,3.971,3.963v7.952c0,2.195-1.785,3.964-3.971,3.964h-21.851c-2.194,0-3.964-1.777-3.964-3.964V139.552z
		 M370.919,201.409v17.879c0,3.292-2.663,5.962-5.962,5.962h-17.879c-3.292,0-5.971-2.66-5.971-5.962v-17.879
		c0-3.291,2.67-5.961,5.971-5.961h17.879C368.256,195.456,370.919,198.118,370.919,201.409z M336.889,139.552
		c0-2.195,1.786-3.963,3.972-3.963h21.85c2.195,0,3.965,1.776,3.965,3.963v7.952c0,2.195-1.779,3.964-3.965,3.964h-21.85
		c-2.195,0-3.972-1.777-3.972-3.964V139.552z M334.384,165.022c0-3.292,2.669-5.962,5.953-5.962h17.888
		c3.292,0,5.96,2.662,5.96,5.962v17.879c0,3.292-2.661,5.962-5.96,5.962h-17.888c-3.275,0-5.953-2.661-5.953-5.962V165.022z
		 M333.319,219.288c0,3.292-2.67,5.962-5.962,5.962H309.47c-3.284,0-5.954-2.66-5.954-5.962v-17.879c0-3.291,2.66-5.961,5.954-5.961
		h17.887c3.284,0,5.962,2.662,5.962,5.961V219.288z M301.788,139.552c0-2.195,1.786-3.963,3.98-3.963h21.844
		c2.202,0,3.971,1.776,3.971,3.963v7.952c0,2.195-1.777,3.964-3.971,3.964h-21.844c-2.202,0-3.98-1.777-3.98-3.964V139.552z
		 M301.167,159.068h17.878c3.292,0,5.963,2.663,5.963,5.962v17.879c0,3.293-2.663,5.962-5.963,5.962h-17.878
		c-3.293,0-5.963-2.662-5.963-5.962v-17.879C295.211,161.731,297.873,159.068,301.167,159.068z M266.688,139.552
		c0-2.195,1.777-3.963,3.963-3.963h21.851c2.203,0,3.979,1.776,3.979,3.963v7.952c0,2.195-1.786,3.964-3.979,3.964h-21.851
		c-2.194,0-3.963-1.777-3.963-3.964V139.552z M279.874,159.068c3.291,0,5.962,2.663,5.962,5.962v17.879
		c0,3.293-2.663,5.962-5.962,5.962h-17.88c-3.282,0-5.962-2.662-5.962-5.962v-17.879c0-3.292,2.67-5.962,5.962-5.962H279.874z
		 M231.587,139.552c0-2.195,1.784-3.963,3.971-3.963h21.851c2.195,0,3.964,1.776,3.964,3.963v7.952c0,2.195-1.777,3.964-3.964,3.964
		h-21.851c-2.195,0-3.971-1.777-3.971-3.964V139.552z M196.484,139.552c0-2.195,1.785-3.963,3.981-3.963h21.85
		c2.194,0,3.964,1.776,3.964,3.963v7.952c0,2.195-1.777,3.964-3.964,3.964h-21.85c-2.204,0-3.981-1.777-3.981-3.964V139.552z
		 M161.391,139.552c0-2.195,1.778-3.963,3.964-3.963h21.851c2.203,0,3.979,1.776,3.979,3.963v7.952c0,2.195-1.786,3.964-3.979,3.964
		h-21.851c-2.195,0-3.964-1.777-3.964-3.964V139.552z M126.298,139.552c0-2.195,1.776-3.963,3.963-3.963h21.85
		c2.195,0,3.973,1.776,3.973,3.963v7.952c0,2.195-1.786,3.964-3.973,3.964h-21.849c-2.194,0-3.963-1.777-3.963-3.964
		L126.298,139.552L126.298,139.552z M129.131,165.022v17.879c0,3.292-2.661,5.962-5.961,5.962h-17.886
		c-3.284,0-5.955-2.661-5.955-5.962v-17.879c0-3.292,2.661-5.962,5.955-5.962h17.886
		C126.47,159.068,129.131,161.731,129.131,165.022z M91.187,139.552c0-2.195,1.794-3.963,3.981-3.963h21.85
		c2.195,0,3.964,1.776,3.964,3.963v7.952c0,2.195-1.776,3.964-3.964,3.964h-21.85c-2.195,0-3.981-1.777-3.981-3.964V139.552z
		 M89.96,165.022v17.879c0,3.292-2.663,5.962-5.963,5.962H66.111c-3.284,0-5.953-2.661-5.953-5.962v-17.879
		c0-3.292,2.662-5.962,5.953-5.962h17.886C87.297,159.068,89.96,161.731,89.96,165.022z M56.095,139.552
		c0-2.195,1.777-3.963,3.971-3.963h21.852c2.194,0,3.973,1.776,3.973,3.963v7.952c0,2.195-1.786,3.964-3.973,3.964H60.066
		c-2.203,0-3.971-1.777-3.971-3.964V139.552z M24.957,135.589h21.851c2.195,0,3.972,1.776,3.972,3.963v7.952
		c0,2.195-1.785,3.964-3.972,3.964H24.966c-2.196,0-3.964-1.777-3.964-3.964v-7.952h-0.007
		C20.994,137.358,22.77,135.589,24.957,135.589z M20.994,165.022c0-3.292,2.661-5.962,5.955-5.962h17.885
		c3.293,0,5.962,2.662,5.962,5.962v17.879c0,3.292-2.661,5.962-5.962,5.962H26.948c-3.284,0-5.955-2.661-5.955-5.962L20.994,165.022
		L20.994,165.022z M20.994,201.409c0-3.291,2.661-5.961,5.955-5.961h37.746c3.284,0,5.954,2.662,5.954,5.961v17.879
		c0,3.292-2.661,5.962-5.954,5.962H26.948c-3.284,0-5.955-2.66-5.955-5.962L20.994,201.409L20.994,201.409z M20.994,237.806
		c0-3.284,2.661-5.962,5.955-5.962h47.681c3.284,0,5.954,2.671,5.954,5.962v17.887c0,3.285-2.663,5.961-5.954,5.961H26.948
		c-3.284,0-5.955-2.668-5.955-5.961L20.994,237.806L20.994,237.806z M89.125,328.467h-0.007c0,3.292-2.662,5.962-5.962,5.962h-56.2
		c-3.292,0-5.962-2.664-5.962-5.962v-17.878c0-3.294,2.661-5.963,5.962-5.963h56.207c3.293,0,5.962,2.661,5.962,5.963V328.467z
		 M26.948,298.034c-3.284,0-5.955-2.672-5.955-5.964v-17.884c0-3.284,2.661-5.964,5.955-5.964h66.263
		c3.284,0,5.962,2.671,5.962,5.964v17.884c0,3.283-2.669,5.964-5.962,5.964H26.948z M126.699,328.467
		c0,3.292-2.653,5.962-5.954,5.962h-17.887c-3.284,0-5.954-2.664-5.954-5.962v-17.878c0-3.294,2.662-5.963,5.954-5.963h17.887
		c3.293,0,5.954,2.661,5.954,5.963V328.467L126.699,328.467z M114.037,298.034c-3.283,0-5.961-2.672-5.961-5.964v-17.884
		c0-3.284,2.669-5.964,5.961-5.964h17.88c3.291,0,5.968,2.671,5.968,5.964v17.884c0,3.283-2.67,5.964-5.968,5.964H114.037z
		 M173.593,328.467c0,3.292-2.669,5.962-5.953,5.962h-27.813c-3.292,0-5.962-2.664-5.962-5.962v-17.878
		c0-3.294,2.662-5.963,5.962-5.963h27.813c3.275,0,5.953,2.661,5.953,5.963V328.467z M176.574,292.077
		c0,3.287-2.661,5.964-5.962,5.964h-17.885c-3.284,0-5.955-2.671-5.955-5.964v-17.884c0-3.284,2.661-5.965,5.955-5.965h17.885
		c3.293,0,5.962,2.675,5.962,5.965V292.077z M381.432,328.467c0,3.292-2.667,5.962-5.96,5.962H188.745
		c-3.284,0-5.962-2.664-5.962-5.962v-17.878c0-3.294,2.671-5.963,5.962-5.963h186.727c3.285,0,5.96,2.661,5.96,5.963V328.467z
		 M379.009,292.077v-17.884c0-3.284,2.672-5.965,5.971-5.965h17.88c3.292,0,5.962,2.675,5.962,5.965v17.884
		c0,3.287-2.664,5.964-5.962,5.964h-17.88C381.681,298.034,379.009,295.364,379.009,292.077z M430.606,328.467
		c0,3.292-2.673,5.962-5.965,5.962H396.83c-3.293,0-5.962-2.664-5.962-5.962v-17.878c0-3.294,2.664-5.963,5.962-5.963h27.812
		c3.284,0,5.965,2.661,5.965,5.963V328.467z M466.886,328.467c0,3.292-2.662,5.962-5.954,5.962h-17.886
		c-3.293,0-5.963-2.664-5.963-5.962v-17.878c0-3.294,2.662-5.963,5.963-5.963h17.886c3.284,0,5.954,2.661,5.954,5.963V328.467z
		 M505.099,330.455c0,2.195-1.786,3.965-3.972,3.965h-21.851c-2.193,0-3.971-1.778-3.971-3.965v-5.183
		c0-2.202,1.784-3.973,3.971-3.973h21.851c2.195,0,3.972,1.777,3.972,3.973V330.455L505.099,330.455z M539.969,330.455
		c0,2.195-1.77,3.965-3.964,3.965h-21.85c-2.195,0-3.973-1.778-3.973-3.965v-5.183c0-2.202,1.785-3.973,3.973-3.973h21.85
		c2.204,0,3.964,1.777,3.964,3.973V330.455z M539.969,312.063c0,2.195-1.77,3.966-3.964,3.966h-21.85
		c-2.195,0-3.973-1.78-3.973-3.966v-5.182c0-2.203,1.785-3.973,3.973-3.973h21.85c2.204,0,3.964,1.776,3.964,3.973V312.063z
		 M574.188,330.455c0,2.195-1.771,3.965-3.965,3.965h-21.849c-2.196,0-3.974-1.778-3.974-3.965v-5.183
		c0-2.202,1.786-3.973,3.974-3.973h21.849c2.204,0,3.965,1.777,3.965,3.973V330.455z M570.979,261.645h-20.631
		c-3.285,0-5.961-2.669-5.961-5.961v-30.435h-4.662c-3.284,0-5.962-2.661-5.962-5.962v-17.879c0-3.292,2.67-5.961,5.962-5.961
		h10.623h4.349h16.274c3.29,0,5.962,2.662,5.962,5.961v54.275h0.008C576.94,258.968,574.278,261.645,570.979,261.645z
		 M576.94,182.901c0,3.292-2.673,5.962-5.961,5.962H533.24c-3.293,0-5.962-2.661-5.962-5.962v-17.879
		c0-3.292,2.662-5.962,5.962-5.962h37.739c3.281,0,5.961,2.662,5.961,5.962V182.901z M577.275,147.497
		c0,2.194-1.776,3.963-3.963,3.963h-21.857c-2.194,0-3.965-1.778-3.965-3.963v-7.953c0-2.195,1.778-3.964,3.965-3.964h21.857
		c2.194,0,3.963,1.778,3.963,3.964V147.497z"/>
	<path id="WASD_1_" d="M197.353,228.103v37.137H82.811v-37.137h28.596v-35.545h38.463v35.545H197.353z"/>
	<g id="Q_1_">
		<path id="Q" fill="#FFFFFF" d="M83.875,225.25c-3.292,0-5.962-2.66-5.962-5.962v-17.879c0-3.291,2.661-5.961,5.962-5.961h17.888
			c3.283,0,5.953,2.662,5.953,5.961v17.879c0,3.292-2.662,5.962-5.953,5.962H83.875z"/>
		<text transform="matrix(1 0 0 1 80.8398 206.9854)" font-family="'MyriadPro-Regular'" font-size="11.6716">Q</text>
	</g>
	<g id="W_1_">
		<path id="W" fill="#FFFFFF" d="M115.512,219.288v-17.879c0-3.291,2.669-5.961,5.97-5.961h17.878c3.285,0,5.962,2.662,5.962,5.961
			v17.879c0,3.292-2.669,5.962-5.962,5.962h-17.878C118.19,225.25,115.512,222.58,115.512,219.288z"/>
		<text transform="matrix(1 0 0 1 118.9751 206.9854)" font-family="'MyriadPro-Regular'" font-size="11.6716">W</text>
	</g>
	<g id="E_1_">
		<path id="E" fill="#FFFFFF" d="M153.119,219.288v-17.879c0-3.291,2.671-5.961,5.962-5.961h17.879c3.293,0,5.962,2.662,5.962,5.961
			v17.879c0,3.292-2.661,5.962-5.962,5.962h-17.879C155.79,225.25,153.119,222.58,153.119,219.288z"/>
		<text transform="matrix(1 0 0 1 156.7671 206.9854)" font-family="'MyriadPro-Regular'" font-size="11.6716">E</text>
	</g>
	<g id="R_1_">
		<path id="R" fill="#FFFFFF" d="M220.513,201.409v17.879c0,3.292-2.653,5.962-5.954,5.962h-17.886c-3.285,0-5.954-2.66-5.954-5.962
			v-17.879c0-3.291,2.662-5.961,5.954-5.961h17.886C217.851,195.456,220.513,198.118,220.513,201.409z"/>
		<text transform="matrix(1 0 0 1 193.3149 206.9854)" font-family="'MyriadPro-Regular'" font-size="11.6716">R</text>
	</g>
	<g id="T_1_">
		<path id="T" fill="#FFFFFF" d="M252.15,195.456c3.292,0,5.971,2.662,5.971,5.962v17.879c0,3.293-2.67,5.962-5.971,5.962h-17.869
			c-3.293,0-5.962-2.661-5.962-5.962v-17.879c0-3.292,2.661-5.962,5.962-5.962H252.15z"/>
		<text transform="matrix(1 0 0 1 232.4614 206.9854)" font-family="'MyriadPro-Regular'" font-size="11.6716">T</text>
	</g>
	<g id="Y_1_">
		<path id="Y" fill="#FFFFFF" d="M265.926,219.288v-17.879c0-3.291,2.669-5.961,5.962-5.961h17.878c3.292,0,5.97,2.662,5.97,5.961
			v17.879c0,3.292-2.67,5.962-5.97,5.962h-17.878C268.595,225.25,265.926,222.58,265.926,219.288z"/>
		<text transform="matrix(1 0 0 1 269.77 206.9854)" font-family="'MyriadPro-Regular'" font-size="11.6716">Y</text>
	</g>
	<g id="U_1_">
		<path id="U" fill="#FFFFFF" d="M333.319,219.288c0,3.292-2.67,5.962-5.962,5.962H309.47c-3.284,0-5.954-2.66-5.954-5.962v-17.879
			c0-3.291,2.66-5.961,5.954-5.961h17.887c3.284,0,5.962,2.662,5.962,5.961V219.288z"/>
		<text transform="matrix(1 0 0 1 306.8008 206.9854)" font-family="'MyriadPro-Regular'" font-size="11.6716">U</text>
	</g>
	<g id="I_1_">
		<path id="I" fill="#FFFFFF" d="M370.919,201.409v17.879c0,3.292-2.663,5.962-5.962,5.962h-17.879c-3.292,0-5.971-2.66-5.971-5.962
			v-17.879c0-3.291,2.67-5.961,5.971-5.961h17.879C368.256,195.456,370.919,198.118,370.919,201.409z"/>
		<text transform="matrix(1 0 0 1 345.9639 206.9854)" font-family="'MyriadPro-Regular'" font-size="11.6716">I</text>
	</g>
	<g id="O_1_">
		<path id="O" fill="#FFFFFF" d="M408.526,201.409v17.879c0,3.292-2.671,5.962-5.963,5.962h-17.878c-3.291,0-5.971-2.66-5.971-5.962
			v-17.879c0-3.291,2.672-5.961,5.971-5.961h17.878C405.855,195.456,408.526,198.118,408.526,201.409z"/>
		<text transform="matrix(1 0 0 1 382.4658 206.9854)" font-family="'MyriadPro-Regular'" font-size="11.6716">O</text>
	</g>
	<g id="P_1_">
		<path id="P" fill="#FFFFFF" d="M416.33,219.288v-17.879c0-3.291,2.671-5.961,5.964-5.961h17.875c3.285,0,5.965,2.662,5.965,5.961
			v17.879c0,3.292-2.672,5.962-5.965,5.962h-17.875C419.001,225.25,416.33,222.58,416.33,219.288z"/>
		<text transform="matrix(1 0 0 1 420.2861 206.9854)" font-family="'MyriadPro-Regular'" font-size="11.6716">P</text>
	</g>
	<g id="A_1_">
		<path id="A" fill="#FFFFFF" d="M87.846,237.806c0-3.284,2.662-5.962,5.963-5.962h17.886c3.275,0,5.954,2.671,5.954,5.962v17.887
			c0,3.285-2.669,5.961-5.954,5.961H93.809c-3.292,0-5.963-2.668-5.963-5.961V237.806z"/>
		<text transform="matrix(1 0 0 1 92.8145 244.0869)" font-family="'MyriadPro-Regular'" font-size="11.6716">A</text>
	</g>
	<g id="S_1_">
		<path id="S" fill="#FFFFFF" d="M125.684,237.806c0-3.284,2.661-5.962,5.963-5.962h17.885c3.283,0,5.954,2.671,5.954,5.962v17.887
			c0,3.285-2.662,5.961-5.954,5.961h-17.885c-3.293,0-5.963-2.668-5.963-5.961V237.806z"/>
		<text transform="matrix(1 0 0 1 130.4175 244.0869)" font-family="'MyriadPro-Regular'" font-size="11.6716">S</text>
	</g>
	<g id="D_1_">
		<path id="D" fill="#FFFFFF" d="M163.521,237.806c0-3.284,2.661-5.962,5.954-5.962h17.886c3.284,0,5.953,2.671,5.953,5.962v17.887
			c0,3.285-2.662,5.961-5.953,5.961h-17.886c-3.284,0-5.954-2.668-5.954-5.961V237.806L163.521,237.806z"/>
		<text transform="matrix(1 0 0 1 168.0205 244.0869)" font-family="'MyriadPro-Regular'" font-size="11.6716">D</text>
	</g>
	<g id="F_1_">
		<path id="F" fill="#FFFFFF" d="M207.295,261.645c-3.284,0-5.962-2.669-5.962-5.961v-17.886c0-3.285,2.67-5.962,5.962-5.962h17.887
			c3.284,0,5.954,2.67,5.954,5.962v17.886c0,3.284-2.662,5.961-5.954,5.961H207.295z"/>
		<text transform="matrix(1 0 0 1 205.6152 244.0869)" font-family="'MyriadPro-Regular'" font-size="11.6716">F</text>
	</g>
	<g id="G_1_">
		<path id="G" fill="#FFFFFF" d="M245.131,261.645c-3.284,0-5.954-2.669-5.954-5.961v-17.886c0-3.285,2.661-5.962,5.954-5.962
			h17.886c3.292,0,5.954,2.67,5.954,5.962v17.886c0,3.284-2.653,5.961-5.954,5.961H245.131z"/>
		<text transform="matrix(1 0 0 1 243.2192 244.0869)" font-family="'MyriadPro-Regular'" font-size="11.6716">G</text>
	</g>
	<g id="H_1_">
		<path id="H" fill="#FFFFFF" d="M282.961,261.645c-3.284,0-5.963-2.669-5.963-5.961v-17.886c0-3.285,2.669-5.962,5.963-5.962
			h17.885c3.284,0,5.955,2.67,5.955,5.962v17.886c0,3.284-2.662,5.961-5.955,5.961H282.961z"/>
		<text transform="matrix(1 0 0 1 280.8311 244.0869)" font-family="'MyriadPro-Regular'" font-size="11.6716">H</text>
	</g>
	<g id="J_1_">
		<path id="J" fill="#FFFFFF" d="M320.789,261.645c-3.284,0-5.954-2.669-5.954-5.961v-17.886c0-3.285,2.662-5.962,5.954-5.962
			h17.886c3.293,0,5.962,2.67,5.962,5.962v17.886c0,3.284-2.663,5.961-5.962,5.961H320.789z"/>
		<text transform="matrix(1 0 0 1 319.9053 244.0869)" font-family="'MyriadPro-Regular'" font-size="11.6716">J</text>
	</g>
	<g id="K_1_">
		<path id="K" fill="#FFFFFF" d="M358.618,261.645c-3.284,0-5.955-2.669-5.955-5.961v-17.886c0-3.285,2.661-5.962,5.955-5.962
			h17.886c3.291,0,5.962,2.67,5.962,5.962v17.886c0,3.284-2.663,5.961-5.962,5.961H358.618z"/>
		<text transform="matrix(1 0 0 1 356.0132 244.0869)" font-family="'MyriadPro-Regular'" font-size="11.6716">K</text>
	</g>
	<g id="L_1_">
		<path id="L" fill="#FFFFFF" d="M420.285,237.806v17.887c0,3.285-2.661,5.961-5.962,5.961h-17.869
			c-3.294,0-5.972-2.668-5.972-5.961v-17.887c0-3.284,2.67-5.962,5.972-5.962h17.869
			C417.625,231.842,420.285,234.513,420.285,237.806z"/>
		<text transform="matrix(1 0 0 1 393.6191 244.0869)" font-family="'MyriadPro-Regular'" font-size="11.6716">L</text>
	</g>
	<g id="Z_1_">
		<path id="Z" fill="#FFFFFF" d="M114.124,298.031c-3.293,0-5.97-2.672-5.97-5.964v-17.885c0-3.284,2.671-5.965,5.97-5.965h17.879
			c3.284,0,5.961,2.673,5.961,5.965v17.885c0,3.283-2.669,5.964-5.961,5.964H114.124z"/>
		<text transform="matrix(1 0 0 1 111.4072 281.2676)" font-family="'MyriadPro-Regular'" font-size="11.6716">Z</text>
	</g>
	<g id="X_1_">
		<path id="X" fill="#FFFFFF" d="M152.828,298.031c-3.283,0-5.961-2.672-5.961-5.964v-17.885c0-3.284,2.67-5.965,5.961-5.965h17.88
			c3.292,0,5.968,2.673,5.968,5.965v17.885c0,3.283-2.669,5.964-5.968,5.964H152.828z"/>
		<text transform="matrix(1 0 0 1 149.8706 281.2676)" font-family="'MyriadPro-Regular'" font-size="11.6716">X</text>
	</g>
	<g id="C_1_">
		<path id="C" fill="#FFFFFF" d="M215.365,292.074c0,3.286-2.662,5.964-5.962,5.964h-17.886c-3.285,0-5.955-2.672-5.955-5.964
			v-17.886c0-3.282,2.661-5.962,5.955-5.962h17.885c3.293,0,5.962,2.673,5.962,5.962L215.365,292.074L215.365,292.074z"/>
		<text transform="matrix(1 0 0 1 189.1294 281.2676)" font-family="'MyriadPro-Regular'" font-size="11.6716">C</text>
	</g>
	<g id="V_1_">
		<path id="V" fill="#FFFFFF" d="M224.277,274.188c0-3.282,2.661-5.962,5.961-5.962h17.886c3.284,0,5.955,2.673,5.955,5.962v17.886
			c0,3.286-2.661,5.964-5.955,5.964h-17.886c-3.292,0-5.961-2.672-5.961-5.964V274.188L224.277,274.188z"/>
		<text transform="matrix(1 0 0 1 228.3887 281.2676)" font-family="'MyriadPro-Regular'" font-size="11.6716">V</text>
	</g>
	<g id="B_1_">
		<path id="B" fill="#FFFFFF" d="M262.981,274.188c0-3.282,2.669-5.962,5.97-5.962h17.879c3.285,0,5.962,2.673,5.962,5.962v17.886
			c0,3.286-2.671,5.964-5.962,5.964h-17.879c-3.292,0-5.97-2.672-5.97-5.964V274.188z"/>
		<text transform="matrix(1 0 0 1 265.9258 281.2676)" font-family="'MyriadPro-Regular'" font-size="11.6716">B</text>
	</g>
	<g id="N_1_">
		<path id="N" fill="#FFFFFF" d="M301.686,274.188c0-3.282,2.671-5.962,5.962-5.962h17.878c3.293,0,5.971,2.673,5.971,5.962v17.886
			c0,3.286-2.669,5.964-5.971,5.964h-17.878c-3.284,0-5.962-2.672-5.962-5.964V274.188z"/>
		<text transform="matrix(1 0 0 1 304.7852 281.2676)" font-family="'MyriadPro-Regular'" font-size="11.6716">N</text>
	</g>
	<g id="M_1_">
		<path id="M" fill="#FFFFFF" d="M340.399,274.188c0-3.282,2.669-5.962,5.962-5.962h17.879c3.292,0,5.961,2.673,5.961,5.962v17.886
			c0,3.286-2.66,5.964-5.961,5.964h-17.879c-3.284,0-5.962-2.672-5.962-5.964V274.188z"/>
		<text transform="matrix(1 0 0 1 344.6372 281.2676)" font-family="'MyriadPro-Regular'" font-size="11.6716">M</text>
	</g>
	<g id="Number_2_">
		<path id="Number" fill="#FFFFFF" d="M20.994,165.022c0-3.292,2.661-5.962,5.955-5.962h17.885c3.293,0,5.962,2.662,5.962,5.962
			v17.879c0,3.292-2.661,5.962-5.962,5.962H26.948c-3.284,0-5.955-2.661-5.955-5.962L20.994,165.022L20.994,165.022z"/>
		<text id="Number_1_" transform="matrix(1 0 0 1 27.5835 171.8667)" font-family="'MyriadPro-Regular'" font-size="11.6716">ยบ</text>
	</g>
	<path id="Numbers" d="M448.823,154.359v38.198H55.06v-38.198H448.823z"/>
	<g id="_x31__1_">
		<path id="_x31_" fill="#FFFFFF" d="M89.96,165.022v17.879c0,3.292-2.663,5.962-5.963,5.962H66.111
			c-3.284,0-5.953-2.661-5.953-5.962v-17.879c0-3.292,2.662-5.962,5.953-5.962h17.886C87.297,159.068,89.96,161.731,89.96,165.022z"
			/>
		<text transform="matrix(1 0 0 1 63.6592 171.8667)" font-family="'MyriadPro-Regular'" font-size="11.6716">1</text>
	</g>
	<g id="_x32__1_">
		<path id="_x32_" fill="#FFFFFF" d="M129.131,165.022v17.879c0,3.292-2.661,5.962-5.961,5.962h-17.886
			c-3.284,0-5.955-2.661-5.955-5.962v-17.879c0-3.292,2.661-5.962,5.955-5.962h17.886
			C126.47,159.068,129.131,161.731,129.131,165.022z"/>
		<text transform="matrix(1 0 0 1 102.7476 171.8667)" font-family="'MyriadPro-Regular'" font-size="11.6716">2</text>
	</g>
	<g id="_x33__1_">
		<path id="_x33_" fill="#FFFFFF" d="M138.517,182.901v-17.879c0-3.292,2.663-5.962,5.954-5.962h17.886
			c3.293,0,5.963,2.662,5.963,5.962v17.879c0,3.292-2.662,5.962-5.963,5.962h-17.886
			C141.179,188.855,138.517,186.193,138.517,182.901z"/>
		<text transform="matrix(1 0 0 1 142.708 171.8667)" font-family="'MyriadPro-Regular'" font-size="11.6716">3</text>
	</g>
	<g id="_x34__1_">
		<path id="_x34_" fill="#FFFFFF" d="M207.482,182.901c0,3.292-2.662,5.962-5.962,5.962h-17.888c-3.284,0-5.953-2.661-5.953-5.962
			v-17.879c0-3.292,2.662-5.962,5.953-5.962h17.887c3.292,0,5.962,2.662,5.962,5.962V182.901L207.482,182.901z"/>
		<text transform="matrix(1 0 0 1 180.9063 171.8667)" font-family="'MyriadPro-Regular'" font-size="11.6716">4</text>
	</g>
	<g id="_x35__1_">
		<path id="_x35_" fill="#FFFFFF" d="M246.655,182.901c0,3.292-2.661,5.962-5.963,5.962h-17.878c-3.292,0-5.962-2.661-5.962-5.962
			v-17.879c0-3.292,2.663-5.962,5.962-5.962h17.878c3.293,0,5.963,2.662,5.963,5.962V182.901z"/>
		<text transform="matrix(1 0 0 1 220.5127 171.8667)" font-family="'MyriadPro-Regular'" font-size="11.6716">5</text>
	</g>
	<g id="_x36__1_">
		<path id="_x36_" fill="#FFFFFF" d="M279.874,159.068c3.291,0,5.962,2.663,5.962,5.962v17.879c0,3.293-2.663,5.962-5.962,5.962
			h-17.88c-3.282,0-5.962-2.662-5.962-5.962v-17.879c0-3.292,2.67-5.962,5.962-5.962H279.874z"/>
		<text transform="matrix(1 0 0 1 260.4858 171.8667)" font-family="'MyriadPro-Regular'" font-size="11.6716">6</text>
	</g>
	<g id="_x37__1_">
		<path id="_x37_" fill="#FFFFFF" d="M301.167,159.068h17.878c3.292,0,5.963,2.663,5.963,5.962v17.879
			c0,3.293-2.663,5.962-5.963,5.962h-17.878c-3.293,0-5.963-2.662-5.963-5.962v-17.879
			C295.211,161.731,297.873,159.068,301.167,159.068z"/>
		<text transform="matrix(1 0 0 1 299.1304 171.8667)" font-family="'MyriadPro-Regular'" font-size="11.6716">7</text>
	</g>
	<g id="_x38__1_">
		<path id="_x38_" fill="#FFFFFF" d="M334.384,165.022c0-3.292,2.669-5.962,5.953-5.962h17.888c3.292,0,5.96,2.662,5.96,5.962
			v17.879c0,3.292-2.661,5.962-5.96,5.962h-17.888c-3.275,0-5.953-2.661-5.953-5.962V165.022z"/>
		<text transform="matrix(1 0 0 1 337.9429 171.8667)" font-family="'MyriadPro-Regular'" font-size="11.6716">8</text>
	</g>
	<g id="_x39__1_">
		<path id="_x39_" fill="#FFFFFF" d="M403.35,182.901c0,3.292-2.663,5.962-5.96,5.962h-17.88c-3.292,0-5.961-2.661-5.961-5.962
			v-17.879c0-3.292,2.66-5.962,5.961-5.962h17.88c3.289,0,5.96,2.662,5.96,5.962V182.901z"/>
		<text transform="matrix(1 0 0 1 378.7148 171.8667)" font-family="'MyriadPro-Regular'" font-size="11.6716">9</text>
	</g>
	<g id="_x30__1_">
		<path id="_x30_" fill="#FFFFFF" d="M442.523,165.022v17.879c0,3.292-2.672,5.962-5.964,5.962h-17.878
			c-3.292,0-5.964-2.661-5.964-5.962v-17.879c0-3.292,2.664-5.962,5.964-5.962h17.878
			C439.852,159.068,442.523,161.731,442.523,165.022z"/>
		<text transform="matrix(1 0 0 1 416.3301 171.8667)" font-family="'MyriadPro-Regular'" font-size="11.6716">0</text>
	</g>
	<g id="Tab">
		<path id="Tab_1_" fill="#FFFFFF" d="M20.994,201.409c0-3.291,2.661-5.961,5.955-5.961h37.746c3.284,0,5.954,2.662,5.954,5.961
			v17.879c0,3.292-2.661,5.962-5.954,5.962H26.948c-3.284,0-5.955-2.66-5.955-5.962L20.994,201.409L20.994,201.409z"/>
		<text transform="matrix(1 0 0 1 27.5835 210.3477)" font-family="'MyriadPro-Regular'" font-size="11.6716">Tab</text>
	</g>
	<g id="Caps">
		<path id="Caps_1_" fill="#FFFFFF" d="M20.994,237.806c0-3.284,2.661-5.962,5.955-5.962h47.681c3.284,0,5.954,2.671,5.954,5.962
			v17.887c0,3.285-2.663,5.961-5.954,5.961H26.948c-3.284,0-5.955-2.668-5.955-5.961L20.994,237.806L20.994,237.806z"/>
		<text transform="matrix(1 0 0 1 27.5835 244.0869)" font-family="'MyriadPro-Regular'" font-size="11.6716">Caps</text>
	</g>
	<g id="LShift">
		<path id="LShift_2_" fill="#FFFFFF" d="M26.948,298.034c-3.284,0-5.955-2.672-5.955-5.964v-17.884
			c0-3.284,2.661-5.964,5.955-5.964h66.263c3.284,0,5.962,2.671,5.962,5.964v17.884c0,3.283-2.669,5.964-5.962,5.964H26.948z"/>
		<text id="LShift_1_" transform="matrix(1 0 0 1 27.5835 281.2676)" font-family="'MyriadPro-Regular'" font-size="11.6716">L. Shift</text>
	</g>
	<g id="RShift">
		<path id="RShift_2_" fill="#FFFFFF" d="M494.05,274.193c0-3.284,2.671-5.965,5.964-5.965h67.539c3.285,0,5.963,2.675,5.963,5.965
			v17.884c0,3.287-2.67,5.964-5.963,5.964h-67.539c-3.285,0-5.964-2.671-5.964-5.964V274.193L494.05,274.193z"/>
		<text id="RShift_1_" transform="matrix(1 0 0 1 500.2852 281.2676)" font-family="'MyriadPro-Regular'" font-size="11.6716">R. Shift</text>
	</g>
	<g id="LCtrl">
		<path id="LCtrl_1_" fill="#FFFFFF" d="M89.125,328.467h-0.007c0,3.292-2.662,5.962-5.962,5.962h-56.2
			c-3.292,0-5.962-2.664-5.962-5.962v-17.878c0-3.294,2.661-5.963,5.962-5.963h56.207c3.293,0,5.962,2.661,5.962,5.963V328.467z"/>
		<text id="LCtrl_2_" transform="matrix(1 0 0 1 27.5835 319.5264)" font-family="'MyriadPro-Regular'" font-size="11.6716">Ctrl</text>
	</g>
	<g id="RCtrl">
		<path id="RCtrl_2_" fill="#FFFFFF" d="M466.886,328.467c0,3.292-2.662,5.962-5.954,5.962h-17.886
			c-3.293,0-5.963-2.664-5.963-5.962v-17.878c0-3.294,2.662-5.963,5.963-5.963h17.886c3.284,0,5.954,2.661,5.954,5.963V328.467z"/>
		<text id="RCtrl_1_" transform="matrix(1 0 0 1 440.8662 319.5264)" font-family="'MyriadPro-Regular'" font-size="11.6716">Ctrl</text>
	</g>
	<g id="Space">
		<path id="Space_1_" fill="#FFFFFF" d="M381.432,328.467c0,3.292-2.667,5.962-5.96,5.962H188.745c-3.284,0-5.962-2.664-5.962-5.962
			v-17.878c0-3.294,2.671-5.963,5.962-5.963h186.727c3.285,0,5.96,2.661,5.96,5.963V328.467z"/>
		<text transform="matrix(1 0 0 1 189.1294 318.293)" font-family="'MyriadPro-Regular'" font-size="11.6716">Space</text>
	</g>
	<g id="LAlt">
		<path id="LAlt_2_" fill="#FFFFFF" d="M173.593,328.467c0,3.292-2.669,5.962-5.953,5.962h-27.813c-3.292,0-5.962-2.664-5.962-5.962
			v-17.878c0-3.294,2.662-5.963,5.962-5.963h27.813c3.275,0,5.953,2.661,5.953,5.963V328.467z"/>
		<text id="LAlt_1_" transform="matrix(1 0 0 1 137.9639 318.293)" font-family="'MyriadPro-Regular'" font-size="11.6716">Alt</text>
	</g>
	<g id="RAlt">
		<path id="RAlt_2_" fill="#FFFFFF" d="M430.606,328.467c0,3.292-2.673,5.962-5.965,5.962H396.83c-3.293,0-5.962-2.664-5.962-5.962
			v-17.878c0-3.294,2.664-5.963,5.962-5.963h27.812c3.284,0,5.965,2.661,5.965,5.963V328.467z"/>
		<text id="RAlt_1_" transform="matrix(1 0 0 1 395.7705 318.293)" font-family="'MyriadPro-Regular'" font-size="11.6716">Alt</text>
	</g>
	<g id="Enter">
		<path id="Enter_1_" fill="#FFFFFF" d="M570.979,261.645h-20.631c-3.285,0-5.961-2.669-5.961-5.961v-30.435h-4.662
			c-3.284,0-5.962-2.661-5.962-5.962v-17.879c0-3.292,2.67-5.961,5.962-5.961h10.623h4.349h16.274c3.29,0,5.962,2.662,5.962,5.961
			v54.275h0.008C576.94,258.968,574.278,261.645,570.979,261.645z"/>
		<text transform="matrix(1 0 0 1 539.0137 206.9854)" font-family="'MyriadPro-Regular'" font-size="11.6716">Enter</text>
	</g>
	<g id="Return">
		<path id="Return_1_" fill="#FFFFFF" d="M576.94,182.901c0,3.292-2.673,5.962-5.961,5.962H533.24c-3.293,0-5.962-2.661-5.962-5.962
			v-17.879c0-3.292,2.662-5.962,5.962-5.962h37.739c3.281,0,5.961,2.662,5.961,5.962V182.901z"/>
		<text transform="matrix(1 0 0 1 533.7637 173.9609)" font-family="'MyriadPro-Regular'" font-size="11.6716">Return</text>
	</g>
	<path id="ArrowKeys_1_" d="M576.94,335.307H472.554V302.03H576.94V335.307z"/>
	<path id="Left" fill="#FFFFFF" d="M505.099,330.455c0,2.195-1.786,3.965-3.972,3.965h-21.851c-2.193,0-3.971-1.778-3.971-3.965
		v-5.183c0-2.202,1.784-3.973,3.971-3.973h21.851c2.195,0,3.972,1.777,3.972,3.973V330.455L505.099,330.455z"/>
	<path id="Down" fill="#FFFFFF" d="M539.969,330.455c0,2.195-1.77,3.965-3.964,3.965h-21.85c-2.195,0-3.973-1.778-3.973-3.965
		v-5.183c0-2.202,1.785-3.973,3.973-3.973h21.85c2.204,0,3.964,1.777,3.964,3.973V330.455z"/>
	<path id="Right" fill="#FFFFFF" d="M574.188,330.455c0,2.195-1.771,3.965-3.965,3.965h-21.849c-2.196,0-3.974-1.778-3.974-3.965
		v-5.183c0-2.202,1.786-3.973,3.974-3.973h21.849c2.204,0,3.965,1.777,3.965,3.973V330.455z"/>
	<path id="Up" fill="#FFFFFF" d="M539.969,312.063c0,2.195-1.77,3.966-3.964,3.966h-21.85c-2.195,0-3.973-1.78-3.973-3.966v-5.182
		c0-2.203,1.785-3.973,3.973-3.973h21.85c2.204,0,3.964,1.776,3.964,3.973V312.063z"/>
</g>
<g id="Mouse">
	<path id="MouseBase" d="M719.981,201.93H671.39c-1.018,1.112-2.465,1.821-4.094,1.821h-5.56c-1.623,0-3.074-0.709-4.092-1.821
		h-48.594c-0.018,2.025-0.034,4.103-0.049,6.229c-0.057,8.385-0.106,17.493-0.106,26.837c0,9.344,0.05,18.45,0.106,26.847
		c0.066,8.369,0.146,16.044,0.222,22.578c0.081,6.521,0.172,11.898,0.221,15.748c0.073,3.834,0.115,6.144,0.122,6.529
		c0,0.006,0,0.015,0,0.021c0,0.01,0,0.018,0,0.026c0,0.057,0,0.099,0,0.154c0,0.049,0,0.101,0.01,0.155c0,0.042,0,0.099,0,0.149
		c0.006,0.047,0.006,0.099,0.016,0.148c0.199,3.774,1.72,7.354,4.283,10.613c2.563,3.243,6.184,6.149,10.598,8.592
		c4.406,2.439,9.606,4.398,15.355,5.747c5.748,1.361,12.047,2.104,18.639,2.104h12.114c6.601,0,12.889-0.743,18.632-2.104
		c5.748-1.35,10.958-3.308,15.363-5.747c4.406-2.442,8.026-5.349,10.59-8.592c2.563-3.253,4.088-6.839,4.29-10.613
		c0-0.05,0-0.102,0.009-0.148c0-0.051,0.01-0.107,0.01-0.149c0-0.055,0-0.106,0-0.155c0.007-0.058,0.007-0.099,0.007-0.154
		c0-0.009,0-0.017,0-0.026c0-0.008,0-0.017,0-0.021c0-0.386,0.05-2.696,0.115-6.529c0.064-3.85,0.147-9.228,0.222-15.748
		c0.08-6.534,0.169-14.201,0.222-22.578c0.059-8.396,0.098-17.492,0.098-26.847c0-9.353-0.039-18.452-0.106-26.837
		C720.017,206.034,720,203.957,719.981,201.93z"/>
	<path id="LeftClick" d="M624.472,143.459c-4.415,2.439-8.025,5.348-10.598,8.591c-2.563,3.251-4.086,6.83-4.283,10.613
		c-0.01,0.05-0.01,0.099-0.016,0.147c0,0.049,0,0.098,0,0.155c-0.01,0.049-0.01,0.099-0.01,0.148c0,0.049,0,0.098,0,0.147v0.007
		c0,0.009,0,0.017,0,0.024c0,0.009,0,0.017,0,0.024c-0.007,0.376-0.049,2.687-0.122,6.519c-0.057,3.849-0.147,9.222-0.221,15.74
		c-0.063,4.875-0.122,8.968-0.173,14.938h48.594c-0.906-0.992-1.477-0.885-1.477-2.333v-30.588c0-3.08,4.098-5.569,7.168-5.569
		v-26.429h-4.869c-6.601,0-12.891,0.753-18.64,2.104C634.078,139.061,628.878,141.019,624.472,143.459z"/>
	<path id="RightClick" d="M672.864,167.594v30.588c0,1.449-0.566,1.342-1.476,2.333h48.592c-0.053-5.966-0.117-10.064-0.173-14.938
		c-0.082-6.519-0.163-11.892-0.221-15.74c-0.065-3.833-0.113-6.143-0.113-6.52c0-0.007,0-0.016,0-0.024c0-0.007,0-0.015,0-0.024
		v-0.007c0-0.05,0-0.099-0.01-0.148c0-0.049,0-0.098,0-0.148c0-0.057-0.009-0.106-0.009-0.155c-0.009-0.048-0.009-0.097-0.009-0.147
		c-0.194-3.783-1.728-7.354-4.291-10.613c-2.554-3.245-6.183-6.152-10.588-8.591c-4.406-2.44-9.616-4.398-15.365-5.759
		c-5.741-1.351-12.036-2.104-18.632-2.104h-4.76v26.429C668.891,162.026,672.864,164.515,672.864,167.594z"/>
	<path id="MouseWheel" d="M666.656,163.511c2.374,0,4.291,2.293,4.291,5.127v28.165c0,2.827-1.917,5.128-4.291,5.128h-4.283
		c-2.365,0-4.291-2.3-4.291-5.128v-28.165c0-2.834,1.925-5.127,4.291-5.127H666.656z"/>
</g>
</svg>
