<?xml version="1.0" encoding="utf-8"?>
<!-- Generator: Adobe Illustrator 15.0.0, SVG Export Plug-In . SVG Version: 6.00 Build 0)  -->
<!DOCTYPE svg PUBLIC "-//W3C//DTD SVG 1.1//EN" "http://www.w3.org/Graphics/SVG/1.1/DTD/svg11.dtd">
<svg version="1.1" xmlns="http://www.w3.org/2000/svg" xmlns:xlink="http://www.w3.org/1999/xlink" x="0px" y="0px" width="730px"
	 height="470px" viewBox="0 0 730 470" enable-background="new 0 0 730 470" xml:space="preserve">
<g id="Keyboard">
	<path id="BaseKeyboard" d="M562.436,130.813H43.406c-7.233,0-13.106,5.874-13.106,13.113v182.155
		c0,7.24,5.874,13.106,13.106,13.106h519.029c7.241,0,13.106-5.866,13.106-10.497V146.535
		C575.55,136.686,569.685,130.813,562.436,130.813z M503.899,145.045c0-2.069,1.682-3.735,3.742-3.735h20.594
		c2.069,0,3.735,1.674,3.735,3.735v7.494c0,2.069-1.674,3.736-3.735,3.736h-20.594c-2.067,0-3.742-1.675-3.742-3.736V145.045z
		 M417.104,237.644v16.858c0,3.095-2.508,5.617-5.619,5.617h-16.841c-3.104,0-5.628-2.514-5.628-5.617v-16.858
		c0-3.095,2.516-5.619,5.628-5.619h16.841C414.597,232.024,417.104,234.541,417.104,237.644z M413.376,220.192v-16.85
		c0-3.102,2.518-5.619,5.621-5.619h16.847c3.095,0,5.621,2.509,5.621,5.619v16.85c0,3.103-2.518,5.619-5.621,5.619h-16.847
		C415.894,225.811,413.376,223.295,413.376,220.192z M414.689,271.937c0-3.094,2.516-5.62,5.626-5.62h16.851
		c3.101,0,5.618,2.52,5.618,5.62v16.856c0,3.097-2.51,5.62-5.618,5.62h-16.851c-3.104,0-5.626-2.517-5.626-5.62V271.937z
		 M430.295,260.111c-3.104,0-5.619-2.515-5.619-5.618v-16.856c0-3.096,2.508-5.619,5.619-5.619h16.85
		c3.103,0,5.619,2.516,5.619,5.619v16.856c0,3.096-2.508,5.618-5.619,5.618H430.295z M448.813,220.192v-16.85
		c0-3.102,2.517-5.619,5.618-5.619h16.851c3.11,0,5.626,2.509,5.626,5.619v16.85c0,3.103-2.509,5.619-5.626,5.619h-16.851
		C451.329,225.811,448.813,223.295,448.813,220.192z M451.166,271.937c0-3.094,2.51-5.62,5.618-5.62h16.851
		c3.104,0,5.619,2.52,5.619,5.62v16.856c0,3.097-2.509,5.62-5.619,5.62h-16.851c-3.102,0-5.618-2.517-5.618-5.62V271.937z
		 M465.946,260.111c-3.101,0-5.618-2.515-5.618-5.618v-16.856c0-3.096,2.509-5.619,5.618-5.619h16.852
		c3.102,0,5.616,2.516,5.616,5.619v16.856c0,3.096-2.508,5.618-5.616,5.618H465.946z M486.624,271.937c0-3.094,2.517-5.62,5.62-5.62
		h63.653c3.096,0,5.62,2.52,5.62,5.62v16.856c0,3.097-2.517,5.62-5.62,5.62h-63.653c-3.096,0-5.62-2.517-5.62-5.62V271.937z
		 M524.068,254.493c0,3.096-2.511,5.618-5.619,5.618H501.6c-3.095,0-5.627-2.515-5.627-5.618v-16.856
		c0-3.096,2.523-5.619,5.627-5.619h16.85c3.103,0,5.619,2.516,5.619,5.619V254.493z M512.335,220.192h-0.007
		c0,3.103-2.518,5.619-5.627,5.619h-16.843c-3.094,0-5.618-2.507-5.618-5.619v-16.85c0-3.102,2.517-5.619,5.618-5.619h16.852
		c3.101,0,5.625,2.509,5.625,5.619V220.192z M483.824,185.899v-16.85c0-3.102,2.508-5.619,5.619-5.619h16.849
		c3.096,0,5.619,2.509,5.619,5.619v16.85c0,3.103-2.518,5.619-5.619,5.619h-16.849C486.332,191.511,483.824,189.002,483.824,185.899
		z M470.817,145.045c0-2.069,1.683-3.735,3.743-3.735h20.594c2.069,0,3.743,1.674,3.743,3.735v7.494
		c0,2.069-1.683,3.736-3.743,3.736h-20.594c-2.069,0-3.743-1.675-3.743-3.736V145.045z M474.978,169.049v16.85
		c0,3.103-2.508,5.619-5.62,5.619h-16.849c-3.104,0-5.619-2.507-5.619-5.619v-16.85c0-3.102,2.511-5.619,5.619-5.619h16.849
		C472.47,163.438,474.978,165.947,474.978,169.049z M437.745,145.045c0-2.069,1.673-3.735,3.742-3.735h20.592
		c2.069,0,3.736,1.674,3.736,3.735v7.494c0,2.069-1.673,3.736-3.736,3.736h-20.592c-2.075,0-3.742-1.675-3.742-3.736V145.045z
		 M438.062,169.049v16.85c0,3.103-2.518,5.619-5.621,5.619h-16.848c-3.103,0-5.621-2.507-5.621-5.619v-16.85
		c0-3.102,2.51-5.619,5.621-5.619h16.848C435.544,163.438,438.062,165.947,438.062,169.049z M404.663,145.045
		c0-2.069,1.683-3.735,3.743-3.735H429c2.075,0,3.735,1.674,3.735,3.735v7.494c0,2.069-1.668,3.736-3.735,3.736h-20.594
		c-2.069,0-3.743-1.675-3.743-3.736V145.045z M406.021,203.342v16.85c0,3.103-2.516,5.619-5.619,5.619h-16.849
		c-3.102,0-5.627-2.507-5.627-5.619v-16.85c0-3.102,2.517-5.619,5.627-5.619h16.849C403.505,197.731,406.021,200.24,406.021,203.342
		z M103.795,237.644c0-3.095,2.509-5.619,5.62-5.619h16.857c3.087,0,5.611,2.517,5.611,5.619v16.858
		c0,3.095-2.516,5.617-5.611,5.617h-16.857c-3.103,0-5.62-2.514-5.62-5.617V237.644z M100.052,225.811
		c-3.103,0-5.619-2.507-5.619-5.619v-16.85c0-3.102,2.508-5.619,5.619-5.619h16.858c3.094,0,5.611,2.509,5.611,5.619v16.85
		c0,3.103-2.509,5.619-5.611,5.619H100.052z M129.869,220.192v-16.85c0-3.102,2.516-5.619,5.626-5.619h16.849
		c3.096,0,5.62,2.509,5.62,5.619v16.85c0,3.103-2.516,5.619-5.62,5.619h-16.849C132.393,225.811,129.869,223.295,129.869,220.192z
		 M151.55,185.899v-16.85c0-3.102,2.509-5.619,5.611-5.619h16.857c3.104,0,5.62,2.509,5.62,5.619v16.85
		c0,3.103-2.508,5.619-5.62,5.619h-16.857C154.059,191.511,151.55,189.002,151.55,185.899z M139.455,237.644
		c0-3.095,2.508-5.619,5.62-5.619h16.856c3.095,0,5.612,2.517,5.612,5.619v16.858c0,3.095-2.509,5.617-5.612,5.617h-16.856
		c-3.104,0-5.62-2.514-5.62-5.617V237.644z M165.312,220.192v-16.85c0-3.102,2.517-5.619,5.619-5.619h16.85
		c3.104,0,5.619,2.509,5.619,5.619v16.85c0,3.103-2.508,5.619-5.619,5.619h-16.85C167.829,225.811,165.312,223.295,165.312,220.192z
		 M253.465,185.899c0,3.103-2.508,5.619-5.62,5.619h-16.849c-3.102,0-5.619-2.507-5.619-5.619v-16.85
		c0-3.102,2.509-5.619,5.619-5.619h16.849c3.104,0,5.62,2.509,5.62,5.619V185.899z M258.644,197.731
		c3.103,0,5.627,2.509,5.627,5.619v16.85c0,3.104-2.516,5.619-5.627,5.619h-16.841c-3.104,0-5.619-2.508-5.619-5.619v-16.85
		c0-3.103,2.508-5.619,5.619-5.619H258.644z M228.827,203.342v16.85c0,3.103-2.5,5.619-5.611,5.619h-16.857
		c-3.096,0-5.611-2.507-5.611-5.619v-16.85c0-3.102,2.509-5.619,5.611-5.619h16.857C226.319,197.731,228.827,200.24,228.827,203.342
		z M216.547,185.899c0,3.103-2.509,5.619-5.619,5.619h-16.858c-3.095,0-5.611-2.507-5.611-5.619v-16.85
		c0-3.102,2.509-5.619,5.611-5.619h16.858c3.103,0,5.619,2.509,5.619,5.619V185.899z M175.115,237.644
		c0-3.095,2.508-5.619,5.611-5.619h16.857c3.095,0,5.611,2.517,5.611,5.619v16.858c0,3.095-2.509,5.617-5.611,5.617h-16.857
		c-3.095,0-5.611-2.514-5.611-5.617V237.644z M195.816,271.937c0-3.094,2.508-5.62,5.618-5.62h16.857c3.095,0,5.612,2.52,5.612,5.62
		v16.856c0,3.097-2.508,5.62-5.612,5.62h-16.857c-3.103,0-5.618-2.517-5.618-5.62V271.937z M216.37,260.111
		c-3.095,0-5.619-2.515-5.619-5.618v-16.856c0-3.096,2.516-5.619,5.619-5.619h16.858c3.095,0,5.611,2.516,5.611,5.619v16.856
		c0,3.096-2.509,5.618-5.611,5.618H216.37z M232.293,271.937c0-3.094,2.516-5.62,5.627-5.62h16.85c3.096,0,5.619,2.52,5.619,5.62
		v16.856c0,3.097-2.517,5.62-5.619,5.62h-16.85c-3.103,0-5.627-2.517-5.627-5.62V271.937z M252.029,260.111
		c-3.095,0-5.611-2.515-5.611-5.618v-16.856c0-3.096,2.508-5.619,5.611-5.619h16.857c3.103,0,5.611,2.516,5.611,5.619v16.856
		c0,3.096-2.5,5.618-5.611,5.618H252.029z M271.627,220.192v-16.85c0-3.102,2.516-5.619,5.619-5.619h16.849
		c3.103,0,5.626,2.509,5.626,5.619v16.85c0,3.103-2.516,5.619-5.626,5.619h-16.849C274.143,225.811,271.627,223.295,271.627,220.192
		z M268.77,271.937c0-3.094,2.517-5.62,5.619-5.62h16.85c3.104,0,5.627,2.52,5.627,5.62v16.856c0,3.097-2.516,5.62-5.627,5.62
		h-16.85c-3.095,0-5.619-2.517-5.619-5.62V271.937z M287.682,260.111c-3.095,0-5.62-2.515-5.62-5.618v-16.856
		c0-3.096,2.516-5.619,5.62-5.619h16.856c3.095,0,5.612,2.516,5.612,5.619v16.856c0,3.096-2.509,5.618-5.612,5.618H287.682z
		 M305.256,271.937c0-3.094,2.516-5.62,5.619-5.62h16.85c3.103,0,5.619,2.52,5.619,5.62v16.856c0,3.097-2.509,5.62-5.619,5.62
		h-16.85c-3.095,0-5.619-2.517-5.619-5.62V271.937z M323.333,260.111c-3.095,0-5.611-2.515-5.611-5.618v-16.856
		c0-3.096,2.509-5.619,5.611-5.619h16.857c3.103,0,5.619,2.516,5.619,5.619v16.856c0,3.096-2.509,5.618-5.619,5.618H323.333z
		 M341.741,271.937c0-3.094,2.508-5.62,5.612-5.62h16.857c3.095,0,5.61,2.52,5.61,5.62v16.856c0,3.097-2.508,5.62-5.61,5.62h-16.857
		c-3.096,0-5.612-2.517-5.612-5.62V271.937z M358.985,260.111c-3.095,0-5.612-2.515-5.612-5.618v-16.856
		c0-3.096,2.508-5.619,5.612-5.619h16.857c3.102,0,5.619,2.516,5.619,5.619v16.856c0,3.096-2.51,5.618-5.619,5.618H358.985z
		 M401.143,185.899c0,3.103-2.51,5.619-5.618,5.619h-16.85c-3.103,0-5.619-2.507-5.619-5.619v-16.85
		c0-3.102,2.508-5.619,5.619-5.619h16.85c3.101,0,5.618,2.509,5.618,5.619V185.899z M371.588,145.045
		c0-2.069,1.676-3.735,3.736-3.735h20.593c2.069,0,3.742,1.674,3.742,3.735v7.494c0,2.069-1.682,3.736-3.742,3.736h-20.593
		c-2.068,0-3.736-1.675-3.736-3.736V145.045z M370.578,203.342v16.85c0,3.103-2.51,5.619-5.619,5.619h-16.85
		c-3.103,0-5.627-2.507-5.627-5.619v-16.85c0-3.102,2.516-5.619,5.627-5.619h16.85C368.068,197.731,370.578,200.24,370.578,203.342z
		 M338.507,145.045c0-2.069,1.683-3.735,3.743-3.735h20.593c2.068,0,3.736,1.674,3.736,3.735v7.494c0,2.069-1.676,3.736-3.736,3.736
		H342.25c-2.069,0-3.743-1.675-3.743-3.736V145.045z M336.146,169.049c0-3.102,2.516-5.619,5.611-5.619h16.858
		c3.103,0,5.618,2.509,5.618,5.619v16.85c0,3.103-2.508,5.619-5.618,5.619h-16.858c-3.087,0-5.611-2.507-5.611-5.619V169.049z
		 M335.142,220.192c0,3.103-2.517,5.619-5.619,5.619h-16.858c-3.095,0-5.611-2.507-5.611-5.619v-16.85
		c0-3.102,2.507-5.619,5.611-5.619h16.858c3.095,0,5.619,2.509,5.619,5.619V220.192z M305.426,145.045
		c0-2.069,1.683-3.735,3.751-3.735h20.586c2.076,0,3.743,1.674,3.743,3.735v7.494c0,2.069-1.675,3.736-3.743,3.736h-20.586
		c-2.076,0-3.751-1.675-3.751-3.736V145.045z M304.84,163.438h16.849c3.103,0,5.62,2.509,5.62,5.619v16.85
		c0,3.104-2.509,5.619-5.62,5.619H304.84c-3.104,0-5.62-2.509-5.62-5.619v-16.85C299.227,165.947,301.736,163.438,304.84,163.438z
		 M272.345,145.045c0-2.069,1.675-3.735,3.735-3.735h20.594c2.076,0,3.75,1.674,3.75,3.735v7.494c0,2.069-1.683,3.736-3.75,3.736
		H276.08c-2.068,0-3.735-1.675-3.735-3.736V145.045z M284.772,163.438c3.102,0,5.619,2.509,5.619,5.619v16.85
		c0,3.104-2.509,5.619-5.619,5.619h-16.851c-3.094,0-5.619-2.509-5.619-5.619v-16.85c0-3.103,2.517-5.619,5.619-5.619H284.772z
		 M239.264,145.045c0-2.069,1.682-3.735,3.743-3.735h20.593c2.069,0,3.736,1.674,3.736,3.735v7.494c0,2.069-1.675,3.736-3.736,3.736
		h-20.593c-2.069,0-3.743-1.675-3.743-3.736V145.045z M206.181,145.045c0-2.069,1.683-3.735,3.752-3.735h20.593
		c2.068,0,3.736,1.674,3.736,3.735v7.494c0,2.069-1.675,3.736-3.736,3.736h-20.593c-2.077,0-3.752-1.675-3.752-3.736V145.045z
		 M173.108,145.045c0-2.069,1.675-3.735,3.736-3.735h20.593c2.076,0,3.75,1.674,3.75,3.735v7.494c0,2.069-1.683,3.736-3.75,3.736
		h-20.593c-2.069,0-3.736-1.675-3.736-3.736V145.045z M140.034,145.045c0-2.069,1.674-3.735,3.735-3.735h20.593
		c2.068,0,3.744,1.674,3.744,3.735v7.494c0,2.069-1.683,3.736-3.744,3.736H143.77c-2.068,0-3.735-1.675-3.735-3.736V145.045z
		 M142.704,169.049v16.85c0,3.103-2.508,5.619-5.618,5.619h-16.857c-3.095,0-5.612-2.507-5.612-5.619v-16.85
		c0-3.102,2.508-5.619,5.612-5.619h16.857C140.196,163.438,142.704,165.947,142.704,169.049z M106.944,145.045
		c0-2.069,1.691-3.735,3.752-3.735h20.592c2.069,0,3.736,1.674,3.736,3.735v7.494c0,2.069-1.674,3.736-3.736,3.736h-20.592
		c-2.069,0-3.752-1.675-3.752-3.736V145.045z M105.787,169.049v16.85c0,3.103-2.509,5.619-5.62,5.619H83.311
		c-3.095,0-5.611-2.507-5.611-5.619v-16.85c0-3.102,2.509-5.619,5.611-5.619h16.857
		C103.278,163.438,105.787,165.947,105.787,169.049z M73.871,145.045c0-2.069,1.675-3.735,3.743-3.735h20.594
		c2.068,0,3.744,1.674,3.744,3.735v7.494c0,2.069-1.683,3.736-3.744,3.736H77.614c-2.076,0-3.743-1.675-3.743-3.736V145.045z
		 M44.525,141.31h20.593c2.069,0,3.744,1.674,3.744,3.735v7.494c0,2.069-1.683,3.736-3.744,3.736H44.533
		c-2.069,0-3.736-1.675-3.736-3.736v-7.494H40.79C40.79,142.977,42.464,141.31,44.525,141.31z M40.79,169.049
		c0-3.102,2.508-5.619,5.612-5.619h16.856c3.104,0,5.619,2.509,5.619,5.619v16.85c0,3.103-2.508,5.619-5.619,5.619H46.401
		c-3.095,0-5.612-2.507-5.612-5.619V169.049z M40.79,203.342c0-3.102,2.508-5.619,5.612-5.619h35.574
		c3.095,0,5.611,2.509,5.611,5.619v16.85c0,3.103-2.508,5.619-5.611,5.619H46.401c-3.095,0-5.612-2.507-5.612-5.619V203.342z
		 M40.79,237.644c0-3.095,2.508-5.619,5.612-5.619h44.937c3.095,0,5.611,2.517,5.611,5.619v16.858c0,3.095-2.509,5.617-5.611,5.617
		H46.401c-3.095,0-5.612-2.514-5.612-5.617V237.644z M105,323.088h-0.007c0,3.102-2.508,5.619-5.619,5.619H46.408
		c-3.102,0-5.619-2.511-5.619-5.619v-16.849c0-3.104,2.508-5.62,5.619-5.62h52.973c3.104,0,5.619,2.508,5.619,5.62V323.088z
		 M46.401,294.407c-3.095,0-5.612-2.518-5.612-5.621v-16.855c0-3.095,2.508-5.621,5.612-5.621h62.45
		c3.095,0,5.619,2.518,5.619,5.621v16.855c0,3.095-2.515,5.621-5.619,5.621H46.401z M140.412,323.088c0,3.102-2.5,5.619-5.611,5.619
		h-16.858c-3.095,0-5.611-2.511-5.611-5.619v-16.849c0-3.104,2.509-5.62,5.611-5.62h16.858c3.104,0,5.611,2.508,5.611,5.62V323.088z
		 M128.479,294.407c-3.094,0-5.618-2.518-5.618-5.621v-16.855c0-3.095,2.516-5.621,5.618-5.621h16.851
		c3.102,0,5.625,2.518,5.625,5.621v16.855c0,3.095-2.516,5.621-5.625,5.621H128.479z M184.608,323.088
		c0,3.102-2.516,5.619-5.611,5.619h-26.212c-3.102,0-5.619-2.511-5.619-5.619v-16.849c0-3.104,2.509-5.62,5.619-5.62h26.212
		c3.087,0,5.611,2.508,5.611,5.62V323.088z M187.417,288.793c0,3.097-2.508,5.62-5.619,5.62h-16.856
		c-3.095,0-5.612-2.517-5.612-5.62v-16.856c0-3.094,2.508-5.62,5.612-5.62h16.856c3.104,0,5.619,2.52,5.619,5.62V288.793z
		 M380.486,323.088c0,3.102-2.514,5.619-5.617,5.619H198.887c-3.095,0-5.619-2.511-5.619-5.619v-16.849
		c0-3.104,2.517-5.62,5.619-5.62h175.982c3.096,0,5.617,2.508,5.617,5.62V323.088z M378.203,288.793v-16.856
		c0-3.094,2.517-5.62,5.627-5.62h16.851c3.102,0,5.619,2.52,5.619,5.62v16.856c0,3.097-2.511,5.62-5.619,5.62H383.83
		C380.72,294.407,378.203,291.89,378.203,288.793z M426.831,323.088c0,3.102-2.518,5.619-5.621,5.619h-26.212
		c-3.103,0-5.618-2.511-5.618-5.619v-16.849c0-3.104,2.51-5.62,5.618-5.62h26.212c3.095,0,5.621,2.508,5.621,5.62V323.088z
		 M461.022,323.088c0,3.102-2.508,5.619-5.611,5.619h-16.856c-3.104,0-5.62-2.511-5.62-5.619v-16.849c0-3.104,2.509-5.62,5.62-5.62
		h16.856c3.096,0,5.611,2.508,5.611,5.62V323.088z M497.037,324.962c0,2.069-1.683,3.737-3.743,3.737H472.7
		c-2.067,0-3.742-1.677-3.742-3.737v-4.884c0-2.076,1.682-3.744,3.742-3.744h20.594c2.068,0,3.743,1.675,3.743,3.744V324.962z
		 M529.9,324.962c0,2.069-1.668,3.737-3.736,3.737h-20.592c-2.069,0-3.744-1.677-3.744-3.737v-4.884
		c0-2.076,1.683-3.744,3.744-3.744h20.592c2.077,0,3.736,1.675,3.736,3.744V324.962z M529.9,307.628
		c0,2.069-1.668,3.737-3.736,3.737h-20.592c-2.069,0-3.744-1.677-3.744-3.737v-4.884c0-2.076,1.683-3.744,3.744-3.744h20.592
		c2.077,0,3.736,1.675,3.736,3.744V307.628z M562.15,324.962c0,2.069-1.668,3.737-3.736,3.737h-20.592
		c-2.069,0-3.744-1.677-3.744-3.737v-4.884c0-2.076,1.683-3.744,3.744-3.744h20.592c2.077,0,3.736,1.675,3.736,3.744V324.962z
		 M559.126,260.111h-19.443c-3.096,0-5.619-2.515-5.619-5.618v-28.683h-4.393c-3.095,0-5.619-2.507-5.619-5.619v-16.85
		c0-3.102,2.516-5.619,5.619-5.619h10.012h4.098h15.338c3.101,0,5.619,2.509,5.619,5.619v51.151h0.007
		C564.744,257.589,562.235,260.111,559.126,260.111z M564.744,185.899c0,3.103-2.518,5.619-5.618,5.619h-35.567
		c-3.104,0-5.619-2.507-5.619-5.619v-16.85c0-3.102,2.509-5.619,5.619-5.619h35.567c3.093,0,5.618,2.509,5.618,5.619V185.899z
		 M565.06,152.532c0,2.068-1.674,3.735-3.735,3.735h-20.599c-2.069,0-3.737-1.675-3.737-3.735v-7.495
		c0-2.069,1.676-3.736,3.737-3.736h20.599c2.069,0,3.735,1.675,3.735,3.736V152.532z"/>
	<path id="WASD_1_" d="M207,228.5v35H99.05v-35H126V195h36.25v33.5H207z"/>
	<g id="Q_1_">
		<path id="Q" fill="#FFFFFF" d="M100.052,225.811c-3.103,0-5.619-2.507-5.619-5.619v-16.85c0-3.102,2.508-5.619,5.619-5.619h16.858
			c3.094,0,5.611,2.509,5.611,5.619v16.85c0,3.103-2.509,5.619-5.611,5.619H100.052z"/>
		<text transform="matrix(1 0 0 1 97.1919 208.5977)" font-family="'MyriadPro-Regular'" font-size="11">Q</text>
	</g>
	<g id="W_1_">
		<path id="W" fill="#FFFFFF" d="M129.869,220.192v-16.85c0-3.102,2.516-5.619,5.626-5.619h16.849c3.096,0,5.62,2.509,5.62,5.619
			v16.85c0,3.103-2.516,5.619-5.62,5.619h-16.849C132.393,225.811,129.869,223.295,129.869,220.192z"/>
		<text transform="matrix(1 0 0 1 133.1328 208.5977)" font-family="'MyriadPro-Regular'" font-size="11">W</text>
	</g>
	<g id="E_1_">
		<path id="E" fill="#FFFFFF" d="M165.312,220.192v-16.85c0-3.102,2.517-5.619,5.619-5.619h16.85c3.104,0,5.619,2.509,5.619,5.619
			v16.85c0,3.103-2.508,5.619-5.619,5.619h-16.85C167.829,225.811,165.312,223.295,165.312,220.192z"/>
		<text transform="matrix(1 0 0 1 168.75 208.5977)" font-family="'MyriadPro-Regular'" font-size="11">E</text>
	</g>
	<g id="R_1_">
		<path id="R" fill="#FFFFFF" d="M228.827,203.342v16.85c0,3.103-2.5,5.619-5.611,5.619h-16.857c-3.096,0-5.611-2.507-5.611-5.619
			v-16.85c0-3.102,2.509-5.619,5.611-5.619h16.857C226.319,197.731,228.827,200.24,228.827,203.342z"/>
		<text transform="matrix(1 0 0 1 203.1943 208.5977)" font-family="'MyriadPro-Regular'" font-size="11">R</text>
	</g>
	<g id="T_1_">
		<path id="T" fill="#FFFFFF" d="M258.644,197.731c3.103,0,5.627,2.509,5.627,5.619v16.85c0,3.104-2.516,5.619-5.627,5.619h-16.841
			c-3.104,0-5.619-2.508-5.619-5.619v-16.85c0-3.103,2.508-5.619,5.619-5.619H258.644z"/>
		<text transform="matrix(1 0 0 1 240.0884 208.5977)" font-family="'MyriadPro-Regular'" font-size="11">T</text>
	</g>
	<g id="Y_1_">
		<path id="Y" fill="#FFFFFF" d="M271.627,220.192v-16.85c0-3.102,2.516-5.619,5.619-5.619h16.849c3.103,0,5.626,2.509,5.626,5.619
			v16.85c0,3.103-2.516,5.619-5.626,5.619h-16.849C274.143,225.811,271.627,223.295,271.627,220.192z"/>
		<text transform="matrix(1 0 0 1 275.25 208.5977)" font-family="'MyriadPro-Regular'" font-size="11">Y</text>
	</g>
	<g id="U_1_">
		<path id="U" fill="#FFFFFF" d="M335.142,220.192c0,3.103-2.517,5.619-5.619,5.619h-16.858c-3.095,0-5.611-2.507-5.611-5.619
			v-16.85c0-3.102,2.507-5.619,5.611-5.619h16.858c3.095,0,5.619,2.509,5.619,5.619V220.192z"/>
		<text transform="matrix(1 0 0 1 310.1499 208.5977)" font-family="'MyriadPro-Regular'" font-size="11">U</text>
	</g>
	<g id="I_1_">
		<path id="I" fill="#FFFFFF" d="M370.578,203.342v16.85c0,3.103-2.51,5.619-5.619,5.619h-16.85c-3.103,0-5.627-2.507-5.627-5.619
			v-16.85c0-3.102,2.516-5.619,5.627-5.619h16.85C368.068,197.731,370.578,200.24,370.578,203.342z"/>
		<text transform="matrix(1 0 0 1 347.0591 208.5977)" font-family="'MyriadPro-Regular'" font-size="11">I</text>
	</g>
	<g id="O_1_">
		<path id="O" fill="#FFFFFF" d="M406.021,203.342v16.85c0,3.103-2.516,5.619-5.619,5.619h-16.849c-3.102,0-5.627-2.507-5.627-5.619
			v-16.85c0-3.102,2.517-5.619,5.627-5.619h16.849C403.505,197.731,406.021,200.24,406.021,203.342z"/>
		<text transform="matrix(1 0 0 1 381.4609 208.5977)" font-family="'MyriadPro-Regular'" font-size="11">O</text>
	</g>
	<g id="P_1_">
		<path id="P" fill="#FFFFFF" d="M413.376,220.192v-16.85c0-3.102,2.518-5.619,5.621-5.619h16.847c3.095,0,5.621,2.509,5.621,5.619
			v16.85c0,3.103-2.518,5.619-5.621,5.619h-16.847C415.894,225.811,413.376,223.295,413.376,220.192z"/>
		<text transform="matrix(1 0 0 1 417.1045 208.5977)" font-family="'MyriadPro-Regular'" font-size="11">P</text>
	</g>
	<g id="A_1_">
		<path id="A" fill="#FFFFFF" d="M103.795,237.644c0-3.095,2.509-5.619,5.62-5.619h16.857c3.087,0,5.611,2.517,5.611,5.619v16.858
			c0,3.095-2.516,5.617-5.611,5.617h-16.857c-3.103,0-5.62-2.514-5.62-5.617V237.644z"/>
		<text transform="matrix(1 0 0 1 108.4775 243.5645)" font-family="'MyriadPro-Regular'" font-size="11">A</text>
	</g>
	<g id="S_1_">
		<path id="S" fill="#FFFFFF" d="M139.455,237.644c0-3.095,2.508-5.619,5.62-5.619h16.856c3.095,0,5.612,2.517,5.612,5.619v16.858
			c0,3.095-2.509,5.617-5.612,5.617h-16.856c-3.104,0-5.62-2.514-5.62-5.617V237.644z"/>
		<text transform="matrix(1 0 0 1 143.9165 243.5645)" font-family="'MyriadPro-Regular'" font-size="11">S</text>
	</g>
	<g id="D_1_">
		<path id="D" fill="#FFFFFF" d="M175.115,237.644c0-3.095,2.508-5.619,5.611-5.619h16.857c3.095,0,5.611,2.517,5.611,5.619v16.858
			c0,3.095-2.509,5.617-5.611,5.617h-16.857c-3.095,0-5.611-2.514-5.611-5.617V237.644z"/>
		<text transform="matrix(1 0 0 1 179.3555 243.5645)" font-family="'MyriadPro-Regular'" font-size="11">D</text>
	</g>
	<g id="F_1_">
		<path id="F" fill="#FFFFFF" d="M216.37,260.111c-3.095,0-5.619-2.515-5.619-5.618v-16.856c0-3.096,2.516-5.619,5.619-5.619h16.858
			c3.095,0,5.611,2.516,5.611,5.619v16.856c0,3.096-2.509,5.618-5.611,5.618H216.37z"/>
		<text transform="matrix(1 0 0 1 214.7871 243.5645)" font-family="'MyriadPro-Regular'" font-size="11">F</text>
	</g>
	<g id="G_1_">
		<path id="G" fill="#FFFFFF" d="M252.029,260.111c-3.095,0-5.611-2.515-5.611-5.618v-16.856c0-3.096,2.508-5.619,5.611-5.619
			h16.857c3.103,0,5.611,2.516,5.611,5.619v16.856c0,3.096-2.5,5.618-5.611,5.618H252.029z"/>
		<text transform="matrix(1 0 0 1 250.2271 243.5645)" font-family="'MyriadPro-Regular'" font-size="11">G</text>
	</g>
	<g id="H_1_">
		<path id="H" fill="#FFFFFF" d="M287.682,260.111c-3.095,0-5.62-2.515-5.62-5.618v-16.856c0-3.096,2.516-5.619,5.62-5.619h16.856
			c3.095,0,5.612,2.516,5.612,5.619v16.856c0,3.096-2.509,5.618-5.612,5.618H287.682z"/>
		<text transform="matrix(1 0 0 1 285.6743 243.5645)" font-family="'MyriadPro-Regular'" font-size="11">H</text>
	</g>
	<g id="J_1_">
		<path id="J" fill="#FFFFFF" d="M323.333,260.111c-3.095,0-5.611-2.515-5.611-5.618v-16.856c0-3.096,2.509-5.619,5.611-5.619
			h16.857c3.103,0,5.619,2.516,5.619,5.619v16.856c0,3.096-2.509,5.618-5.619,5.618H323.333z"/>
		<text transform="matrix(1 0 0 1 322.5 243.5645)" font-family="'MyriadPro-Regular'" font-size="11">J</text>
	</g>
	<g id="K_1_">
		<path id="K" fill="#FFFFFF" d="M358.985,260.111c-3.095,0-5.612-2.515-5.612-5.618v-16.856c0-3.096,2.508-5.619,5.612-5.619
			h16.857c3.102,0,5.619,2.516,5.619,5.619v16.856c0,3.096-2.51,5.618-5.619,5.618H358.985z"/>
		<text transform="matrix(1 0 0 1 356.5303 243.5645)" font-family="'MyriadPro-Regular'" font-size="11">K</text>
	</g>
	<g id="L_1_">
		<path id="L" fill="#FFFFFF" d="M417.104,237.644v16.858c0,3.095-2.508,5.617-5.619,5.617h-16.841
			c-3.104,0-5.628-2.514-5.628-5.617v-16.858c0-3.095,2.516-5.619,5.628-5.619h16.841
			C414.597,232.024,417.104,234.541,417.104,237.644z"/>
		<text transform="matrix(1 0 0 1 391.9727 243.5645)" font-family="'MyriadPro-Regular'" font-size="11">L</text>
	</g>
	<g id="Z_1_">
		<path id="Z" fill="#FFFFFF" d="M128.56,294.404c-3.103,0-5.626-2.518-5.626-5.621v-16.855c0-3.095,2.517-5.621,5.626-5.621h16.85
			c3.095,0,5.619,2.518,5.619,5.621v16.855c0,3.095-2.516,5.621-5.619,5.621H128.56z"/>
		<text transform="matrix(1 0 0 1 126 278.6055)" font-family="'MyriadPro-Regular'" font-size="11">Z</text>
	</g>
	<g id="X_1_">
		<path id="X" fill="#FFFFFF" d="M165.037,294.404c-3.094,0-5.618-2.518-5.618-5.621v-16.855c0-3.095,2.516-5.621,5.618-5.621
			h16.851c3.102,0,5.625,2.518,5.625,5.621v16.855c0,3.095-2.516,5.621-5.625,5.621H165.037z"/>
		<text transform="matrix(1 0 0 1 162.25 278.6055)" font-family="'MyriadPro-Regular'" font-size="11">X</text>
	</g>
	<g id="C_1_">
		<path id="C" fill="#FFFFFF" d="M223.976,288.79c0,3.097-2.508,5.62-5.619,5.62H201.5c-3.095,0-5.612-2.517-5.612-5.62v-16.856
			c0-3.094,2.508-5.62,5.612-5.62h16.856c3.104,0,5.619,2.52,5.619,5.62V288.79z"/>
		<text transform="matrix(1 0 0 1 199.25 278.6055)" font-family="'MyriadPro-Regular'" font-size="11">C</text>
	</g>
	<g id="V_1_">
		<path id="V" fill="#FFFFFF" d="M232.375,271.934c0-3.094,2.508-5.62,5.618-5.62h16.857c3.095,0,5.612,2.52,5.612,5.62v16.856
			c0,3.097-2.508,5.62-5.612,5.62h-16.857c-3.103,0-5.618-2.517-5.618-5.62V271.934z"/>
		<text transform="matrix(1 0 0 1 236.25 278.6055)" font-family="'MyriadPro-Regular'" font-size="11">V</text>
	</g>
	<g id="B_1_">
		<path id="B" fill="#FFFFFF" d="M268.852,271.934c0-3.094,2.516-5.62,5.627-5.62h16.85c3.096,0,5.619,2.52,5.619,5.62v16.856
			c0,3.097-2.517,5.62-5.619,5.62h-16.85c-3.103,0-5.627-2.517-5.627-5.62V271.934z"/>
		<text transform="matrix(1 0 0 1 271.627 278.6055)" font-family="'MyriadPro-Regular'" font-size="11">B</text>
	</g>
	<g id="N_1_">
		<path id="N" fill="#FFFFFF" d="M305.329,271.934c0-3.094,2.517-5.62,5.619-5.62h16.85c3.104,0,5.627,2.52,5.627,5.62v16.856
			c0,3.097-2.516,5.62-5.627,5.62h-16.85c-3.095,0-5.619-2.517-5.619-5.62V271.934z"/>
		<text transform="matrix(1 0 0 1 308.25 278.6055)" font-family="'MyriadPro-Regular'" font-size="11">N</text>
	</g>
	<g id="M_1_">
		<path id="M" fill="#FFFFFF" d="M341.815,271.934c0-3.094,2.516-5.62,5.619-5.62h16.85c3.103,0,5.619,2.52,5.619,5.62v16.856
			c0,3.097-2.509,5.62-5.619,5.62h-16.85c-3.095,0-5.619-2.517-5.619-5.62V271.934z"/>
		<text transform="matrix(1 0 0 1 345.8091 278.6055)" font-family="'MyriadPro-Regular'" font-size="11">M</text>
	</g>
	<g id="Number_2_">
		<path id="Number" fill="#FFFFFF" d="M40.79,169.049c0-3.102,2.508-5.619,5.612-5.619h16.856c3.104,0,5.619,2.509,5.619,5.619
			v16.85c0,3.103-2.508,5.619-5.619,5.619H46.401c-3.095,0-5.612-2.507-5.612-5.619V169.049z"/>
		<text id="Number_1_" transform="matrix(1 0 0 1 47 175.5)" font-family="'MyriadPro-Regular'" font-size="11">ยบ</text>
	</g>
	<path id="Numbers" d="M444,159v36H72.895v-36H444z"/>
	<g id="_x31__1_">
		<path id="_x31_" fill="#FFFFFF" d="M105.787,169.049v16.85c0,3.103-2.509,5.619-5.62,5.619H83.311
			c-3.095,0-5.611-2.507-5.611-5.619v-16.85c0-3.102,2.509-5.619,5.611-5.619h16.857
			C103.278,163.438,105.787,165.947,105.787,169.049z"/>
		<text transform="matrix(1 0 0 1 81 175.5)" font-family="'MyriadPro-Regular'" font-size="11">1</text>
	</g>
	<g id="_x32__1_">
		<path id="_x32_" fill="#FFFFFF" d="M142.704,169.049v16.85c0,3.103-2.508,5.619-5.618,5.619h-16.857
			c-3.095,0-5.612-2.507-5.612-5.619v-16.85c0-3.102,2.508-5.619,5.612-5.619h16.857
			C140.196,163.438,142.704,165.947,142.704,169.049z"/>
		<text transform="matrix(1 0 0 1 117.8389 175.5)" font-family="'MyriadPro-Regular'" font-size="11">2</text>
	</g>
	<g id="_x33__1_">
		<path id="_x33_" fill="#FFFFFF" d="M151.55,185.899v-16.85c0-3.102,2.509-5.619,5.611-5.619h16.857c3.104,0,5.62,2.509,5.62,5.619
			v16.85c0,3.103-2.508,5.619-5.62,5.619h-16.857C154.059,191.511,151.55,189.002,151.55,185.899z"/>
		<text transform="matrix(1 0 0 1 155.5 175.5)" font-family="'MyriadPro-Regular'" font-size="11">3</text>
	</g>
	<g id="_x34__1_">
		<path id="_x34_" fill="#FFFFFF" d="M216.547,185.899c0,3.103-2.509,5.619-5.619,5.619h-16.858c-3.095,0-5.611-2.507-5.611-5.619
			v-16.85c0-3.102,2.509-5.619,5.611-5.619h16.858c3.103,0,5.619,2.509,5.619,5.619V185.899z"/>
		<text transform="matrix(1 0 0 1 191.5 175.5)" font-family="'MyriadPro-Regular'" font-size="11">4</text>
	</g>
	<g id="_x35__1_">
		<path id="_x35_" fill="#FFFFFF" d="M253.465,185.899c0,3.103-2.508,5.619-5.62,5.619h-16.849c-3.102,0-5.619-2.507-5.619-5.619
			v-16.85c0-3.102,2.509-5.619,5.619-5.619h16.849c3.104,0,5.62,2.509,5.62,5.619V185.899z"/>
		<text transform="matrix(1 0 0 1 228.8271 175.5)" font-family="'MyriadPro-Regular'" font-size="11">5</text>
	</g>
	<g id="_x36__1_">
		<path id="_x36_" fill="#FFFFFF" d="M284.772,163.438c3.102,0,5.619,2.509,5.619,5.619v16.85c0,3.104-2.509,5.619-5.619,5.619
			h-16.851c-3.094,0-5.619-2.509-5.619-5.619v-16.85c0-3.103,2.517-5.619,5.619-5.619H284.772z"/>
		<text transform="matrix(1 0 0 1 266.5 175.5)" font-family="'MyriadPro-Regular'" font-size="11">6</text>
	</g>
	<g id="_x37__1_">
		<path id="_x37_" fill="#FFFFFF" d="M304.84,163.438h16.849c3.103,0,5.62,2.509,5.62,5.619v16.85c0,3.104-2.509,5.619-5.62,5.619
			H304.84c-3.104,0-5.62-2.509-5.62-5.619v-16.85C299.227,165.947,301.736,163.438,304.84,163.438z"/>
		<text transform="matrix(1 0 0 1 302.9209 175.5)" font-family="'MyriadPro-Regular'" font-size="11">7</text>
	</g>
	<g id="_x38__1_">
		<path id="_x38_" fill="#FFFFFF" d="M336.146,169.049c0-3.102,2.516-5.619,5.611-5.619h16.858c3.103,0,5.618,2.509,5.618,5.619
			v16.85c0,3.103-2.508,5.619-5.618,5.619h-16.858c-3.087,0-5.611-2.507-5.611-5.619V169.049z"/>
		<text transform="matrix(1 0 0 1 339.5 175.5)" font-family="'MyriadPro-Regular'" font-size="11">8</text>
	</g>
	<g id="_x39__1_">
		<path id="_x39_" fill="#FFFFFF" d="M401.143,185.899c0,3.103-2.51,5.619-5.618,5.619h-16.85c-3.103,0-5.619-2.507-5.619-5.619
			v-16.85c0-3.102,2.508-5.619,5.619-5.619h16.85c3.101,0,5.618,2.509,5.618,5.619V185.899z"/>
		<text transform="matrix(1 0 0 1 377.9258 175.5)" font-family="'MyriadPro-Regular'" font-size="11">9</text>
	</g>
	<g id="_x30__1_">
		<path id="_x30_" fill="#FFFFFF" d="M438.062,169.049v16.85c0,3.103-2.518,5.619-5.621,5.619h-16.848
			c-3.103,0-5.621-2.507-5.621-5.619v-16.85c0-3.102,2.51-5.619,5.621-5.619h16.848
			C435.544,163.438,438.062,165.947,438.062,169.049z"/>
		<text transform="matrix(1 0 0 1 413.376 175.5)" font-family="'MyriadPro-Regular'" font-size="11">0</text>
	</g>
	<g id="Tab">
		<path id="Tab_1_" fill="#FFFFFF" d="M40.79,203.342c0-3.102,2.508-5.619,5.612-5.619h35.574c3.095,0,5.611,2.509,5.611,5.619
			v16.85c0,3.103-2.508,5.619-5.611,5.619H46.401c-3.095,0-5.612-2.507-5.612-5.619V203.342z"/>
		<text transform="matrix(1 0 0 1 47 211.7666)" font-family="'MyriadPro-Regular'" font-size="11">Tab</text>
	</g>
	<g id="Caps">
		<path id="Caps_1_" fill="#FFFFFF" d="M40.79,237.644c0-3.095,2.508-5.619,5.612-5.619h44.937c3.095,0,5.611,2.517,5.611,5.619
			v16.858c0,3.095-2.509,5.617-5.611,5.617H46.401c-3.095,0-5.612-2.514-5.612-5.617V237.644z"/>
		<text transform="matrix(1 0 0 1 47 243.5645)" font-family="'MyriadPro-Regular'" font-size="11">Caps</text>
	</g>
	<g id="LShift">
		<path id="LShift_2_" fill="#FFFFFF" d="M46.401,294.407c-3.095,0-5.612-2.518-5.612-5.621v-16.855
			c0-3.095,2.508-5.621,5.612-5.621h62.45c3.095,0,5.619,2.518,5.619,5.621v16.855c0,3.095-2.515,5.621-5.619,5.621H46.401z"/>
		<text id="LShift_1_" transform="matrix(1 0 0 1 47 278.6055)" font-family="'MyriadPro-Regular'" font-size="11">L. Shift</text>
	</g>
	<g id="RShift">
		<path id="RShift_2_" fill="#FFFFFF" d="M486.624,271.937c0-3.094,2.517-5.62,5.62-5.62h63.653c3.096,0,5.62,2.52,5.62,5.62v16.856
			c0,3.097-2.517,5.62-5.62,5.62h-63.653c-3.096,0-5.62-2.517-5.62-5.62V271.937z"/>
		<text id="RShift_1_" transform="matrix(1 0 0 1 492.5 278.6055)" font-family="'MyriadPro-Regular'" font-size="11">R. Shift</text>
	</g>
	<g id="LCtrl">
		<path id="LCtrl_1_" fill="#FFFFFF" d="M105,323.088h-0.007c0,3.102-2.508,5.619-5.619,5.619H46.408
			c-3.102,0-5.619-2.511-5.619-5.619v-16.849c0-3.104,2.508-5.62,5.619-5.62h52.973c3.104,0,5.619,2.508,5.619,5.62V323.088z"/>
		<text id="LCtrl_2_" transform="matrix(1 0 0 1 47 314.6631)" font-family="'MyriadPro-Regular'" font-size="11">Ctrl</text>
	</g>
	<g id="RCtrl">
		<path id="RCtrl_2_" fill="#FFFFFF" d="M461.022,323.088c0,3.102-2.508,5.619-5.611,5.619h-16.856c-3.104,0-5.62-2.511-5.62-5.619
			v-16.849c0-3.104,2.509-5.62,5.62-5.62h16.856c3.096,0,5.611,2.508,5.611,5.62V323.088z"/>
		<text id="RCtrl_1_" transform="matrix(1 0 0 1 436.5 314.6631)" font-family="'MyriadPro-Regular'" font-size="11">Ctrl</text>
	</g>
	<g id="Space">
		<path id="Space_1_" fill="#FFFFFF" d="M380.486,323.088c0,3.102-2.514,5.619-5.617,5.619H198.887
			c-3.095,0-5.619-2.511-5.619-5.619v-16.849c0-3.104,2.517-5.62,5.619-5.62h175.982c3.096,0,5.617,2.508,5.617,5.62V323.088z"/>
		<text transform="matrix(1 0 0 1 199.25 313.5)" font-family="'MyriadPro-Regular'" font-size="11">Space</text>
	</g>
	<g id="LAlt">
		<path id="LAlt_2_" fill="#FFFFFF" d="M184.608,323.088c0,3.102-2.516,5.619-5.611,5.619h-26.212c-3.102,0-5.619-2.511-5.619-5.619
			v-16.849c0-3.104,2.509-5.62,5.619-5.62h26.212c3.087,0,5.611,2.508,5.611,5.62V323.088z"/>
		<text id="LAlt_1_" transform="matrix(1 0 0 1 151.0288 313.5)" font-family="'MyriadPro-Regular'" font-size="11">Alt</text>
	</g>
	<g id="RAlt">
		<path id="RAlt_2_" fill="#FFFFFF" d="M426.831,323.088c0,3.102-2.518,5.619-5.621,5.619h-26.212c-3.103,0-5.618-2.511-5.618-5.619
			v-16.849c0-3.104,2.51-5.62,5.618-5.62h26.212c3.095,0,5.621,2.508,5.621,5.62V323.088z"/>
		<text id="RAlt_1_" transform="matrix(1 0 0 1 394 313.5)" font-family="'MyriadPro-Regular'" font-size="11">Alt</text>
	</g>
	<g id="Enter">
		<path id="Enter_1_" fill="#FFFFFF" d="M559.126,260.111h-19.443c-3.096,0-5.619-2.515-5.619-5.618v-28.683h-4.393
			c-3.095,0-5.619-2.507-5.619-5.619v-16.85c0-3.102,2.516-5.619,5.619-5.619h10.012h4.098h15.338c3.101,0,5.619,2.509,5.619,5.619
			v51.151h0.007C564.744,257.589,562.235,260.111,559.126,260.111z"/>
		<text transform="matrix(1 0 0 1 529 208.5977)" font-family="'MyriadPro-Regular'" font-size="11">Enter</text>
	</g>
	<g id="Return">
		<path id="Return_1_" fill="#FFFFFF" d="M564.744,185.899c0,3.103-2.518,5.619-5.618,5.619h-35.567
			c-3.104,0-5.619-2.507-5.619-5.619v-16.85c0-3.102,2.509-5.619,5.619-5.619h35.567c3.093,0,5.618,2.509,5.618,5.619V185.899z"/>
		<text transform="matrix(1 0 0 1 524.0518 177.4736)" font-family="'MyriadPro-Regular'" font-size="11">Return</text>
	</g>
	<path id="ArrowKeys_1_" d="M564.744,329.534h-98.38v-31.361h98.38V329.534z"/>
	<path id="Left" fill="#FFFFFF" d="M497.037,324.962c0,2.069-1.683,3.737-3.743,3.737H472.7c-2.067,0-3.742-1.677-3.742-3.737
		v-4.884c0-2.076,1.682-3.744,3.742-3.744h20.594c2.068,0,3.743,1.675,3.743,3.744V324.962z"/>
	<path id="Down" fill="#FFFFFF" d="M529.9,324.962c0,2.069-1.668,3.737-3.736,3.737h-20.592c-2.069,0-3.744-1.677-3.744-3.737
		v-4.884c0-2.076,1.683-3.744,3.744-3.744h20.592c2.077,0,3.736,1.675,3.736,3.744V324.962z"/>
	<path id="Right" fill="#FFFFFF" d="M562.15,324.962c0,2.069-1.668,3.737-3.736,3.737h-20.592c-2.069,0-3.744-1.677-3.744-3.737
		v-4.884c0-2.076,1.683-3.744,3.744-3.744h20.592c2.077,0,3.736,1.675,3.736,3.744V324.962z"/>
	<path id="Up" fill="#FFFFFF" d="M529.9,307.628c0,2.069-1.668,3.737-3.736,3.737h-20.592c-2.069,0-3.744-1.677-3.744-3.737v-4.884
		c0-2.076,1.683-3.744,3.744-3.744h20.592c2.077,0,3.736,1.675,3.736,3.744V307.628z"/>
</g>
<g id="Mouse">
	<path id="MouseBase" d="M699.554,203.833h-45.795c-0.959,1.048-2.324,1.717-3.859,1.717h-5.24c-1.529,0-2.896-0.669-3.855-1.717
		h-45.798c-0.017,1.909-0.032,3.867-0.046,5.87c-0.054,7.903-0.101,16.487-0.101,25.293c0,8.807,0.047,17.389,0.101,25.302
		c0.062,7.888,0.138,15.121,0.209,21.279c0.076,6.145,0.162,11.214,0.208,14.842c0.069,3.613,0.108,5.79,0.115,6.153
		c0,0.006,0,0.014,0,0.021c0,0.009,0,0.017,0,0.024c0,0.054,0,0.093,0,0.146c0,0.046,0,0.094,0.009,0.146c0,0.041,0,0.093,0,0.141
		c0.006,0.044,0.006,0.092,0.015,0.139c0.187,3.558,1.621,6.931,4.037,10.003c2.416,3.057,5.827,5.796,9.987,8.098
		c4.153,2.299,9.054,4.146,14.472,5.416c5.418,1.283,11.354,1.984,17.566,1.984h11.417c6.221,0,12.148-0.701,17.56-1.984
		c5.418-1.271,10.328-3.117,14.479-5.416c4.153-2.302,7.565-5.041,9.981-8.098c2.416-3.065,3.852-6.445,4.043-10.003
		c0-0.047,0-0.095,0.008-0.139c0-0.048,0.009-0.1,0.009-0.141c0-0.052,0-0.1,0-0.146c0.007-0.054,0.007-0.093,0.007-0.146
		c0-0.008,0-0.016,0-0.024c0-0.008,0-0.016,0-0.021c0-0.363,0.047-2.54,0.108-6.153c0.061-3.628,0.139-8.697,0.209-14.842
		c0.076-6.158,0.16-13.383,0.209-21.279c0.055-7.913,0.092-16.486,0.092-25.302c0-8.814-0.037-17.39-0.1-25.293
		C699.587,207.701,699.571,205.743,699.554,203.833z"/>
	<path id="LeftClick" d="M609.54,148.727c-4.16,2.299-7.563,5.04-9.987,8.097c-2.416,3.064-3.851,6.437-4.037,10.002
		c-0.009,0.047-0.009,0.093-0.015,0.139c0,0.046,0,0.092,0,0.146c-0.009,0.046-0.009,0.093-0.009,0.14c0,0.046,0,0.092,0,0.139
		v0.007c0,0.008,0,0.016,0,0.023c0,0.008,0,0.016,0,0.023c-0.007,0.355-0.046,2.532-0.115,6.144
		c-0.054,3.627-0.139,8.691-0.208,14.834c-0.059,4.594-0.115,8.452-0.163,14.078h45.798c-0.855-0.935-1.392-0.834-1.392-2.199
		v-28.828c0-2.902,3.861-5.249,6.755-5.249v-24.908h-4.589c-6.221,0-12.148,0.71-17.566,1.983
		C618.594,144.582,613.693,146.427,609.54,148.727z"/>
	<path id="RightClick" d="M655.148,171.473v28.828c0,1.365-0.534,1.265-1.39,2.199h45.795c-0.05-5.623-0.111-9.485-0.162-14.078
		c-0.079-6.143-0.155-11.207-0.208-14.834c-0.063-3.612-0.108-5.789-0.108-6.144c0-0.007,0-0.015,0-0.023c0-0.007,0-0.015,0-0.023
		v-0.007c0-0.047,0-0.093-0.009-0.139c0-0.046,0-0.093,0-0.14c0-0.054-0.008-0.1-0.008-0.146c-0.008-0.046-0.008-0.092-0.008-0.139
		c-0.184-3.565-1.628-6.931-4.044-10.002c-2.407-3.058-5.827-5.798-9.979-8.097c-4.153-2.3-9.063-4.145-14.481-5.427
		c-5.411-1.273-11.344-1.983-17.56-1.983H648.5v24.908C651.403,166.225,655.148,168.571,655.148,171.473z"/>
	<path id="MouseWheel" d="M649.298,167.625c2.237,0,4.044,2.161,4.044,4.832v26.544c0,2.664-1.807,4.833-4.044,4.833h-4.037
		c-2.23,0-4.044-2.168-4.044-4.833v-26.544c0-2.671,1.813-4.832,4.044-4.832H649.298z"/>
</g>
</svg>
