<?xml version="1.0" encoding="utf-8"?>
<!-- Generator: Adobe Illustrator 15.0.0, SVG Export Plug-In . SVG Version: 6.00 Build 0)  -->
<!DOCTYPE svg PUBLIC "-//W3C//DTD SVG 1.1//EN" "http://www.w3.org/Graphics/SVG/1.1/DTD/svg11.dtd">
<svg version="1.1" id="Layer_1" xmlns="http://www.w3.org/2000/svg" xmlns:xlink="http://www.w3.org/1999/xlink" x="0px" y="0px"
	 width="730px" height="470px" viewBox="0 0 730 470" enable-background="new 0 0 730 470" xml:space="preserve">
<g id="Keyboard">
	<path id="BaseKeyboard" d="M696.283,102.532H36.369c-9.196,0-16.664,7.469-16.664,16.673v231.599
		c0,9.206,7.469,16.663,16.664,16.663h659.914c9.206,0,16.664-7.457,16.664-13.346V122.522
		C712.958,110,705.5,102.532,696.283,102.532z M621.858,120.628c0-2.631,2.138-4.749,4.757-4.749H652.8
		c2.63,0,4.748,2.128,4.748,4.749v9.528c0,2.63-2.128,4.75-4.748,4.75h-26.185c-2.627,0-4.757-2.129-4.757-4.75V120.628z
		 M511.503,238.361v21.435c0,3.937-3.188,7.142-7.144,7.142h-21.411c-3.948,0-7.157-3.195-7.157-7.142v-21.435
		c0-3.936,3.199-7.145,7.157-7.145h21.411C508.314,231.216,511.503,234.417,511.503,238.361z M506.764,216.172v-21.423
		c0-3.944,3.201-7.145,7.146-7.145h21.42c3.936,0,7.146,3.19,7.146,7.145v21.423c0,3.945-3.199,7.144-7.146,7.144h-21.42
		C509.965,223.316,506.764,220.118,506.764,216.172z M508.433,281.964c0-3.937,3.199-7.146,7.153-7.146h21.425
		c3.942,0,7.145,3.203,7.145,7.146v21.431c0,3.938-3.191,7.146-7.145,7.146h-21.425c-3.946,0-7.153-3.2-7.153-7.146V281.964
		L508.433,281.964z M528.275,266.927c-3.946,0-7.146-3.198-7.146-7.143v-21.433c0-3.936,3.188-7.144,7.146-7.144h21.422
		c3.947,0,7.146,3.199,7.146,7.144v21.433c0,3.937-3.188,7.143-7.146,7.143H528.275z M551.819,216.172v-21.423
		c0-3.944,3.199-7.145,7.143-7.145h21.426c3.953,0,7.152,3.19,7.152,7.145v21.423c0,3.945-3.189,7.144-7.152,7.144h-21.426
		C555.019,223.316,551.819,220.118,551.819,216.172z M554.813,281.964c0-3.937,3.189-7.146,7.143-7.146h21.425
		c3.947,0,7.146,3.203,7.146,7.146v21.431c0,3.938-3.19,7.146-7.146,7.146h-21.425c-3.944,0-7.143-3.2-7.143-7.146V281.964z
		 M573.604,266.927c-3.942,0-7.144-3.198-7.144-7.143v-21.433c0-3.936,3.189-7.144,7.144-7.144h21.427
		c3.943,0,7.141,3.199,7.141,7.144v21.433c0,3.937-3.188,7.143-7.141,7.143H573.604z M599.894,281.964
		c0-3.937,3.199-7.146,7.146-7.146h80.93c3.938,0,7.146,3.203,7.146,7.146v21.431c0,3.938-3.199,7.146-7.146,7.146h-80.93
		c-3.938,0-7.146-3.2-7.146-7.146V281.964L599.894,281.964z M647.502,259.784c0,3.937-3.193,7.143-7.145,7.143h-21.425
		c-3.934,0-7.152-3.198-7.152-7.143v-21.433c0-3.936,3.208-7.144,7.152-7.144h21.426c3.944,0,7.145,3.199,7.145,7.144
		L647.502,259.784L647.502,259.784z M632.584,216.172h-0.01c0,3.945-3.201,7.144-7.153,7.144h-21.415
		c-3.935,0-7.144-3.187-7.144-7.144v-21.423c0-3.944,3.2-7.145,7.144-7.145h21.426c3.942,0,7.152,3.19,7.152,7.145V216.172
		L632.584,216.172z M596.334,172.571v-21.424c0-3.944,3.188-7.144,7.145-7.144H624.9c3.936,0,7.145,3.19,7.145,7.144v21.424
		c0,3.945-3.202,7.144-7.145,7.144h-21.422C599.521,179.706,596.334,176.516,596.334,172.571z M579.797,120.628
		c0-2.631,2.139-4.749,4.758-4.749h26.186c2.631,0,4.759,2.128,4.759,4.749v9.528c0,2.63-2.14,4.75-4.759,4.75h-26.186
		c-2.63,0-4.758-2.129-4.758-4.75V120.628z M585.086,151.147v21.424c0,3.945-3.188,7.144-7.145,7.144h-21.425
		c-3.944,0-7.145-3.188-7.145-7.144v-21.424c0-3.944,3.194-7.144,7.145-7.144h21.425
		C581.896,144.013,585.086,147.204,585.086,151.147z M537.747,120.628c0-2.631,2.127-4.749,4.759-4.749h26.18
		c2.633,0,4.751,2.128,4.751,4.749v9.528c0,2.63-2.128,4.75-4.751,4.75h-26.18c-2.639,0-4.759-2.129-4.759-4.75V120.628z
		 M538.15,151.147v21.424c0,3.945-3.202,7.144-7.146,7.144h-21.423c-3.944,0-7.146-3.188-7.146-7.144v-21.424
		c0-3.944,3.193-7.144,7.146-7.144h21.423C534.948,144.013,538.15,147.204,538.15,151.147z M495.686,120.628
		c0-2.631,2.141-4.749,4.76-4.749h26.184c2.639,0,4.75,2.128,4.75,4.749v9.528c0,2.63-2.121,4.75-4.75,4.75h-26.184
		c-2.631,0-4.76-2.129-4.76-4.75V120.628L495.686,120.628z M497.412,194.749v21.423c0,3.945-3.199,7.144-7.146,7.144h-21.423
		c-3.942,0-7.153-3.187-7.153-7.144v-21.423c0-3.944,3.2-7.145,7.153-7.145h21.423C494.213,187.615,497.412,190.805,497.412,194.749
		z M113.149,238.361c0-3.936,3.19-7.145,7.146-7.145h21.432c3.925,0,7.134,3.2,7.134,7.145v21.435c0,3.937-3.198,7.142-7.134,7.142
		h-21.432c-3.946,0-7.146-3.195-7.146-7.142V238.361L113.149,238.361z M108.391,223.316c-3.945,0-7.144-3.187-7.144-7.144v-21.423
		c0-3.944,3.188-7.145,7.144-7.145h21.435c3.934,0,7.134,3.19,7.134,7.145v21.423c0,3.945-3.19,7.144-7.134,7.144H108.391z
		 M146.302,216.172v-21.423c0-3.944,3.198-7.145,7.153-7.145h21.423c3.936,0,7.145,3.19,7.145,7.145v21.423
		c0,3.945-3.199,7.144-7.145,7.144h-21.423C149.51,223.316,146.302,220.118,146.302,216.172z M173.867,172.571v-21.424
		c0-3.944,3.19-7.144,7.134-7.144h21.433c3.946,0,7.146,3.19,7.146,7.144v21.424c0,3.945-3.188,7.144-7.146,7.144h-21.433
		C177.058,179.706,173.867,176.516,173.867,172.571z M158.489,238.361c0-3.936,3.189-7.145,7.146-7.145h21.432
		c3.935,0,7.135,3.2,7.135,7.145v21.435c0,3.937-3.189,7.142-7.135,7.142h-21.432c-3.946,0-7.146-3.195-7.146-7.142V238.361
		L158.489,238.361z M191.365,216.172v-21.423c0-3.944,3.201-7.145,7.145-7.145h21.424c3.946,0,7.144,3.19,7.144,7.145v21.423
		c0,3.945-3.189,7.144-7.144,7.144H198.51C194.565,223.316,191.365,220.118,191.365,216.172z M303.446,172.571
		c0,3.945-3.189,7.144-7.146,7.144h-21.422c-3.944,0-7.145-3.188-7.145-7.144v-21.424c0-3.944,3.19-7.144,7.145-7.144H296.3
		c3.947,0,7.146,3.19,7.146,7.144V172.571z M310.031,187.615c3.945,0,7.154,3.19,7.154,7.145v21.423
		c0,3.947-3.199,7.145-7.154,7.145h-21.413c-3.946,0-7.144-3.189-7.144-7.145V194.76c0-3.945,3.188-7.145,7.144-7.145H310.031z
		 M272.121,194.749v21.423c0,3.945-3.179,7.144-7.134,7.144h-21.433c-3.936,0-7.134-3.187-7.134-7.144v-21.423
		c0-3.944,3.189-7.145,7.134-7.145h21.433C268.932,187.615,272.121,190.805,272.121,194.749z M256.507,172.571
		c0,3.945-3.19,7.144-7.144,7.144h-21.435c-3.935,0-7.134-3.188-7.134-7.144v-21.424c0-3.944,3.19-7.144,7.134-7.144h21.434
		c3.946,0,7.145,3.19,7.145,7.144V172.571L256.507,172.571z M203.829,238.361c0-3.936,3.189-7.145,7.134-7.145h21.433
		c3.935,0,7.134,3.2,7.134,7.145v21.435c0,3.937-3.19,7.142-7.134,7.142h-21.433c-3.935,0-7.134-3.195-7.134-7.142V238.361
		L203.829,238.361z M230.149,281.964c0-3.937,3.189-7.146,7.143-7.146h21.433c3.935,0,7.135,3.203,7.135,7.146v21.431
		c0,3.938-3.189,7.146-7.135,7.146h-21.433c-3.945,0-7.143-3.2-7.143-7.146V281.964z M256.282,266.927
		c-3.936,0-7.145-3.198-7.145-7.143v-21.433c0-3.936,3.199-7.144,7.145-7.144h21.434c3.936,0,7.134,3.199,7.134,7.144v21.433
		c0,3.937-3.19,7.143-7.134,7.143H256.282z M276.527,281.964c0-3.937,3.199-7.146,7.154-7.146h21.424
		c3.937,0,7.145,3.203,7.145,7.146v21.431c0,3.938-3.2,7.146-7.145,7.146h-21.424c-3.945,0-7.154-3.2-7.154-7.146V281.964z
		 M301.62,266.927c-3.935,0-7.134-3.198-7.134-7.143v-21.433c0-3.936,3.188-7.144,7.134-7.144h21.432
		c3.946,0,7.135,3.199,7.135,7.144v21.433c0,3.937-3.179,7.143-7.135,7.143H301.62z M326.538,216.172v-21.423
		c0-3.944,3.199-7.145,7.145-7.145h21.422c3.945,0,7.153,3.19,7.153,7.145v21.423c0,3.945-3.199,7.144-7.153,7.144h-21.422
		C329.737,223.316,326.538,220.118,326.538,216.172z M322.906,281.964c0-3.937,3.2-7.146,7.144-7.146h21.423
		c3.946,0,7.155,3.203,7.155,7.146v21.431c0,3.938-3.199,7.146-7.155,7.146H330.05c-3.936,0-7.144-3.2-7.144-7.146L322.906,281.964
		L322.906,281.964z M346.951,266.927c-3.936,0-7.146-3.198-7.146-7.143v-21.433c0-3.936,3.199-7.144,7.146-7.144h21.432
		c3.936,0,7.135,3.199,7.135,7.144v21.433c0,3.937-3.188,7.143-7.135,7.143H346.951z M369.294,281.964
		c0-3.937,3.2-7.146,7.146-7.146h21.425c3.943,0,7.145,3.203,7.145,7.146v21.431c0,3.938-3.189,7.146-7.145,7.146h-21.425
		c-3.936,0-7.146-3.2-7.146-7.146V281.964z M392.279,266.927c-3.937,0-7.135-3.198-7.135-7.143v-21.433
		c0-3.936,3.189-7.144,7.135-7.144h21.433c3.945,0,7.146,3.199,7.146,7.144v21.433c0,3.937-3.191,7.143-7.146,7.143H392.279z
		 M415.684,281.964c0-3.937,3.189-7.146,7.137-7.146h21.432c3.936,0,7.134,3.203,7.134,7.146v21.431
		c0,3.938-3.188,7.146-7.134,7.146H422.82c-3.938,0-7.137-3.2-7.137-7.146V281.964z M437.608,266.927
		c-3.937,0-7.136-3.198-7.136-7.143v-21.433c0-3.936,3.188-7.144,7.136-7.144h21.433c3.943,0,7.144,3.199,7.144,7.144v21.433
		c0,3.937-3.189,7.143-7.144,7.143H437.608z M491.21,172.571c0,3.945-3.192,7.144-7.143,7.144h-21.426
		c-3.943,0-7.143-3.188-7.143-7.144v-21.424c0-3.944,3.188-7.144,7.143-7.144h21.426c3.941,0,7.143,3.19,7.143,7.144V172.571z
		 M453.633,120.628c0-2.631,2.13-4.749,4.75-4.749h26.184c2.631,0,4.758,2.128,4.758,4.749v9.528c0,2.63-2.141,4.75-4.758,4.75
		h-26.184c-2.63,0-4.75-2.129-4.75-4.75V120.628z M452.349,194.749v21.423c0,3.945-3.19,7.144-7.146,7.144H423.78
		c-3.945,0-7.154-3.187-7.154-7.144v-21.423c0-3.944,3.198-7.145,7.154-7.145h21.423
		C449.157,187.615,452.349,190.805,452.349,194.749z M411.571,120.628c0-2.631,2.141-4.749,4.761-4.749h26.182
		c2.63,0,4.75,2.128,4.75,4.749v9.528c0,2.63-2.132,4.75-4.75,4.75h-26.182c-2.632,0-4.761-2.129-4.761-4.75V120.628z
		 M408.569,151.147c0-3.944,3.199-7.144,7.134-7.144h21.436c3.944,0,7.144,3.19,7.144,7.144v21.424c0,3.945-3.188,7.144-7.144,7.144
		h-21.436c-3.924,0-7.134-3.188-7.134-7.144V151.147z M407.294,216.172c0,3.945-3.2,7.144-7.144,7.144h-21.437
		c-3.937,0-7.133-3.187-7.133-7.144v-21.423c0-3.944,3.187-7.145,7.133-7.145h21.437c3.934,0,7.144,3.19,7.144,7.145V216.172z
		 M369.511,120.628c0-2.631,2.142-4.749,4.771-4.749h26.175c2.638,0,4.759,2.128,4.759,4.749v9.528c0,2.63-2.13,4.75-4.759,4.75
		h-26.177c-2.639,0-4.77-2.129-4.77-4.75L369.511,120.628L369.511,120.628z M368.766,144.013h21.424c3.944,0,7.146,3.19,7.146,7.144
		v21.424c0,3.946-3.19,7.144-7.146,7.144h-21.424c-3.946,0-7.145-3.189-7.145-7.144v-21.424
		C361.63,147.204,364.819,144.013,368.766,144.013z M327.451,120.628c0-2.631,2.129-4.749,4.749-4.749h26.184
		c2.639,0,4.768,2.128,4.768,4.749v9.528c0,2.63-2.139,4.75-4.768,4.75H332.2c-2.629,0-4.749-2.129-4.749-4.75V120.628
		L327.451,120.628z M343.251,144.013c3.944,0,7.145,3.19,7.145,7.144v21.424c0,3.946-3.19,7.144-7.145,7.144h-21.425
		c-3.934,0-7.145-3.189-7.145-7.144v-21.424c0-3.945,3.2-7.144,7.145-7.144H343.251z M285.391,120.628
		c0-2.631,2.138-4.749,4.758-4.749h26.183c2.63,0,4.75,2.128,4.75,4.749v9.528c0,2.63-2.13,4.75-4.75,4.75h-26.183
		c-2.63,0-4.758-2.129-4.758-4.75V120.628z M243.328,120.628c0-2.631,2.139-4.749,4.771-4.749h26.182c2.629,0,4.75,2.128,4.75,4.749
		v9.528c0,2.63-2.13,4.75-4.75,4.75h-26.182c-2.641,0-4.771-2.129-4.771-4.75V120.628z M201.277,120.628
		c0-2.631,2.13-4.749,4.75-4.749h26.183c2.64,0,4.768,2.128,4.768,4.749v9.528c0,2.63-2.14,4.75-4.768,4.75h-26.183
		c-2.63,0-4.75-2.129-4.75-4.75V120.628z M159.226,120.628c0-2.631,2.128-4.749,4.749-4.749h26.183c2.63,0,4.761,2.128,4.761,4.749
		v9.528c0,2.63-2.14,4.75-4.761,4.75h-26.181c-2.629,0-4.749-2.129-4.749-4.75v-9.528H159.226z M162.62,151.147v21.424
		c0,3.945-3.189,7.144-7.143,7.144h-21.433c-3.936,0-7.135-3.188-7.135-7.144v-21.424c0-3.944,3.189-7.144,7.135-7.144h21.433
		C159.431,144.013,162.62,147.204,162.62,151.147z M117.153,120.628c0-2.631,2.15-4.749,4.771-4.749h26.182
		c2.63,0,4.75,2.128,4.75,4.749v9.528c0,2.63-2.128,4.75-4.75,4.75h-26.182c-2.631,0-4.771-2.129-4.771-4.75V120.628
		L117.153,120.628z M115.683,151.147v21.424c0,3.945-3.19,7.144-7.146,7.144H87.106c-3.936,0-7.134-3.188-7.134-7.144v-21.424
		c0-3.944,3.189-7.144,7.134-7.144h21.432C112.493,144.013,115.683,147.204,115.683,151.147z M75.103,120.628
		c0-2.631,2.13-4.749,4.759-4.749h26.184c2.629,0,4.76,2.128,4.76,4.749v9.528c0,2.63-2.14,4.75-4.76,4.75H79.862
		c-2.639,0-4.759-2.129-4.759-4.75V120.628z M37.792,115.879h26.183c2.63,0,4.76,2.128,4.76,4.749v9.528
		c0,2.63-2.139,4.75-4.76,4.75H37.802c-2.63,0-4.75-2.129-4.75-4.75v-9.528h-0.008C33.043,117.999,35.171,115.879,37.792,115.879z
		 M33.043,151.147c0-3.944,3.188-7.144,7.135-7.144H61.61c3.946,0,7.144,3.19,7.144,7.144v21.424c0,3.945-3.188,7.144-7.144,7.144
		H40.177c-3.935,0-7.135-3.188-7.135-7.144L33.043,151.147L33.043,151.147z M33.043,194.749c0-3.944,3.188-7.145,7.135-7.145h45.23
		c3.935,0,7.134,3.19,7.134,7.145v21.423c0,3.945-3.188,7.144-7.134,7.144H40.177c-3.935,0-7.135-3.187-7.135-7.144L33.043,194.749
		L33.043,194.749z M33.043,238.361c0-3.936,3.188-7.145,7.135-7.145h57.135c3.936,0,7.135,3.2,7.135,7.145v21.435
		c0,3.937-3.19,7.142-7.135,7.142H40.177c-3.935,0-7.135-3.195-7.135-7.142L33.043,238.361L33.043,238.361z M114.682,346.998h-0.009
		c0,3.944-3.189,7.146-7.144,7.146H40.186c-3.944,0-7.145-3.192-7.145-7.146v-21.421c0-3.947,3.188-7.146,7.145-7.146h67.352
		c3.946,0,7.144,3.188,7.144,7.146V346.998z M40.177,310.533c-3.935,0-7.135-3.202-7.135-7.146v-21.431
		c0-3.937,3.188-7.146,7.135-7.146h79.401c3.935,0,7.145,3.199,7.145,7.146v21.431c0,3.935-3.198,7.146-7.145,7.146H40.177z
		 M159.706,346.998c0,3.944-3.179,7.146-7.134,7.146h-21.434c-3.935,0-7.134-3.192-7.134-7.146v-21.421
		c0-3.947,3.19-7.146,7.134-7.146h21.434c3.946,0,7.134,3.188,7.134,7.146V346.998L159.706,346.998z M144.534,310.533
		c-3.935,0-7.143-3.202-7.143-7.146v-21.431c0-3.937,3.199-7.146,7.143-7.146h21.425c3.944,0,7.151,3.199,7.151,7.146v21.431
		c0,3.935-3.199,7.146-7.151,7.146H144.534z M215.898,346.998c0,3.944-3.199,7.146-7.134,7.146h-33.327
		c-3.944,0-7.145-3.192-7.145-7.146v-21.421c0-3.947,3.19-7.146,7.145-7.146h33.327c3.925,0,7.134,3.188,7.134,7.146V346.998z
		 M219.47,303.395c0,3.938-3.189,7.146-7.145,7.146h-21.432c-3.935,0-7.135-3.2-7.135-7.146v-21.431
		c0-3.937,3.188-7.146,7.135-7.146h21.432c3.946,0,7.145,3.203,7.145,7.146V303.395L219.47,303.395z M464.946,346.998
		c0,3.944-3.196,7.146-7.144,7.146h-223.75c-3.936,0-7.145-3.192-7.145-7.146v-21.421c0-3.947,3.2-7.146,7.145-7.146h223.75
		c3.938,0,7.144,3.188,7.144,7.146V346.998z M462.043,303.395v-21.431c0-3.937,3.201-7.146,7.154-7.146h21.425
		c3.944,0,7.145,3.203,7.145,7.146v21.431c0,3.938-3.191,7.146-7.145,7.146h-21.425
		C465.244,310.533,462.043,307.333,462.043,303.395z M523.871,346.998c0,3.944-3.203,7.146-7.147,7.146h-33.326
		c-3.945,0-7.144-3.192-7.144-7.146v-21.421c0-3.947,3.192-7.146,7.144-7.146h33.326c3.937,0,7.147,3.188,7.147,7.146V346.998z
		 M567.343,346.998c0,3.944-3.188,7.146-7.134,7.146h-21.433c-3.946,0-7.146-3.192-7.146-7.146v-21.421
		c0-3.947,3.191-7.146,7.146-7.146h21.433c3.936,0,7.134,3.188,7.134,7.146V346.998z M613.134,349.381
		c0,2.632-2.141,4.752-4.76,4.752H582.19c-2.63,0-4.759-2.132-4.759-4.752v-6.209c0-2.641,2.14-4.761,4.759-4.761h26.184
		c2.63,0,4.76,2.13,4.76,4.761V349.381L613.134,349.381z M654.917,349.381c0,2.632-2.121,4.752-4.75,4.752h-26.182
		c-2.633,0-4.762-2.132-4.762-4.752v-6.209c0-2.641,2.141-4.761,4.762-4.761h26.182c2.641,0,4.75,2.13,4.75,4.761V349.381z
		 M654.917,327.342c0,2.631-2.121,4.752-4.75,4.752h-26.182c-2.633,0-4.762-2.133-4.762-4.752v-6.209
		c0-2.64,2.141-4.761,4.762-4.761h26.182c2.641,0,4.75,2.13,4.75,4.761V327.342z M695.921,349.381c0,2.632-2.12,4.752-4.751,4.752
		h-26.182c-2.63,0-4.76-2.132-4.76-4.752v-6.209c0-2.641,2.14-4.761,4.76-4.761h26.182c2.641,0,4.751,2.13,4.751,4.761V349.381z
		 M692.076,266.927h-24.723c-3.936,0-7.144-3.198-7.144-7.143v-36.469h-5.586c-3.935,0-7.146-3.188-7.146-7.144v-21.424
		c0-3.944,3.2-7.144,7.146-7.144h12.729h5.211h19.501c3.941,0,7.145,3.19,7.145,7.144v65.036h0.009
		C699.219,263.721,696.028,266.927,692.076,266.927z M699.219,172.571c0,3.945-3.202,7.144-7.143,7.144h-45.224
		c-3.944,0-7.143-3.188-7.143-7.144v-21.424c0-3.944,3.189-7.144,7.143-7.144h45.224c3.932,0,7.143,3.19,7.143,7.144V172.571z
		 M699.62,130.147c0,2.629-2.128,4.749-4.748,4.749h-26.191c-2.63,0-4.75-2.13-4.75-4.749v-9.529c0-2.631,2.13-4.751,4.75-4.751
		h26.191c2.629,0,4.748,2.13,4.748,4.751V130.147z"/>
	<path id="WASD_1_" d="M244.369,226.735v44.501H107.116v-44.501h34.266v-42.593h46.09v42.593H244.369z"/>
	<g id="Q_1_">
		<path id="Q" fill="#FFFFFF" d="M108.391,223.316c-3.945,0-7.144-3.187-7.144-7.144v-21.423c0-3.944,3.188-7.145,7.144-7.145
			h21.435c3.934,0,7.134,3.19,7.134,7.145v21.423c0,3.945-3.19,7.144-7.134,7.144H108.391z"/>
		<text transform="matrix(1 0 0 1 104.7549 201.4297)" font-family="'MyriadPro-Regular'" font-size="13.9858">Q</text>
	</g>
	<g id="W_1_">
		<path id="W" fill="#FFFFFF" d="M146.302,216.172v-21.423c0-3.944,3.198-7.145,7.153-7.145h21.423c3.936,0,7.145,3.19,7.145,7.145
			v21.423c0,3.945-3.199,7.144-7.145,7.144h-21.423C149.51,223.316,146.302,220.118,146.302,216.172z"/>
		<text transform="matrix(1 0 0 1 150.4512 201.4297)" font-family="'MyriadPro-Regular'" font-size="13.9858">W</text>
	</g>
	<g id="E_1_">
		<path id="E" fill="#FFFFFF" d="M191.365,216.172v-21.423c0-3.944,3.201-7.145,7.145-7.145h21.424c3.946,0,7.144,3.19,7.144,7.145
			v21.423c0,3.945-3.189,7.144-7.144,7.144H198.51C194.565,223.316,191.365,220.118,191.365,216.172z"/>
		<text transform="matrix(1 0 0 1 195.7363 201.4297)" font-family="'MyriadPro-Regular'" font-size="13.9858">E</text>
	</g>
	<g id="R_1_">
		<path id="R" fill="#FFFFFF" d="M272.121,194.749v21.423c0,3.945-3.179,7.144-7.134,7.144h-21.433
			c-3.936,0-7.134-3.187-7.134-7.144v-21.423c0-3.944,3.189-7.145,7.134-7.145h21.433
			C268.932,187.615,272.121,190.805,272.121,194.749z"/>
		<text transform="matrix(1 0 0 1 239.5303 201.4297)" font-family="'MyriadPro-Regular'" font-size="13.9858">R</text>
	</g>
	<g id="T_1_">
		<path id="T" fill="#FFFFFF" d="M310.031,187.615c3.945,0,7.154,3.19,7.154,7.145v21.423c0,3.947-3.199,7.145-7.154,7.145h-21.413
			c-3.946,0-7.144-3.189-7.144-7.145V194.76c0-3.945,3.188-7.145,7.144-7.145H310.031z"/>
		<text transform="matrix(1 0 0 1 286.4385 201.4297)" font-family="'MyriadPro-Regular'" font-size="13.9858">T</text>
	</g>
	<g id="Y_1_">
		<path id="Y" fill="#FFFFFF" d="M137.485,303.379v-21.423c0-3.944,3.199-7.146,7.145-7.146h21.422c3.945,0,7.153,3.19,7.153,7.146
			v21.423c0,3.945-3.199,7.145-7.153,7.145H144.63C140.684,310.523,137.485,307.325,137.485,303.379z"/>
		<text transform="matrix(1 0 0 1 142.0918 288.6367)" font-family="'MyriadPro-Regular'" font-size="13.9858">Y</text>
	</g>
	<g id="U_1_">
		<path id="U" fill="#FFFFFF" d="M407.294,216.172c0,3.945-3.2,7.144-7.144,7.144h-21.437c-3.937,0-7.133-3.187-7.133-7.144v-21.423
			c0-3.944,3.187-7.145,7.133-7.145h21.437c3.934,0,7.144,3.19,7.144,7.145V216.172z"/>
		<text transform="matrix(1 0 0 1 375.5176 201.4297)" font-family="'MyriadPro-Regular'" font-size="13.9858">U</text>
	</g>
	<g id="I_1_">
		<path id="I" fill="#FFFFFF" d="M452.349,194.749v21.423c0,3.945-3.19,7.144-7.146,7.144H423.78c-3.945,0-7.154-3.187-7.154-7.144
			v-21.423c0-3.944,3.198-7.145,7.154-7.145h21.423C449.157,187.615,452.349,190.805,452.349,194.749z"/>
		<text transform="matrix(1 0 0 1 422.4453 201.4297)" font-family="'MyriadPro-Regular'" font-size="13.9858">I</text>
	</g>
	<g id="O_1_">
		<path id="O" fill="#FFFFFF" d="M497.412,194.749v21.423c0,3.945-3.199,7.144-7.146,7.144h-21.423
			c-3.942,0-7.153-3.187-7.153-7.144v-21.423c0-3.944,3.2-7.145,7.153-7.145h21.423
			C494.213,187.615,497.412,190.805,497.412,194.749z"/>
		<text transform="matrix(1 0 0 1 466.1855 201.4297)" font-family="'MyriadPro-Regular'" font-size="13.9858">O</text>
	</g>
	<g id="P_1_">
		<path id="P" fill="#FFFFFF" d="M506.764,216.172v-21.423c0-3.944,3.201-7.145,7.146-7.145h21.42c3.936,0,7.146,3.19,7.146,7.145
			v21.423c0,3.945-3.199,7.144-7.146,7.144h-21.42C509.965,223.316,506.764,220.118,506.764,216.172z"/>
		<text transform="matrix(1 0 0 1 511.5039 201.4297)" font-family="'MyriadPro-Regular'" font-size="13.9858">P</text>
	</g>
	<g id="A_1_">
		<path id="A" fill="#FFFFFF" d="M113.149,238.361c0-3.936,3.19-7.145,7.146-7.145h21.432c3.925,0,7.134,3.2,7.134,7.145v21.435
			c0,3.937-3.198,7.142-7.134,7.142h-21.432c-3.946,0-7.146-3.195-7.146-7.142V238.361L113.149,238.361z"/>
		<text transform="matrix(1 0 0 1 119.1035 245.8877)" font-family="'MyriadPro-Regular'" font-size="13.9858">A</text>
	</g>
	<g id="S_1_">
		<path id="S" fill="#FFFFFF" d="M158.489,238.361c0-3.936,3.189-7.145,7.146-7.145h21.432c3.935,0,7.135,3.2,7.135,7.145v21.435
			c0,3.937-3.189,7.142-7.135,7.142h-21.432c-3.946,0-7.146-3.195-7.146-7.142V238.361L158.489,238.361z"/>
		<text transform="matrix(1 0 0 1 164.1621 245.8877)" font-family="'MyriadPro-Regular'" font-size="13.9858">S</text>
	</g>
	<g id="D_1_">
		<path id="D" fill="#FFFFFF" d="M203.829,238.361c0-3.936,3.189-7.145,7.134-7.145h21.433c3.935,0,7.134,3.2,7.134,7.145v21.435
			c0,3.937-3.19,7.142-7.134,7.142h-21.433c-3.935,0-7.134-3.195-7.134-7.142V238.361L203.829,238.361z"/>
		<text transform="matrix(1 0 0 1 209.2207 245.8877)" font-family="'MyriadPro-Regular'" font-size="13.9858">D</text>
	</g>
	<g id="F_1_">
		<path id="F" fill="#FFFFFF" d="M256.282,266.927c-3.936,0-7.145-3.198-7.145-7.143v-21.433c0-3.936,3.199-7.144,7.145-7.144
			h21.434c3.936,0,7.134,3.199,7.134,7.144v21.433c0,3.937-3.19,7.143-7.134,7.143H256.282z"/>
		<text transform="matrix(1 0 0 1 254.2695 245.8877)" font-family="'MyriadPro-Regular'" font-size="13.9858">F</text>
	</g>
	<g id="G_1_">
		<path id="G" fill="#FFFFFF" d="M301.62,266.927c-3.935,0-7.134-3.198-7.134-7.143v-21.433c0-3.936,3.188-7.144,7.134-7.144h21.432
			c3.946,0,7.135,3.199,7.135,7.144v21.433c0,3.937-3.179,7.143-7.135,7.143H301.62z"/>
		<text transform="matrix(1 0 0 1 299.3301 245.8877)" font-family="'MyriadPro-Regular'" font-size="13.9858">G</text>
	</g>
	<g id="H_1_">
		<path id="H" fill="#FFFFFF" d="M346.951,266.927c-3.936,0-7.146-3.198-7.146-7.143v-21.433c0-3.936,3.199-7.144,7.146-7.144
			h21.432c3.936,0,7.135,3.199,7.135,7.144v21.433c0,3.937-3.188,7.143-7.135,7.143H346.951z"/>
		<text transform="matrix(1 0 0 1 344.3984 245.8877)" font-family="'MyriadPro-Regular'" font-size="13.9858">H</text>
	</g>
	<g id="J_1_">
		<path id="J" fill="#FFFFFF" d="M392.279,266.927c-3.937,0-7.135-3.198-7.135-7.143v-21.433c0-3.936,3.189-7.144,7.135-7.144
			h21.433c3.945,0,7.146,3.199,7.146,7.144v21.433c0,3.937-3.191,7.143-7.146,7.143H392.279z"/>
		<text transform="matrix(1 0 0 1 391.2197 245.8877)" font-family="'MyriadPro-Regular'" font-size="13.9858">J</text>
	</g>
	<g id="K_1_">
		<path id="K" fill="#FFFFFF" d="M437.608,266.927c-3.937,0-7.136-3.198-7.136-7.143v-21.433c0-3.936,3.188-7.144,7.136-7.144
			h21.433c3.943,0,7.144,3.199,7.144,7.144v21.433c0,3.937-3.189,7.143-7.144,7.143H437.608z"/>
		<text transform="matrix(1 0 0 1 434.4873 245.8877)" font-family="'MyriadPro-Regular'" font-size="13.9858">K</text>
	</g>
	<g id="L_1_">
		<path id="L" fill="#FFFFFF" d="M511.503,238.361v21.435c0,3.937-3.188,7.142-7.144,7.142h-21.411
			c-3.948,0-7.157-3.195-7.157-7.142v-21.435c0-3.936,3.199-7.145,7.157-7.145h21.411
			C508.314,231.216,511.503,234.417,511.503,238.361z"/>
		<text transform="matrix(1 0 0 1 479.5508 245.8877)" font-family="'MyriadPro-Regular'" font-size="13.9858">L</text>
	</g>
	<g id="Z_1_">
		<path id="Z" fill="#FFFFFF" d="M333.691,223.321c-3.945,0-7.153-3.203-7.153-7.147v-21.431c0-3.936,3.2-7.146,7.153-7.146h21.424
			c3.935,0,7.144,3.202,7.144,7.146v21.431c0,3.937-3.198,7.147-7.144,7.147H333.691z"/>
		<text transform="matrix(1 0 0 1 330.4365 203.2324)" font-family="'MyriadPro-Regular'" font-size="13.9858">Z</text>
	</g>
	<g id="X_1_">
		<path id="X" fill="#FFFFFF" d="M191.016,310.529c-3.934,0-7.143-3.203-7.143-7.147v-21.431c0-3.936,3.199-7.146,7.143-7.146
			h21.425c3.944,0,7.152,3.202,7.152,7.146v21.431c0,3.937-3.199,7.147-7.152,7.147H191.016z"/>
		<text transform="matrix(1 0 0 1 187.4727 290.4404)" font-family="'MyriadPro-Regular'" font-size="13.9858">X</text>
	</g>
	<g id="C_1_">
		<path id="C" fill="#FFFFFF" d="M265.953,303.391c0,3.938-3.189,7.146-7.144,7.146h-21.433c-3.936,0-7.135-3.2-7.135-7.146v-21.432
			c0-3.934,3.188-7.145,7.135-7.145h21.431c3.947,0,7.145,3.203,7.145,7.145L265.953,303.391L265.953,303.391z"/>
		<text transform="matrix(1 0 0 1 234.5156 290.4404)" font-family="'MyriadPro-Regular'" font-size="13.9858">C</text>
	</g>
	<g id="V_1_">
		<path id="V" fill="#FFFFFF" d="M276.631,281.959c0-3.934,3.189-7.145,7.143-7.145h21.433c3.935,0,7.135,3.203,7.135,7.145v21.432
			c0,3.938-3.188,7.146-7.135,7.146h-21.433c-3.945,0-7.143-3.2-7.143-7.146V281.959L276.631,281.959z"/>
		<text transform="matrix(1 0 0 1 281.5586 290.4404)" font-family="'MyriadPro-Regular'" font-size="13.9858">V</text>
	</g>
	<g id="B_1_">
		<path id="B" fill="#FFFFFF" d="M323.01,281.959c0-3.934,3.199-7.145,7.154-7.145h21.424c3.937,0,7.145,3.203,7.145,7.145v21.432
			c0,3.938-3.2,7.146-7.145,7.146h-21.424c-3.945,0-7.154-3.2-7.154-7.146V281.959z"/>
		<text transform="matrix(1 0 0 1 326.5381 290.4404)" font-family="'MyriadPro-Regular'" font-size="13.9858">B</text>
	</g>
	<g id="N_1_">
		<path id="N" fill="#FFFFFF" d="M369.389,281.959c0-3.934,3.199-7.145,7.145-7.145h21.424c3.946,0,7.154,3.203,7.154,7.145v21.432
			c0,3.938-3.198,7.146-7.154,7.146h-21.424c-3.936,0-7.145-3.2-7.145-7.146V281.959z"/>
		<text transform="matrix(1 0 0 1 373.1025 290.4404)" font-family="'MyriadPro-Regular'" font-size="13.9858">N</text>
	</g>
	<g id="M_1_">
		<path id="M" fill="#FFFFFF" d="M415.778,281.959c0-3.934,3.197-7.145,7.145-7.145h21.424c3.944,0,7.144,3.203,7.144,7.145v21.432
			c0,3.938-3.189,7.146-7.144,7.146h-21.424c-3.937,0-7.145-3.2-7.145-7.146V281.959z"/>
		<text transform="matrix(1 0 0 1 420.8564 290.4404)" font-family="'MyriadPro-Regular'" font-size="13.9858">M</text>
	</g>
	<g id="Number_2_">
		<path id="Number" fill="#FFFFFF" d="M33.043,151.147c0-3.944,3.188-7.144,7.135-7.144H61.61c3.946,0,7.144,3.19,7.144,7.144
			v21.424c0,3.945-3.188,7.144-7.144,7.144H40.177c-3.935,0-7.135-3.188-7.135-7.144L33.043,151.147L33.043,151.147z"/>
		<text id="Number_1_" transform="matrix(1 0 0 1 40.9385 159.3486)" font-family="'MyriadPro-Regular'" font-size="13.9858">ยบ</text>
	</g>
	<path id="Numbers" d="M545.699,138.371v45.772H73.862v-45.772H545.699z"/>
	<g id="_x31__1_">
		<path id="_x31_" fill="#FFFFFF" d="M115.683,151.147v21.424c0,3.945-3.19,7.144-7.146,7.144H87.106
			c-3.936,0-7.134-3.188-7.134-7.144v-21.424c0-3.944,3.189-7.144,7.134-7.144h21.432
			C112.493,144.013,115.683,147.204,115.683,151.147z"/>
		<text transform="matrix(1 0 0 1 84.168 159.3486)" font-family="'MyriadPro-Regular'" font-size="13.9858">1</text>
	</g>
	<g id="_x32__1_">
		<path id="_x32_" fill="#FFFFFF" d="M162.62,151.147v21.424c0,3.945-3.189,7.144-7.143,7.144h-21.433
			c-3.936,0-7.135-3.188-7.135-7.144v-21.424c0-3.944,3.189-7.144,7.135-7.144h21.433
			C159.431,144.013,162.62,147.204,162.62,151.147z"/>
		<text transform="matrix(1 0 0 1 131.0059 159.3486)" font-family="'MyriadPro-Regular'" font-size="13.9858">2</text>
	</g>
	<g id="_x33__1_">
		<path id="_x33_" fill="#FFFFFF" d="M173.867,172.571v-21.424c0-3.944,3.19-7.144,7.134-7.144h21.433
			c3.946,0,7.146,3.19,7.146,7.144v21.424c0,3.945-3.188,7.144-7.146,7.144h-21.433
			C177.058,179.706,173.867,176.516,173.867,172.571z"/>
		<text transform="matrix(1 0 0 1 178.8896 159.3486)" font-family="'MyriadPro-Regular'" font-size="13.9858">3</text>
	</g>
	<g id="_x34__1_">
		<path id="_x34_" fill="#FFFFFF" d="M256.507,172.571c0,3.945-3.19,7.144-7.144,7.144h-21.435c-3.935,0-7.134-3.188-7.134-7.144
			v-21.424c0-3.944,3.19-7.144,7.134-7.144h21.434c3.946,0,7.145,3.19,7.145,7.144V172.571L256.507,172.571z"/>
		<text transform="matrix(1 0 0 1 224.6611 159.3486)" font-family="'MyriadPro-Regular'" font-size="13.9858">4</text>
	</g>
	<g id="_x35__1_">
		<path id="_x35_" fill="#FFFFFF" d="M303.446,172.571c0,3.945-3.189,7.144-7.146,7.144h-21.422c-3.944,0-7.145-3.188-7.145-7.144
			v-21.424c0-3.944,3.19-7.144,7.145-7.144H296.3c3.947,0,7.146,3.19,7.146,7.144V172.571z"/>
		<text transform="matrix(1 0 0 1 272.1211 159.3486)" font-family="'MyriadPro-Regular'" font-size="13.9858">5</text>
	</g>
	<g id="_x36__1_">
		<path id="_x36_" fill="#FFFFFF" d="M343.251,144.013c3.944,0,7.145,3.19,7.145,7.144v21.424c0,3.946-3.19,7.144-7.145,7.144
			h-21.425c-3.934,0-7.145-3.189-7.145-7.144v-21.424c0-3.945,3.2-7.144,7.145-7.144H343.251z"/>
		<text transform="matrix(1 0 0 1 320.0195 159.3486)" font-family="'MyriadPro-Regular'" font-size="13.9858">6</text>
	</g>
	<g id="_x37__1_">
		<path id="_x37_" fill="#FFFFFF" d="M368.766,144.013h21.424c3.944,0,7.146,3.19,7.146,7.144v21.424
			c0,3.946-3.19,7.144-7.146,7.144h-21.424c-3.946,0-7.145-3.189-7.145-7.144v-21.424
			C361.63,147.204,364.819,144.013,368.766,144.013z"/>
		<text transform="matrix(1 0 0 1 366.3271 159.3486)" font-family="'MyriadPro-Regular'" font-size="13.9858">7</text>
	</g>
	<g id="_x38__1_">
		<path id="_x38_" fill="#FFFFFF" d="M408.569,151.147c0-3.944,3.199-7.144,7.134-7.144h21.436c3.944,0,7.144,3.19,7.144,7.144
			v21.424c0,3.945-3.188,7.144-7.144,7.144h-21.436c-3.924,0-7.134-3.188-7.134-7.144V151.147z"/>
		<text transform="matrix(1 0 0 1 412.835 159.3486)" font-family="'MyriadPro-Regular'" font-size="13.9858">8</text>
	</g>
	<g id="_x39__1_">
		<path id="_x39_" fill="#FFFFFF" d="M491.21,172.571c0,3.945-3.192,7.144-7.143,7.144h-21.426c-3.943,0-7.143-3.188-7.143-7.144
			v-21.424c0-3.944,3.188-7.144,7.143-7.144h21.426c3.941,0,7.143,3.19,7.143,7.144V172.571z"/>
		<text transform="matrix(1 0 0 1 461.6914 159.3486)" font-family="'MyriadPro-Regular'" font-size="13.9858">9</text>
	</g>
	<g id="_x30__1_">
		<path id="_x30_" fill="#FFFFFF" d="M538.15,151.147v21.424c0,3.945-3.202,7.144-7.146,7.144h-21.423
			c-3.944,0-7.146-3.188-7.146-7.144v-21.424c0-3.944,3.193-7.144,7.146-7.144h21.423
			C534.948,144.013,538.15,147.204,538.15,151.147z"/>
		<text transform="matrix(1 0 0 1 506.7637 159.3486)" font-family="'MyriadPro-Regular'" font-size="13.9858">0</text>
	</g>
	<g id="Tab">
		<path id="Tab_1_" fill="#FFFFFF" d="M33.043,194.749c0-3.944,3.188-7.145,7.135-7.145h45.23c3.935,0,7.134,3.19,7.134,7.145
			v21.423c0,3.945-3.188,7.144-7.134,7.144H40.177c-3.935,0-7.135-3.187-7.135-7.144L33.043,194.749L33.043,194.749z"/>
		<text transform="matrix(1 0 0 1 40.9385 205.459)" font-family="'MyriadPro-Regular'" font-size="13.9858">Tab</text>
	</g>
	<g id="Caps">
		<path id="Caps_1_" fill="#FFFFFF" d="M33.043,238.361c0-3.936,3.188-7.145,7.135-7.145h57.135c3.936,0,7.135,3.2,7.135,7.145
			v21.435c0,3.937-3.19,7.142-7.135,7.142H40.177c-3.935,0-7.135-3.195-7.135-7.142L33.043,238.361L33.043,238.361z"/>
		<text transform="matrix(1 0 0 1 40.9385 245.8877)" font-family="'MyriadPro-Regular'" font-size="13.9858">Caps</text>
	</g>
	<g id="LShift">
		<path id="LShift_2_" fill="#FFFFFF" d="M40.177,310.533c-3.935,0-7.135-3.202-7.135-7.146v-21.431
			c0-3.937,3.188-7.146,7.135-7.146h79.401c3.935,0,7.145,3.199,7.145,7.146v21.431c0,3.935-3.198,7.146-7.145,7.146H40.177z"/>
		<text id="LShift_1_" transform="matrix(1 0 0 1 40.9385 290.4404)" font-family="'MyriadPro-Regular'" font-size="13.9858">L. Shift</text>
	</g>
	<g id="RShift">
		<path id="RShift_2_" fill="#FFFFFF" d="M599.894,281.964c0-3.937,3.199-7.146,7.146-7.146h80.93c3.938,0,7.146,3.203,7.146,7.146
			v21.431c0,3.938-3.199,7.146-7.146,7.146h-80.93c-3.938,0-7.146-3.2-7.146-7.146V281.964L599.894,281.964z"/>
		<text id="RShift_1_" transform="matrix(1 0 0 1 607.3652 290.4404)" font-family="'MyriadPro-Regular'" font-size="13.9858">R. Shift</text>
	</g>
	<g id="LCtrl">
		<path id="LCtrl_1_" fill="#FFFFFF" d="M114.682,346.998h-0.009c0,3.944-3.189,7.146-7.144,7.146H40.186
			c-3.944,0-7.145-3.192-7.145-7.146v-21.421c0-3.947,3.188-7.146,7.145-7.146h67.352c3.946,0,7.144,3.188,7.144,7.146V346.998z"/>
		<text id="LCtrl_2_" transform="matrix(1 0 0 1 40.9385 336.2852)" font-family="'MyriadPro-Regular'" font-size="13.9858">Ctrl</text>
	</g>
	<g id="RCtrl">
		<path id="RCtrl_2_" fill="#FFFFFF" d="M567.343,346.998c0,3.944-3.188,7.146-7.134,7.146h-21.433
			c-3.946,0-7.146-3.192-7.146-7.146v-21.421c0-3.947,3.191-7.146,7.146-7.146h21.433c3.936,0,7.134,3.188,7.134,7.146V346.998z"/>
		<text id="RCtrl_1_" transform="matrix(1 0 0 1 536.1641 336.2852)" font-family="'MyriadPro-Regular'" font-size="13.9858">Ctrl</text>
	</g>
	<g id="Space">
		<path id="Space_1_" fill="#FFFFFF" d="M464.946,346.998c0,3.944-3.196,7.146-7.144,7.146h-223.75
			c-3.936,0-7.145-3.192-7.145-7.146v-21.421c0-3.947,3.2-7.146,7.145-7.146h223.75c3.938,0,7.144,3.188,7.144,7.146V346.998z"/>
		<text transform="matrix(1 0 0 1 234.5156 334.8076)" font-family="'MyriadPro-Regular'" font-size="13.9858">Space</text>
	</g>
	<g id="LAlt">
		<path id="LAlt_2_" fill="#FFFFFF" d="M215.898,346.998c0,3.944-3.199,7.146-7.134,7.146h-33.327c-3.944,0-7.145-3.192-7.145-7.146
			v-21.421c0-3.947,3.19-7.146,7.145-7.146h33.327c3.925,0,7.134,3.188,7.134,7.146V346.998z"/>
		<text id="LAlt_1_" transform="matrix(1 0 0 1 173.2051 334.8076)" font-family="'MyriadPro-Regular'" font-size="13.9858">Alt</text>
	</g>
	<g id="RAlt">
		<path id="RAlt_2_" fill="#FFFFFF" d="M523.871,346.998c0,3.944-3.203,7.146-7.147,7.146h-33.326c-3.945,0-7.144-3.192-7.144-7.146
			v-21.421c0-3.947,3.192-7.146,7.144-7.146h33.326c3.937,0,7.147,3.188,7.147,7.146V346.998z"/>
		<text id="RAlt_1_" transform="matrix(1 0 0 1 482.1279 334.8076)" font-family="'MyriadPro-Regular'" font-size="13.9858">Alt</text>
	</g>
	<g id="Enter">
		<path id="Enter_1_" fill="#FFFFFF" d="M692.076,266.927h-24.723c-3.936,0-7.144-3.198-7.144-7.143v-36.469h-5.586
			c-3.935,0-7.146-3.188-7.146-7.144v-21.424c0-3.944,3.2-7.144,7.146-7.144h12.729h5.211h19.501c3.941,0,7.145,3.19,7.145,7.144
			v65.036h0.009C699.219,263.721,696.028,266.927,692.076,266.927z"/>
		<text transform="matrix(1 0 0 1 653.7725 201.4297)" font-family="'MyriadPro-Regular'" font-size="13.9858">Enter</text>
	</g>
	<g id="Return">
		<path id="Return_1_" fill="#FFFFFF" d="M699.219,172.571c0,3.945-3.202,7.144-7.143,7.144h-45.224
			c-3.944,0-7.143-3.188-7.143-7.144v-21.424c0-3.944,3.189-7.144,7.143-7.144h45.224c3.932,0,7.143,3.19,7.143,7.144V172.571z"/>
		<text transform="matrix(1 0 0 1 647.4814 161.8574)" font-family="'MyriadPro-Regular'" font-size="13.9858">Return</text>
	</g>
	<path id="ArrowKeys_1_" d="M699.219,355.195H574.135V315.32h125.084V355.195z"/>
	<path id="Left" fill="#FFFFFF" d="M613.134,349.381c0,2.632-2.141,4.752-4.76,4.752H582.19c-2.63,0-4.759-2.132-4.759-4.752v-6.209
		c0-2.641,2.14-4.761,4.759-4.761h26.184c2.63,0,4.76,2.13,4.76,4.761V349.381L613.134,349.381z"/>
	<path id="Down" fill="#FFFFFF" d="M654.917,349.381c0,2.632-2.121,4.752-4.75,4.752h-26.182c-2.633,0-4.762-2.132-4.762-4.752
		v-6.209c0-2.641,2.141-4.761,4.762-4.761h26.182c2.641,0,4.75,2.13,4.75,4.761V349.381z"/>
	<path id="Right" fill="#FFFFFF" d="M695.921,349.381c0,2.632-2.12,4.752-4.751,4.752h-26.182c-2.63,0-4.76-2.132-4.76-4.752v-6.209
		c0-2.641,2.14-4.761,4.76-4.761h26.182c2.641,0,4.751,2.13,4.751,4.761V349.381z"/>
	<path id="Up" fill="#FFFFFF" d="M654.917,327.342c0,2.631-2.121,4.752-4.75,4.752h-26.182c-2.633,0-4.762-2.133-4.762-4.752v-6.209
		c0-2.64,2.141-4.761,4.762-4.761h26.182c2.641,0,4.75,2.13,4.75,4.761V327.342z"/>
</g>
</svg>
