<?xml version="1.0" encoding="utf-8"?>
<!-- Generator: Adobe Illustrator 15.0.0, SVG Export Plug-In . SVG Version: 6.00 Build 0)  -->
<!DOCTYPE svg PUBLIC "-//W3C//DTD SVG 1.1//EN" "http://www.w3.org/Graphics/SVG/1.1/DTD/svg11.dtd">
<svg version="1.1" id="Layer_1" xmlns="http://www.w3.org/2000/svg" xmlns:xlink="http://www.w3.org/1999/xlink" x="0px" y="0px"
	 width="254.566px" height="236.304px" viewBox="71.341 53.959 254.566 236.304"
	 enable-background="new 71.341 53.959 254.566 236.304" xml:space="preserve">
<path id="BodyNoClick" fill="#020202" d="M155.064,155.076c-46.223,0-83.723,45.416-83.723,101.391
	c0,18.68,12.482,33.797,27.908,33.797H210.88c15.426,0,27.906-15.117,27.906-33.797
	C238.785,200.492,201.284,155.076,155.064,155.076z"/>
<path id="HeadNoClick" fill="#020202" d="M196.925,108.864c0,23.112-18.75,41.862-41.861,41.862
	c-23.112,0-41.861-18.75-41.861-41.862c0-23.112,18.75-41.861,41.861-41.861S196.925,85.752,196.925,108.864z"/>
<path id="BodyNoClick_1_" fill="#020202" d="M249.037,186.113c-35.607,0-64.5,34.988-64.5,78.113
	c0,14.391,9.616,26.035,21.499,26.035h86.001c11.883,0,21.5-11.645,21.5-26.035C313.537,221.101,284.648,186.113,249.037,186.113z"
	/>
<path id="HeadNoClick_1_" fill="#020202" d="M281.287,150.512c0,17.805-14.443,32.25-32.25,32.25s-32.25-14.446-32.25-32.25
	c0-17.806,14.443-32.25,32.25-32.25S281.287,132.707,281.287,150.512z"/>
<text transform="matrix(0.9804 0.1968 -0.1968 0.9804 216.7896 103.6006)" font-family="'MyriadPro-Regular'" font-size="32.0337">Versus</text>
<text transform="matrix(0.9794 0.202 -0.202 0.9794 230.1499 80.2227)" font-family="'MyriadPro-Regular'" font-size="32.037">Coop</text>
<text transform="matrix(0.9775 0.211 -0.211 0.9775 301.3032 98.6313)" font-family="'MyriadPro-Regular'" font-size="32.0369">&amp;</text>
</svg>
