<svg xmlns="http://www.w3.org/2000/svg" xmlns:xlink="http://www.w3.org/1999/xlink" version="1.1" x="0px" y="0px" viewBox="0 0 90 90" enable-background="new 0 0 90 90" xml:space="preserve"><polygon fill="#000000" points="210.055,395.395 207.448,434.809 232.893,436.492 232.959,435.493 235.5,397.077 "></polygon><polygon fill="#000000" points="218.416,395.842 203.876,432.568 227.585,441.955 227.954,441.025 242.125,405.229 "></polygon><polygon fill="#000000" points="212.896,394.438 206.7,433.449 231.883,437.449 232.04,436.461 238.08,398.438 "></polygon><rect x="207.559" y="397.729" fill="#000000" stroke="#1D1D1B" stroke-width="2" stroke-miterlimit="10" width="23.5" height="37.5"></rect><line fill="#000000" stroke="#1D1D1B" stroke-miterlimit="10" x1="217.001" y1="432.031" x2="217.001" y2="420.514"></line><line fill="#000000" stroke="#1D1D1B" stroke-miterlimit="10" x1="223.001" y1="432.031" x2="223.001" y2="401.645"></line><line fill="#000000" stroke="#1D1D1B" stroke-miterlimit="10" x1="225.876" y1="432.031" x2="225.876" y2="401.645"></line><polygon fill="#000000" points="210.275,428.322 212.417,427.085 214.559,428.322 214.559,430.795 212.417,432.031 210.275,430.795   "></polygon><text transform="matrix(0 -1 1 0 213.501 430.2695)" fill="#000000" font-family="'Futura-CondensedMedium'" font-size="3.4893">A</text><path d="M69.682,42.201c-0.205-0.836-0.408-1.581-0.609-2.246c0-0.015,0.002-0.03,0.002-0.045c0-2.93-1.519-5.501-3.811-6.979  v-0.985c0-1.985-1.848-3.594-4.132-3.594h-0.974c-2.283,0-4.132,1.608-4.132,3.594v1.162c-0.165,0.115-0.325,0.235-0.479,0.361  H34.451c-0.156-0.126-0.315-0.246-0.48-0.361v-1.162c0-1.985-1.849-3.594-4.131-3.594h-0.975c-2.282,0-4.133,1.608-4.133,3.594  v0.985c-2.291,1.478-3.809,4.049-3.809,6.979c0,0.015,0,0.03,0,0.045c-0.2,0.665-0.404,1.41-0.606,2.246  c-2.37,9.723-3.258,17.2,2.646,19.297c2.881,1.021,6.619-3.268,9.258-9.781c1.037,1.312,2.641,2.152,4.441,2.152  c2.382,0,4.419-1.473,5.256-3.555h6.161c0.836,2.082,2.874,3.555,5.257,3.555c1.801,0,3.403-0.84,4.441-2.152  c2.637,6.514,6.378,10.803,9.258,9.781C72.939,59.4,72.051,51.924,69.682,42.201z M27.64,35.792h2.831v2.141l-1.448,1.449  l-1.383-1.449V35.792z M26.865,41.588h-2.14v-2.831h2.14l1.449,1.383L26.865,41.588z M30.471,44.452H27.64v-2.14l1.383-1.447  l1.448,1.447V44.452z M31.244,41.588l-1.449-1.448l1.449-1.383h2.141v2.831H31.244z M36.979,51.043  c-1.984,0-3.594-1.609-3.594-3.594c0-1.986,1.609-3.594,3.594-3.594s3.594,1.608,3.594,3.594  C40.572,49.434,38.963,51.043,36.979,51.043z M41.303,40.865h-2.369v-1.482h2.369V40.865z M44.998,44.551  c-0.803,0-1.454-0.651-1.454-1.456c0-0.804,0.651-1.454,1.454-1.454c0.804,0,1.456,0.65,1.456,1.454  C46.454,43.9,45.802,44.551,44.998,44.551z M48.482,40.865v-1.482l2.699,0.758L48.482,40.865z M53.123,51.043  c-1.984,0-3.594-1.609-3.594-3.594c0-1.986,1.609-3.594,3.594-3.594c1.986,0,3.595,1.608,3.595,3.594  C56.718,49.434,55.109,51.043,53.123,51.043z M56.719,41.827c-0.953,0-1.727-0.772-1.727-1.726c0-0.955,0.773-1.728,1.727-1.728  s1.727,0.772,1.727,1.728C58.445,41.054,57.672,41.827,56.719,41.827z M60.836,45.945c-0.955,0-1.727-0.773-1.727-1.728  c0-0.953,0.771-1.728,1.727-1.728c0.954,0,1.727,0.774,1.727,1.728C62.562,45.172,61.79,45.945,60.836,45.945z M60.836,37.708  c-0.955,0-1.727-0.772-1.727-1.726c0-0.954,0.771-1.728,1.727-1.728c0.954,0,1.727,0.773,1.727,1.728  C62.562,36.936,61.79,37.708,60.836,37.708z M64.954,41.827c-0.954,0-1.727-0.772-1.727-1.726c0-0.955,0.772-1.728,1.727-1.728  s1.727,0.772,1.727,1.728C66.681,41.054,65.908,41.827,64.954,41.827z"></path></svg>