<svg xmlns="http://www.w3.org/2000/svg" xmlns:xlink="http://www.w3.org/1999/xlink" version="1.1" x="0px" y="0px" viewBox="0 0 100 125" enable-background="new 0 0 100 100" xml:space="preserve"><g><path fill="#000000" d="M35.42,37.492h28.812c1.302,0,2.359-1.038,2.359-2.312V19.903h-0.078L65.85,19.18H50.971H33.87   l-0.667,0.723h-0.145V35.18C33.059,36.454,34.119,37.492,35.42,37.492z"/><path fill="#000000" d="M97.72,49.163c-1.555-7.55-3.111-16.604-4.772-19.877c-1.665-3.273-3.222-6.33-3.222-6.33l-2.108-3.331   h-0.999v-1.111c0,0-2.223-1.666-5.777-1.666c-3.55,0-6.332,1.112-6.332,1.112v0.999c0,0-0.659,0-1.439,0.222   c-0.777,0.223-1.668,0.723-1.668,0.723h-4.126V35.18c0,1.642-1.365,2.978-3.043,2.978H35.42c-1.678,0-3.042-1.335-3.042-2.978   V19.903h-4.062c0,0-0.887-0.5-1.666-0.723c-0.779-0.222-1.444-0.222-1.444-0.222V17.96c0,0-2.775-1.112-6.329-1.112   c-3.554,0-5.773,1.666-5.773,1.666v1.111h-1l-2.111,3.331c0,0-1.556,3.056-3.219,6.33C5.11,32.559,3.554,41.613,1.999,49.163   C0.443,56.713,0,69.375,0,69.375s0.223,6.771,7.33,9.104c7.106,2.331,12.105-2.999,12.105-2.999l1.776-3.884l4.664-14.215   l1.888-0.556c0,0,2.887,2.112,6.664,1.997c3.777-0.109,6.884-2.552,6.884-2.552h9.662h7.441c0,0,3.107,2.442,6.883,2.552   c3.775,0.115,6.665-1.997,6.665-1.997l1.884,0.556l4.663,14.215l1.781,3.884c0,0,4.999,5.33,12.101,2.999   c7.107-2.333,7.332-9.104,7.332-9.104S99.276,56.713,97.72,49.163z M16.221,27.656c0-0.69,0.559-1.25,1.25-1.25h2.502   c0.691,0,1.25,0.56,1.25,1.25v2.503c0,0.691-1.811,2.821-2.502,2.821c-0.689,0-2.5-2.129-2.5-2.821V27.656z M12.003,36.651   c-0.691,0-1.25-0.56-1.25-1.251v-2.503c0-0.691,0.559-1.25,1.25-1.25h2.503c0.69,0,2.82,1.812,2.82,2.503   c0,0.689-2.13,2.501-2.82,2.501H12.003z M21.224,41.098c0,0.689-0.56,1.249-1.25,1.249h-2.502c-0.691,0-1.25-0.56-1.25-1.249   v-2.504c0-0.69,1.811-2.821,2.5-2.821c0.691,0,2.502,2.131,2.502,2.821V41.098z M26.692,35.4c0,0.691-0.56,1.251-1.249,1.251H22.94   c-0.69,0-2.822-1.812-2.822-2.501c0-0.691,2.132-2.503,2.822-2.503h2.503c0.689,0,1.249,0.56,1.249,1.25V35.4z M34.322,54.234   c-3.465,0-6.275-2.81-6.275-6.276c0-3.463,2.811-6.274,6.275-6.274c3.465,0,6.275,2.811,6.275,6.274   C40.597,51.425,37.788,54.234,34.322,54.234z M66.416,54.234c-3.466,0-6.277-2.81-6.277-6.276c0-3.463,2.812-6.274,6.277-6.274   c3.465,0,6.272,2.811,6.272,6.274C72.688,51.425,69.881,54.234,66.416,54.234z M74.078,36.856c-1.656,0-3-1.343-3-2.998   c0-1.658,1.344-3.001,3-3.001c1.655,0,3,1.343,3,3.001C77.078,35.513,75.733,36.856,74.078,36.856z M81.349,44.241   c-1.654,0-2.996-1.343-2.996-2.999c0-1.658,1.342-3,2.996-3c1.659,0,3.003,1.342,3.003,3   C84.352,42.898,83.008,44.241,81.349,44.241z M81.349,29.693c-1.654,0-2.996-1.343-2.996-2.998c0-1.658,1.342-3.001,2.996-3.001   c1.659,0,3.003,1.343,3.003,3.001C84.352,28.35,83.008,29.693,81.349,29.693z M88.627,36.856c-1.659,0-3.003-1.343-3.003-2.998   c0-1.658,1.344-3.001,3.003-3.001c1.656,0,2.999,1.343,2.999,3.001C91.626,35.513,90.283,36.856,88.627,36.856z"/><path fill="#000000" d="M77.078,33.858c0-1.658-1.345-3.001-3-3.001c-1.656,0-3,1.343-3,3.001"/><path fill="#000000" d="M21.224,41.098v-2.504c0-0.69-1.811-2.821-2.502-2.821c-0.689,0-2.5,2.131-2.5,2.821v2.504   c0,0.689,0.559,1.249,1.25,1.249"/></g><text x="0" y="115" fill="#000000" font-size="5px" font-weight="bold" font-family="'Helvetica Neue', Helvetica, Arial-Unicode, Arial, Sans-serif">Created by Regan Warner</text><text x="0" y="120" fill="#000000" font-size="5px" font-weight="bold" font-family="'Helvetica Neue', Helvetica, Arial-Unicode, Arial, Sans-serif">from the Noun Project</text></svg>