<?xml version="1.0" encoding="utf-8"?>
<!-- Generator: Adobe Illustrator 15.0.0, SVG Export Plug-In . SVG Version: 6.00 Build 0)  -->
<!DOCTYPE svg PUBLIC "-//W3C//DTD SVG 1.1//EN" "http://www.w3.org/Graphics/SVG/1.1/DTD/svg11.dtd">
<svg version="1.1" id="Layer_1" xmlns="http://www.w3.org/2000/svg" xmlns:xlink="http://www.w3.org/1999/xlink" x="0px" y="0px"
	 width="730px" height="470px" viewBox="0 0 730 470" enable-background="new 0 0 730 470" xml:space="preserve">
<g>
	<path id="Touchpad" fill="#010101" d="M277.271,165.451H453.6c7.97,0,14.438-6.353,14.438-14.149V57.806h-0.479l-4.058-4.424
		h-91.061H267.784l-4.082,4.424h-0.887v93.496C262.821,159.099,269.308,165.451,277.271,165.451z"/>
	<path id="BaseController" d="M658.547,236.877c-9.518-46.206-19.04-101.616-29.205-121.646
		c-10.188-20.031-19.719-38.74-19.719-38.74l-12.901-20.386h-6.112l-74.107-4.076c0,0-4.033,0-8.807,1.358
		c-4.755,1.365-10.208,4.425-10.208,4.425h-25.251v93.489c0,10.049-8.354,18.225-18.623,18.225H277.271
		c-10.27,0-18.617-8.17-18.617-18.225V57.806h-24.859c0,0-5.429-3.06-10.196-4.424c-4.768-1.359-8.837-1.359-8.837-1.359
		l-74.064,4.082h-6.12l-12.919,20.386c0,0-9.523,18.703-19.7,38.74c-10.184,20.031-19.707,75.441-29.223,121.646
		C63.211,283.084,60.5,360.575,60.5,360.575s1.365,41.438,44.859,55.716c43.489,14.267,74.083-18.354,74.083-18.354l10.869-23.771
		l28.543-86.996l11.555-3.401c0,0,17.668,12.924,40.784,12.221c23.115-0.666,42.13-15.617,42.13-15.617h59.132h45.538
		c0,0,19.016,14.943,42.124,15.617c23.104,0.703,40.79-12.221,40.79-12.221l11.53,3.401l28.536,86.996l10.9,23.771
		c0,0,30.594,32.619,74.058,18.354c43.495-14.278,44.872-55.717,44.872-55.717S668.069,283.084,658.547,236.877z M159.772,105.255
		c0-4.223,3.421-7.65,7.65-7.65h15.313c4.229,0,7.65,3.427,7.65,7.65v15.318c0,4.229-11.083,17.264-15.312,17.264
		c-4.217,0-15.3-13.029-15.3-17.264L159.772,105.255L159.772,105.255z M133.958,160.304c-4.229,0-7.65-3.427-7.65-7.656V137.33
		c0-4.229,3.421-7.65,7.65-7.65h15.318c4.223,0,17.258,11.089,17.258,15.318c0,4.217-13.036,15.306-17.258,15.306H133.958z
		 M190.391,187.52c0,4.217-3.427,7.644-7.65,7.644h-15.312c-4.229,0-7.65-3.427-7.65-7.644v-15.324
		c0-4.223,11.083-17.265,15.3-17.265c4.229,0,15.313,13.042,15.313,17.265L190.391,187.52L190.391,187.52z M223.855,152.648
		c0,4.229-3.427,7.656-7.644,7.656h-15.318c-4.223,0-17.271-11.089-17.271-15.306c0-4.229,13.048-15.318,17.271-15.318h15.318
		c4.217,0,7.644,3.427,7.644,7.65V152.648L223.855,152.648z M270.551,267.912c-21.206,0-38.403-17.197-38.403-38.409
		c0-21.193,17.204-38.397,38.403-38.397c21.206,0,38.403,17.204,38.403,38.397C308.954,250.721,291.763,267.912,270.551,267.912z
		 M466.966,267.912c-21.212,0-38.415-17.197-38.415-38.409c0-21.193,17.209-38.397,38.415-38.397s38.385,17.204,38.385,38.397
		C505.351,250.721,488.172,267.912,466.966,267.912z M513.857,161.559c-10.136,0-18.36-8.219-18.36-18.348
		c0-10.147,8.226-18.366,18.36-18.366c10.129,0,18.359,8.219,18.359,18.366C532.218,153.339,523.986,161.559,513.857,161.559z
		 M558.355,206.755c-10.122,0-18.336-8.219-18.336-18.354c0-10.147,8.214-18.36,18.336-18.36c10.152,0,18.379,8.213,18.379,18.36
		C576.734,198.536,568.509,206.755,558.355,206.755z M558.355,117.721c-10.122,0-18.336-8.219-18.336-18.348
		c0-10.147,8.214-18.366,18.336-18.366c10.152,0,18.379,8.219,18.379,18.366C576.734,109.502,568.509,117.721,558.355,117.721z
		 M602.896,161.559c-10.152,0-18.379-8.219-18.379-18.348c0-10.147,8.227-18.366,18.379-18.366c10.136,0,18.354,8.219,18.354,18.366
		C621.251,153.339,613.032,161.559,602.896,161.559z"/>
	<path id="DPad" d="M174.829,200.062c-30.409,0-55.07-24.661-55.07-55.079c0-30.392,24.671-55.062,55.07-55.062
		c30.408,0,55.069,24.67,55.069,55.062C229.898,175.41,205.247,200.062,174.829,200.062z"/>
	<path id="Up" fill="#FFFFFF" d="M159.522,105.255c0-4.223,3.421-7.65,7.65-7.65h15.313c4.229,0,7.65,3.427,7.65,7.65v15.318
		c0,4.229-11.083,17.264-15.312,17.264c-4.217,0-15.3-13.029-15.3-17.264L159.522,105.255L159.522,105.255z"/>
	<path id="Right" fill="#FFFFFF" d="M223.855,152.648c0,4.229-3.427,7.656-7.644,7.656h-15.318
		c-4.223,0-17.271-11.089-17.271-15.306c0-4.229,13.048-15.318,17.271-15.318h15.318c4.217,0,7.644,3.427,7.644,7.65V152.648
		L223.855,152.648z"/>
	<path id="Left" fill="#FFFFFF" d="M133.958,160.304c-4.229,0-7.65-3.427-7.65-7.656V137.33c0-4.229,3.421-7.65,7.65-7.65h15.318
		c4.223,0,17.258,11.089,17.258,15.318c0,4.217-13.036,15.306-17.258,15.306H133.958z"/>
	<path id="Down" fill="#FFFFFF" d="M190.391,187.52c0,4.217-3.427,7.644-7.65,7.644h-15.312c-4.229,0-7.65-3.427-7.65-7.644v-15.324
		c0-4.223,11.083-17.265,15.3-17.265c4.229,0,15.313,13.042,15.313,17.265L190.391,187.52L190.391,187.52z"/>
	<path id="LeftAnalog" fill="#FFFFFF" d="M270.551,267.912c-21.206,0-38.403-17.197-38.403-38.409
		c0-21.193,17.204-38.397,38.403-38.397c21.206,0,38.403,17.204,38.403,38.397C308.954,250.721,291.763,267.912,270.551,267.912z"/>
	<path id="RightAnalog" fill="#FFFFFF" d="M466.966,267.912c-21.212,0-38.415-17.197-38.415-38.409
		c0-21.193,17.209-38.397,38.415-38.397s38.385,17.204,38.385,38.397C505.351,250.721,488.172,267.912,466.966,267.912z"/>
	<path id="ActionButtons" d="M558.377,209.068c-36.364,0-65.879-29.491-65.879-65.833c0-36.408,29.515-65.899,65.879-65.899
		c36.344,0,65.879,29.491,65.879,65.899C624.256,179.577,594.721,209.068,558.377,209.068z"/>
	<path id="Square" fill="#FFFFFF" d="M513.857,161.559c-10.136,0-18.36-8.219-18.36-18.348c0-10.147,8.226-18.366,18.36-18.366
		c10.129,0,18.359,8.219,18.359,18.366C532.218,153.339,523.986,161.559,513.857,161.559z"/>
	<path id="Triangle" fill="#FFFFFF" d="M558.355,117.721c-10.122,0-18.336-8.219-18.336-18.348c0-10.147,8.214-18.366,18.336-18.366
		c10.152,0,18.379,8.219,18.379,18.366C576.734,109.502,568.509,117.721,558.355,117.721z"/>
	<path id="Circle" fill="#FFFFFF" d="M602.896,161.559c-10.152,0-18.379-8.219-18.379-18.348c0-10.147,8.227-18.366,18.379-18.366
		c10.136,0,18.354,8.219,18.354,18.366C621.251,153.339,613.032,161.559,602.896,161.559z"/>
	<path id="X" fill="#FFFFFF" d="M558.355,206.755c-10.122,0-18.336-8.219-18.336-18.354c0-10.147,8.214-18.36,18.336-18.36
		c10.152,0,18.379,8.213,18.379,18.36C576.734,198.536,568.509,206.755,558.355,206.755z"/>
	<path id="LeftShoulder" d="M214.762,51.167v-5.251c0,0-16.771-7.444-38.733-6.805c-24.862,0.724-35.331,10.196-35.331,10.196v5.944
		L214.762,51.167z"/>
	<path id="LeftTrigger" d="M213.098,44.087l-0.931-1.92c0,0-13.705-10.139-35.667-9.5c-24.862,0.724-32.11,10.951-32.11,10.951
		l-1.338,2.982c0,0,14.782-8.433,33.115-8.433C200.667,38.167,213.098,44.087,213.098,44.087z"/>
	<path id="RightTrigger" d="M518.61,44.087l0.931-1.92c0,0,13.705-10.139,35.667-9.5c24.862,0.724,32.11,10.951,32.11,10.951
		l1.338,2.982c0,0-14.781-8.433-33.115-8.433C531.041,38.167,518.61,44.087,518.61,44.087z"/>
	<path id="RightShoulder" d="M516.602,51.167v-5.251c0,0,16.771-7.444,38.733-6.805c24.862,0.724,35.331,10.196,35.331,10.196v5.944
		L516.602,51.167z"/>
</g>
</svg>
