<svg xmlns="http://www.w3.org/2000/svg" xmlns:xlink="http://www.w3.org/1999/xlink" version="1.1" x="0px" y="0px" viewBox="0 0 100 125" enable-background="new 0 0 100 100" xml:space="preserve"><g><path d="M31.012,83.287h32.678V67.94H31.012V83.287z"/><g><polygon points="62.796,11.733 31.905,11.733 31.012,36.184 63.689,36.184   "/><path d="M27.287,64.48h40.127v3.459h14.195c0.002-0.051,0.016-0.099,0.016-0.15v-22.6l-5.545-9.007h-8.709v3.424H27.243v-3.424    h-8.288l-5.879,9.007v22.75h14.211V64.48z M71.75,48.267c1.048,0,1.897,0.849,1.897,1.897c0,1.048-0.85,1.898-1.897,1.898    s-1.897-0.85-1.897-1.898C69.853,49.116,70.702,48.267,71.75,48.267z M77.283,48.267c1.05,0,1.897,0.849,1.897,1.897    c0,1.048-0.848,1.898-1.897,1.898c-1.048,0-1.897-0.85-1.897-1.898C75.386,49.116,76.235,48.267,77.283,48.267z"/></g></g><text x="0" y="115" fill="#000000" font-size="5px" font-weight="bold" font-family="'Helvetica Neue', Helvetica, Arial-Unicode, Arial, Sans-serif">Created by Musaplated</text><text x="0" y="120" fill="#000000" font-size="5px" font-weight="bold" font-family="'Helvetica Neue', Helvetica, Arial-Unicode, Arial, Sans-serif">from the Noun Project</text></svg>