<?xml version="1.0" encoding="utf-8"?>
<!-- Generator: Adobe Illustrator 15.0.0, SVG Export Plug-In . SVG Version: 6.00 Build 0)  -->
<!DOCTYPE svg PUBLIC "-//W3C//DTD SVG 1.1//EN" "http://www.w3.org/Graphics/SVG/1.1/DTD/svg11.dtd">
<svg version="1.1" id="Layer_1" xmlns="http://www.w3.org/2000/svg" xmlns:xlink="http://www.w3.org/1999/xlink" x="0px" y="0px"
	 width="384.878px" height="357.267px" viewBox="180.301 48.233 384.878 357.267"
	 enable-background="new 180.301 48.233 384.878 357.267" xml:space="preserve">
<g>
	<path d="M318.775,345.184h101.258v-47.555H318.775V345.184z"/>
	<g>
		<polygon points="417.263,123.461 321.542,123.461 318.775,199.227 420.029,199.227 		"/>
		<path d="M307.232,286.906h124.34v10.719h43.985c0.006-0.158,0.05-0.307,0.05-0.465v-70.03l-17.183-27.91h-26.985v10.609H307.096
			v-10.609h-25.681l-18.218,27.91v70.495h44.036V286.906z M445.008,236.668c3.248,0,5.879,2.63,5.879,5.879
			c0,3.246-2.635,5.879-5.879,5.879s-5.878-2.633-5.878-5.879C439.13,239.298,441.761,236.668,445.008,236.668z M462.153,236.668
			c3.254,0,5.877,2.63,5.877,5.879c0,3.246-2.627,5.879-5.877,5.879c-3.248,0-5.879-2.633-5.879-5.879
			C456.274,239.298,458.905,236.668,462.153,236.668z"/>
	</g>
</g>
</svg>
