<svg xmlns="http://www.w3.org/2000/svg" xmlns:xlink="http://www.w3.org/1999/xlink" version="1.1" x="0px" y="0px" viewBox="0 0 50 62.5" enable-background="new 0 0 50 50" xml:space="preserve"><g><path fill="#000000" d="M40.063,1.516H9.938c-4.665,0-8.446,3.777-8.446,8.438v30.093c0,4.661,3.781,8.438,8.446,8.438h30.124   c4.664,0,8.445-3.777,8.445-8.438V9.953C48.508,5.293,44.727,1.516,40.063,1.516z M11.18,8.496c2.141,0,3.877,1.734,3.877,3.875   c0,2.139-1.736,3.874-3.877,3.874c-2.143,0-3.878-1.735-3.878-3.874C7.302,10.23,9.037,8.496,11.18,8.496z M11.775,41.191   c-2.142,0-3.879-1.735-3.879-3.875c0-2.139,1.737-3.875,3.879-3.875c2.141,0,3.877,1.736,3.877,3.875   C15.652,39.456,13.916,41.191,11.775,41.191z M25,28.874c-2.141,0-3.877-1.735-3.877-3.874c0-2.141,1.736-3.875,3.877-3.875   c2.142,0,3.878,1.734,3.878,3.875C28.878,27.139,27.142,28.874,25,28.874z M37.631,8.496c2.141,0,3.877,1.734,3.877,3.875   c0,2.139-1.736,3.874-3.877,3.874c-2.143,0-3.879-1.735-3.879-3.874C33.752,10.23,35.488,8.496,37.631,8.496z M38.227,41.191   c-2.143,0-3.879-1.735-3.879-3.875c0-2.139,1.736-3.875,3.879-3.875c2.141,0,3.877,1.736,3.877,3.875   C42.104,39.456,40.367,41.191,38.227,41.191z"/></g><text x="0" y="65" fill="#000000" font-size="5px" font-weight="bold" font-family="'Helvetica Neue', Helvetica, Arial-Unicode, Arial, Sans-serif">Created by Mister Pixel</text><text x="0" y="70" fill="#000000" font-size="5px" font-weight="bold" font-family="'Helvetica Neue', Helvetica, Arial-Unicode, Arial, Sans-serif">from the Noun Project</text></svg>