<?xml version="1.0" encoding="utf-8"?>
<!-- Generator: Adobe Illustrator 15.0.0, SVG Export Plug-In . SVG Version: 6.00 Build 0)  -->
<!DOCTYPE svg PUBLIC "-//W3C//DTD SVG 1.1//EN" "http://www.w3.org/Graphics/SVG/1.1/DTD/svg11.dtd">
<svg version="1.1" xmlns="http://www.w3.org/2000/svg" xmlns:xlink="http://www.w3.org/1999/xlink" x="0px" y="0px"
	 width="384.878px" height="357.266px" viewBox="0 0 384.878 357.266" enable-background="new 0 0 384.878 357.266"
	 xml:space="preserve">
<g id="Layer_2" display="none">
	<path display="inline" d="M269.411,82.405l-96.662-15.624c-2.156-0.343-5.285,0.476-6.994,1.831L89.087,129.51
		c-1.983,1.575-1.828,3.257,0.357,3.753l98.418,22.372c2.551,0.569,6.225-0.382,8.174-2.136l74.9-67.643
		C272.596,84.353,271.905,82.807,269.411,82.405z M141.18,121.858c-3.985,3.285-11.09,5.138-15.81,4.128
		c-4.694-1.008-5.211-4.458-1.22-7.694c3.961-3.207,10.918-5.018,15.595-4.074C144.464,115.18,145.127,118.592,141.18,121.858z
		 M162.295,104.407c-3.83,3.16-10.79,4.976-15.501,4.049c-4.67-0.921-5.306-4.208-1.471-7.31c3.81-3.08,10.626-4.859,15.294-3.989
		C165.316,98.033,166.087,101.273,162.295,104.407z M167.383,91.618c-4.655-0.848-5.392-3.961-1.707-6.948
		c3.667-2.972,10.348-4.72,14.996-3.926c4.677,0.812,5.554,3.89,1.903,6.905C178.905,90.684,172.076,92.46,167.383,91.618z
		 M195.153,133.135c-3.941,3.471-11.351,5.409-16.482,4.308c-5.094-1.091-5.971-4.763-2.014-8.172
		c3.926-3.386,11.176-5.279,16.253-4.25C198.026,126.063,199.062,129.685,195.153,133.135z M216.024,114.729
		c-3.778,3.333-11.038,5.228-16.134,4.213c-5.076-0.996-6.063-4.47-2.266-7.75c3.763-3.249,10.863-5.097,15.918-4.158
		C218.631,107.988,219.775,111.421,216.024,114.729z M236.042,97.074c-3.627,3.196-10.729,5.054-15.812,4.128
		c-5.045-0.909-6.124-4.209-2.488-7.356c3.628-3.118,10.569-4.926,15.597-4.071C238.408,90.645,239.635,93.902,236.042,97.074z
		 M224.395,285.024l-31.223-118.831c-0.835-3.172-3.597-6.241-6.152-6.827l-98.305-22.637c-2.181-0.503-3.11,1.518-2.082,4.495
		l38.676,112.421c0.845,2.449,3.164,4.945,5.197,5.597l90.853,29.06C223.708,289.052,225.069,287.592,224.395,285.024z
		 M124.242,185.883c-4.574-1.2-9.845-6.943-11.814-12.887c-1.99-6.008,0.111-9.99,4.747-8.85c4.669,1.151,10.057,7.05,11.992,13.111
		C131.075,183.262,128.855,187.097,124.242,185.883z M144.009,246.639c-4.411-1.354-9.392-6.74-11.167-12.088
		c-1.793-5.405,0.341-8.767,4.807-7.462c4.497,1.318,9.583,6.847,11.323,12.291C150.69,244.77,148.45,248.001,144.009,246.639z
		 M176.208,199.547c-4.965-1.307-10.392-7.263-12.176-13.391c-1.806-6.188,0.77-10.25,5.801-9.005
		c5.074,1.257,10.631,7.391,12.367,13.638C183.915,196.973,181.209,200.866,176.208,199.547z M193.976,261.959
		c-4.76-1.46-9.884-7.046-11.486-12.529c-1.616-5.539,0.949-8.934,5.774-7.524c4.868,1.425,10.107,7.157,11.657,12.746
		C201.457,260.183,198.775,263.424,193.976,261.959z M298.533,208.4L277.292,91.425c-0.562-3.095-2.361-4.406-4.013-2.908
		l-74.675,67.835c-1.95,1.762-2.853,5.781-2.033,8.961l30.891,118.912c0.667,2.569,2.57,3.192,4.251,1.385l65.031-69.787
		C298.198,214.258,299.003,210.943,298.533,208.4z M242.706,249.231c-3.462,3.635-7.4,2.121-8.763-3.459
		c-1.378-5.638,0.389-13.197,3.931-16.818c3.526-3.599,7.419-1.896,8.72,3.732C247.886,238.254,246.143,245.633,242.706,249.231z
		 M266.322,148.78c-3.43,3.307-7.242,1.054-8.507-5.117c-1.29-6.234,0.535-14.01,4.043-17.305c3.482-3.265,7.264-0.815,8.464,5.392
		C271.513,137.897,269.727,145.494,266.322,148.78z"/>
</g>
<g id="Layer_3">
	<g>
		<path d="M262.287,68.737H122.594c-21.633,0-39.166,17.515-39.166,39.128V247.41c0,21.613,17.533,39.128,39.166,39.128h139.688
			c21.627,0,39.16-17.515,39.16-39.128V107.86C301.447,86.251,283.914,68.737,262.287,68.737z M128.353,101.104
			c9.928,0,17.978,8.041,17.978,17.969c0,9.918-8.05,17.964-17.978,17.964c-9.938,0-17.982-8.045-17.982-17.964
			C110.37,109.145,118.415,101.104,128.353,101.104z M131.111,252.713c-9.933,0-17.987-8.045-17.987-17.968
			c0-9.919,8.055-17.969,17.987-17.969c9.929,0,17.979,8.05,17.979,17.969C149.09,244.668,141.04,252.713,131.111,252.713z
			 M192.437,195.599c-9.928,0-17.978-8.045-17.978-17.964c0-9.929,8.05-17.969,17.978-17.969c9.933,0,17.983,8.041,17.983,17.969
			C210.42,187.554,202.37,195.599,192.437,195.599z M251.009,101.104c9.928,0,17.979,8.041,17.979,17.969
			c0,9.918-8.051,17.964-17.979,17.964c-9.938,0-17.988-8.045-17.988-17.964C233.021,109.145,241.072,101.104,251.009,101.104z
			 M253.773,252.713c-9.938,0-17.987-8.045-17.987-17.968c0-9.919,8.05-17.969,17.987-17.969c9.928,0,17.978,8.05,17.978,17.969
			C271.75,244.668,263.696,252.713,253.773,252.713z"/>
	</g>
</g>
</svg>
