<svg xmlns="http://www.w3.org/2000/svg" xmlns:xlink="http://www.w3.org/1999/xlink" version="1.1" x="0px" y="0px" viewBox="0 0 100 125" style="enable-background:new 0 0 100 100;" xml:space="preserve"><path d="M81.233,12.693L42.01,6.353c-0.875-0.139-2.145,0.193-2.838,0.743L8.062,31.807c-0.805,0.639-0.742,1.322,0.145,1.523  l39.936,9.078c1.035,0.231,2.526-0.155,3.317-0.867l30.393-27.448C82.526,13.483,82.245,12.856,81.233,12.693z M29.2,28.702  c-1.617,1.333-4.5,2.085-6.415,1.675c-1.905-0.409-2.115-1.809-0.495-3.122c1.607-1.301,4.43-2.036,6.328-1.653  C30.533,25.992,30.802,27.377,29.2,28.702z M37.768,21.621c-1.554,1.282-4.378,2.019-6.29,1.643  c-1.895-0.374-2.153-1.708-0.597-2.966c1.546-1.25,4.312-1.972,6.206-1.619C38.994,19.034,39.307,20.349,37.768,21.621z   M39.833,16.431c-1.889-0.344-2.188-1.607-0.693-2.819c1.488-1.206,4.199-1.915,6.085-1.593c1.898,0.329,2.254,1.578,0.772,2.802  C44.508,16.052,41.737,16.773,39.833,16.431z M51.101,33.278c-1.599,1.408-4.606,2.195-6.688,1.748  c-2.067-0.443-2.423-1.933-0.817-3.316c1.593-1.374,4.535-2.142,6.595-1.725C52.267,30.408,52.687,31.878,51.101,33.278z   M59.57,25.809c-1.533,1.353-4.479,2.122-6.547,1.71c-2.06-0.404-2.46-1.814-0.919-3.145c1.527-1.318,4.408-2.068,6.459-1.687  C60.628,23.074,61.092,24.467,59.57,25.809z M67.693,18.645c-1.472,1.297-4.354,2.051-6.416,1.675  c-2.047-0.369-2.485-1.708-1.01-2.985c1.472-1.265,4.289-1.999,6.329-1.652C68.653,16.036,69.151,17.358,67.693,18.645z   M62.967,94.911l-12.67-48.219c-0.339-1.287-1.459-2.532-2.496-2.77l-39.89-9.186c-0.885-0.204-1.262,0.616-0.845,1.824  L22.76,82.178c0.343,0.994,1.284,2.007,2.109,2.271l36.866,11.792C62.688,96.546,63.24,95.953,62.967,94.911z M22.327,54.682  c-1.856-0.487-3.995-2.817-4.794-5.229c-0.808-2.438,0.045-4.054,1.926-3.591c1.895,0.467,4.081,2.861,4.866,5.32  C25.1,53.618,24.199,55.175,22.327,54.682z M30.348,79.336c-1.79-0.55-3.811-2.736-4.531-4.906c-0.728-2.193,0.138-3.557,1.95-3.028  c1.825,0.536,3.889,2.779,4.595,4.988C33.059,78.577,32.15,79.888,30.348,79.336z M43.414,60.226  c-2.015-0.53-4.217-2.947-4.941-5.433c-0.733-2.511,0.312-4.159,2.354-3.654c2.059,0.51,4.314,2.999,5.018,5.534  C46.541,59.182,45.443,60.762,43.414,60.226z M50.624,85.552c-1.932-0.593-4.011-2.859-4.661-5.084  c-0.656-2.248,0.385-3.625,2.343-3.053c1.975,0.578,4.101,2.904,4.73,5.172C53.659,84.831,52.571,86.146,50.624,85.552z   M93.05,63.819l-8.619-47.466c-0.228-1.256-0.958-1.788-1.628-1.18L52.501,42.699c-0.791,0.715-1.157,2.346-0.824,3.636  l12.534,48.252c0.271,1.043,1.043,1.295,1.725,0.562l26.388-28.318C92.914,66.196,93.241,64.85,93.05,63.819z M70.397,80.387  c-1.405,1.475-3.003,0.861-3.556-1.404c-0.559-2.287,0.158-5.355,1.595-6.824c1.431-1.46,3.011-0.769,3.538,1.515  C72.499,75.933,71.792,78.927,70.397,80.387z M79.98,39.626c-1.392,1.342-2.939,0.428-3.452-2.076  c-0.524-2.53,0.217-5.685,1.641-7.022c1.413-1.325,2.947-0.331,3.434,2.188C82.086,35.21,81.362,38.293,79.98,39.626z"/><text x="0" y="115" fill="#000000" font-size="5px" font-weight="bold" font-family="'Helvetica Neue', Helvetica, Arial-Unicode, Arial, Sans-serif">Created by Christian Mohr</text><text x="0" y="120" fill="#000000" font-size="5px" font-weight="bold" font-family="'Helvetica Neue', Helvetica, Arial-Unicode, Arial, Sans-serif">from the Noun Project</text></svg>