<?xml version="1.0" encoding="utf-8"?>
<!-- Generator: Adobe Illustrator 15.0.0, SVG Export Plug-In . SVG Version: 6.00 Build 0)  -->
<!DOCTYPE svg PUBLIC "-//W3C//DTD SVG 1.1//EN" "http://www.w3.org/Graphics/SVG/1.1/DTD/svg11.dtd">
<svg version="1.1" id="Layer_1" xmlns="http://www.w3.org/2000/svg" xmlns:xlink="http://www.w3.org/1999/xlink" x="0px" y="0px"
	 width="384.878px" height="357.267px" viewBox="180.301 48.233 384.878 357.267"
	 enable-background="new 180.301 48.233 384.878 357.267" xml:space="preserve">
<g>
	<path d="M469.975,170.616H344.704c-8.86,0-16.053-7.191-16.053-16.052c0-8.863,7.189-16.055,16.053-16.055h125.271
		c8.865,0,16.063,7.189,16.063,16.055C486.037,163.425,478.84,170.616,469.975,170.616z"/>
	<path d="M299.969,175.671h-24.475c-8.863,0-16.052-7.186-16.052-16.052v-10.495c0-8.863,7.189-16.052,16.052-16.052h24.475
		c8.861,0,16.052,7.189,16.052,16.052v10.495C316.021,168.485,308.831,175.671,299.969,175.671z"/>
	<g>
		<path d="M469.975,229.104H344.704c-8.86,0-16.053-7.191-16.053-16.05c0-8.863,7.189-16.055,16.053-16.055h125.271
			c8.865,0,16.063,7.191,16.063,16.055C486.037,221.913,478.84,229.104,469.975,229.104z"/>
		<path d="M299.969,234.534h-24.475c-8.863,0-16.052-7.188-16.052-16.051v-10.495c0-8.861,7.189-16.049,16.052-16.049h24.475
			c8.861,0,16.052,7.188,16.052,16.049v10.495C316.021,227.346,308.831,234.534,299.969,234.534z"/>
	</g>
	<g>
		<path d="M469.975,287.966H344.704c-8.86,0-16.053-7.186-16.053-16.049c0-8.867,7.189-16.053,16.053-16.053h125.271
			c8.865,0,16.063,7.186,16.063,16.053C486.037,280.782,478.84,287.966,469.975,287.966z"/>
		<path d="M299.969,293.394h-24.475c-8.863,0-16.052-7.189-16.052-16.051v-10.486c0-8.865,7.189-16.057,16.052-16.057h24.475
			c8.861,0,16.052,7.191,16.052,16.057v10.486C316.021,286.204,308.831,293.394,299.969,293.394z"/>
	</g>
</g>
<path d="M486.037,271.917c0,8.865-7.197,16.049-16.063,16.049H344.704c-8.86,0-16.053-7.186-16.053-16.049
	c0-8.867,7.189-16.053,16.053-16.053h125.271C478.84,255.864,486.037,263.05,486.037,271.917"/>
<path d="M299.969,250.8c8.861,0,16.052,7.191,16.052,16.057v10.486c0,8.861-7.19,16.051-16.052,16.051h-24.475
	c-8.863,0-16.052-7.189-16.052-16.051"/>
<path d="M259.442,266.856c0-8.865,7.189-16.057,16.052-16.057"/>
<g>
	<path d="M468.885,345.541H343.613c-8.86,0-16.053-7.186-16.053-16.049c0-8.867,7.189-16.053,16.053-16.053h125.271
		c8.865,0,16.063,7.186,16.063,16.053C484.947,338.357,477.75,345.541,468.885,345.541z"/>
	<path d="M298.879,350.969h-24.475c-8.863,0-16.052-7.189-16.052-16.051v-10.486c0-8.865,7.189-16.057,16.052-16.057h24.475
		c8.861,0,16.052,7.191,16.052,16.057v10.486C314.931,343.779,307.74,350.969,298.879,350.969z"/>
</g>
<path d="M484.947,329.492c0,8.865-7.197,16.049-16.063,16.049H343.613c-8.86,0-16.053-7.186-16.053-16.049
	c0-8.867,7.189-16.053,16.053-16.053h125.271C477.75,313.439,484.947,320.625,484.947,329.492"/>
<path d="M298.879,308.375c8.861,0,16.052,7.191,16.052,16.057v10.486c0,8.861-7.19,16.051-16.052,16.051h-24.475
	c-8.863,0-16.052-7.189-16.052-16.051"/>
<path d="M258.352,324.432c0-8.865,7.189-16.057,16.052-16.057"/>
</svg>
