<?xml version="1.0" encoding="utf-8"?>
<!-- Generator: Adobe Illustrator 15.0.0, SVG Export Plug-In . SVG Version: 6.00 Build 0)  -->
<!DOCTYPE svg PUBLIC "-//W3C//DTD SVG 1.1//EN" "http://www.w3.org/Graphics/SVG/1.1/DTD/svg11.dtd">
<svg version="1.1" id="Layer_1" xmlns="http://www.w3.org/2000/svg" xmlns:xlink="http://www.w3.org/1999/xlink" x="0px" y="0px"
	 width="384.878px" height="357.267px" viewBox="180.301 48.233 384.878 357.267"
	 enable-background="new 180.301 48.233 384.878 357.267" xml:space="preserve">
<path d="M475.602,322.894l-70.767-70.77c9.189-13.7,14.128-29.81,14.128-46.678c0-22.446-8.74-43.548-24.612-59.42
	c-15.873-15.87-36.973-24.61-59.419-24.61c-22.446,0-43.548,8.74-59.421,24.61c-15.869,15.873-24.61,36.975-24.61,59.42
	s8.741,43.546,24.613,59.418s36.972,24.614,59.42,24.614c17.058,0,33.336-5.055,47.136-14.444l70.698,70.694
	c2.388,2.389,6.774,1.869,9.8-1.155l11.88-11.881C477.471,329.669,477.989,325.28,475.602,322.894z M334.932,266.713
	c-33.786,0-61.269-27.484-61.269-61.267c0-33.783,27.485-61.269,61.269-61.269c33.782,0,61.266,27.486,61.266,61.269
	C396.197,239.229,368.714,266.713,334.932,266.713z"/>
</svg>
