<?xml version="1.0" encoding="utf-8"?>
<!-- Generator: Adobe Illustrator 15.0.0, SVG Export Plug-In . SVG Version: 6.00 Build 0)  -->
<!DOCTYPE svg PUBLIC "-//W3C//DTD SVG 1.1//EN" "http://www.w3.org/Graphics/SVG/1.1/DTD/svg11.dtd">
<svg version="1.1" id="Layer_2" xmlns="http://www.w3.org/2000/svg" xmlns:xlink="http://www.w3.org/1999/xlink" x="0px" y="0px"
	 width="730px" height="470px" viewBox="0 0 730 470" enable-background="new 0 0 730 470" xml:space="preserve">
<path id="BaseController" stroke="#000000" stroke-miterlimit="10" d="M485.026,350.508c-21.981-21.524-60.979-18.599-60.979-18.599
	l-1.103-216.753c2.854,0.199,5.608,0.189,7.839-0.203c6.095,1.366,14.582,1.988,21.161-2.491
	c18.599-12.66-44.244-89.244-73.091-89.285c-2.479-0.003-5.055,0.315-7.69,0.903c-2.636-0.588-5.212-0.907-7.69-0.903
	c-28.847,0.042-91.689,76.625-73.091,89.285c6.579,4.479,15.067,3.857,21.162,2.491c2.23,0.392,4.985,0.402,7.838,0.203
	l-1.103,216.753c0,0-38.997-2.926-60.978,18.599c-18.994,18.599-22.448,66.953-4.86,81.832
	c27.698,23.429,72.784,20.229,94.496,5.522c1.325-0.897,2.917-2.518,4.634-4.561c7.959-5.909,14.708-14.094,19.592-24.974
	c4.884,10.879,11.633,19.064,19.592,24.973c1.717,2.043,3.309,3.664,4.634,4.562c21.713,14.707,66.799,17.906,94.496-5.522
	C507.475,417.461,504.021,369.106,485.026,350.508z"/>
</svg>
