<svg xmlns="http://www.w3.org/2000/svg" xmlns:xlink="http://www.w3.org/1999/xlink" version="1.1" x="0px" y="0px" viewBox="0 0 100 125" style="enable-background:new 0 0 100 100;" xml:space="preserve"><g><g><g><path d="M49.9,28.6c-2.8,0-5.2,2.3-5.2,5.2s2.3,5.2,5.2,5.2s5.2-2.3,5.2-5.2S52.8,28.6,49.9,28.6z M49.9,37.3     c-1.9,0-3.5-1.6-3.5-3.5s1.6-3.5,3.5-3.5s3.5,1.6,3.5,3.5S51.9,37.3,49.9,37.3z"/></g><g><path d="M90.3,33.4c-0.2-1.2-0.4-2.2-0.7-3.2c-1.1-4-3-6.8-5.2-8.7c0.2-0.4,0-0.5,0-0.5c-4.2-5-12.9-4.8-13.8-4.8     c-0.6,0-0.7,0.8-0.7,1.3c-0.3,0-0.5,0-0.6,0.1c-1.5,0.1-4.9,4.1-8.2,5.5c-3.3,1.4-11.1,1.2-11.1,1.2h-0.2c0,0-7.7,0.2-11.1-1.2     c-3.3-1.4-6.7-5.4-8.2-5.5c-0.1,0-0.4,0-0.8-0.1c0-0.6-0.1-1.3-0.7-1.3c-1,0-9.6-0.2-13.8,4.8c0,0-0.2,0.2,0.1,0.7     c-2.7,2.4-4.9,6.1-5.7,11.8c0,0,0,0,0,0.1C9.2,35.4,2,66.1,6.4,74.6c0.1,0.2,0.2,0.4,0.4,0.7c0.1,0.2,0.2,0.3,0.3,0.5     c0,0,0,0.1,0.1,0.1c1.2,1.8,2.5,2.9,4,3.4c0,0,0.1,0,0.1,0c0.1,0,0.2,0.1,0.4,0.1c0.1,0,0.2,0,0.3,0.1c0.1,0,0.2,0,0.3,0     c0.1,0,0.2,0,0.3,0c4.4,0.3,10.1-3.8,17.6-10.7c0,0,4.2-4.7,19.6-4.7h0.4c15.4,0,19.6,4.7,19.6,4.7c7,6.4,12.4,10.4,16.7,10.7     c1.3,0.2,2.6-0.2,3.8-1c0.9-0.6,1.7-1.4,2.5-2.6c0,0,0,0,0,0c0.1-0.2,0.2-0.4,0.4-0.6c0.1-0.2,0.3-0.5,0.4-0.7     C98.1,65.8,90.3,33.4,90.3,33.4z M15.5,33c0-3.8,2.9-6.7,6.4-6.7S29,29.2,29,33c0,3.8-3.2,6.7-6.7,6.7S15.5,36.8,15.5,33z      M35.5,58.1c-4.7,0-8.5-3.8-8.5-8.5c0-4.7,3.8-8.5,8.5-8.5c4.7,0,8.5,3.8,8.5,8.5C44,54.2,40.2,58.1,35.5,58.1z M55.2,36.7     c-1,1.8-3,3.1-5.3,3.1c-2.2,0-4-1.1-5.1-2.8c0,0-0.5-0.9-1.2-0.9s-4,0-4,0c-1.3,0-2.4-1.1-2.4-2.4c0-1.3,1.1-2.4,2.4-2.4     c0,0,3,0,3.8,0s1.4-0.8,1.4-0.8c1.1-1.7,3-2.8,5.1-2.8c2.2,0,4.1,1.2,5.2,2.9c0,0,0.4,0.7,1.2,0.7s3.9,0,3.9,0     c1.3,0,2.4,1.1,2.4,2.4c0,1.3-1.1,2.4-2.4,2.4c0,0-2.8,0-3.7,0C55.5,36.1,55.2,36.7,55.2,36.7z M63,56.2c-3.6,0-6.8-3-6.8-6.8     c0-3.8,2.9-6.8,6.5-6.8s7.1,3,7.1,6.8C69.8,53.3,66.5,56.2,63,56.2z M69.9,36.6c-1.9,0-3.5-1.6-3.5-3.5c0-1.9,1.6-3.5,3.5-3.5     c1.9,0,3.5,1.6,3.5,3.5C73.4,35.1,71.8,36.6,69.9,36.6z M77.2,43.8c-1.8,0-3.3-1.5-3.3-3.3c0-1.8,1.5-3.3,3.3-3.3     c1.8,0,3.3,1.5,3.3,3.3C80.6,42.3,79.1,43.8,77.2,43.8z M77.2,29.2c-1.9,0-3.4-1.5-3.4-3.4c0-1.9,1.5-3.4,3.4-3.4     c1.9,0,3.4,1.5,3.4,3.4C80.6,27.7,79.1,29.2,77.2,29.2z M84.3,36.3c-1.8,0-3.2-1.4-3.2-3.2s1.4-3.2,3.2-3.2s3.2,1.4,3.2,3.2     S86.1,36.3,84.3,36.3z"/></g><g><path d="M40.6,31.8h-0.7c-1,0-1.9,0.8-1.9,1.8v0c0,1,0.8,1.8,1.9,1.8h0.7c1,0,1.9-0.8,1.9-1.8v0C42.4,32.7,41.6,31.8,40.6,31.8z"/></g><g><path d="M59.2,35.5h0.7c1,0,1.9-0.8,1.9-1.8v0c0-1-0.8-1.8-1.9-1.8h-0.7c-1,0-1.9,0.8-1.9,1.8v0C57.3,34.7,58.2,35.5,59.2,35.5z"/></g><g><path d="M63.1,43.6c-3.3,0-6,2.7-6,6s2.7,6,6,6c3.3,0,6-2.7,6-6S66.4,43.6,63.1,43.6z M63.3,53.6c-2.2,0-4-1.8-4-4s1.8-4,4-4     c2.2,0,4,1.8,4,4S65.5,53.6,63.3,53.6z"/></g><g><path d="M22,26.9c-3.2,0-5.8,2.6-5.8,5.8s2.6,5.8,5.8,5.8s5.8-2.6,5.8-5.8S25.2,26.9,22,26.9z M21.5,36.5c-2.1,0-3.8-1.7-3.8-3.8     c0-2.1,1.7-3.8,3.8-3.8c2.1,0,3.8,1.7,3.8,3.8C25.3,34.8,23.6,36.5,21.5,36.5z"/></g><g><path d="M38.8,46c-1-1.2-1.1-3.2-1.1-3.2s-2.1-0.9-4.9,0.1c0,0,0.4,2-1,3C30.5,47,28.7,47,28.7,47s-0.9,2.3,0,5.1     c0,0,2.1-0.2,3,1c1,1.2,1.1,2.5,1,3.1c0,0,2.4,1.2,4.9,0.1c0,0-0.4-1.7,0.8-2.9c1.3-1.2,3.4-1.1,3.4-1.1s1.1-2.9-0.1-5.3     C41.9,46.9,39.8,47.2,38.8,46z"/></g></g></g><text x="0" y="115" fill="#000000" font-size="5px" font-weight="bold" font-family="'Helvetica Neue', Helvetica, Arial-Unicode, Arial, Sans-serif">Created by Mark Davis</text><text x="0" y="120" fill="#000000" font-size="5px" font-weight="bold" font-family="'Helvetica Neue', Helvetica, Arial-Unicode, Arial, Sans-serif">from the Noun Project</text></svg>