<?xml version="1.0" encoding="utf-8"?>
<!-- Generator: Adobe Illustrator 15.0.0, SVG Export Plug-In . SVG Version: 6.00 Build 0)  -->
<!DOCTYPE svg PUBLIC "-//W3C//DTD SVG 1.1//EN" "http://www.w3.org/Graphics/SVG/1.1/DTD/svg11.dtd">
<svg version="1.1" id="Layer_1" xmlns="http://www.w3.org/2000/svg" xmlns:xlink="http://www.w3.org/1999/xlink" x="0px" y="0px"
	 width="534.5px" height="261.336px" viewBox="70.75 104.333 534.5 261.336" enable-background="new 70.75 104.333 534.5 261.336"
	 xml:space="preserve">
<path id="BodyNoClick" fill="#020202" d="M419.75,207.425c-54.104,0-98,53.16-98,118.683c0,21.863,14.611,39.561,32.667,39.561
	h130.667c18.056,0,32.667-17.695,32.667-39.561C517.75,260.585,473.854,207.425,419.75,207.425z"/>
<path id="HeadNoClick" fill="#020202" d="M468.75,153.333c0,27.053-21.945,49-49,49c-27.053,0-49-21.947-49-49
	c0-27.053,21.947-49,49-49C446.805,104.333,468.75,126.28,468.75,153.333z"/>
<path id="BodyNoClick_1_" fill="#020202" d="M529.75,243.756c-41.682,0-75.5,40.955-75.5,91.436
	c0,16.845,11.257,30.478,25.166,30.478h100.667c13.91,0,25.167-13.633,25.167-30.478C605.25,284.711,571.433,243.756,529.75,243.756
	z"/>
<path id="HeadNoClick_1_" fill="#020202" d="M567.5,202.083c0,20.842-16.907,37.75-37.75,37.75c-20.842,0-37.75-16.909-37.75-37.75
	s16.908-37.75,37.75-37.75C550.593,164.333,567.5,181.242,567.5,202.083z"/>
<text transform="matrix(0.9804 0.1968 -0.1968 0.9804 492.002 147.1689)" font-family="'MyriadPro-Regular'" font-size="37.4968">Versus</text>
<text transform="matrix(0.9794 0.202 -0.202 0.9794 507.6416 119.8052)" display="none" enable-background="new    " font-family="'MyriadPro-Regular'" font-size="37.5">Coop</text>
<text transform="matrix(0.9775 0.211 -0.211 0.9775 590.9326 141.3545)" display="none" enable-background="new    " font-family="'MyriadPro-Regular'" font-size="37.5">&amp;</text>
<path id="BodyNoClick_2_" fill="#020202" d="M168.75,207.425c-54.104,0-98,53.16-98,118.683c0,21.863,14.611,39.561,32.667,39.561
	h130.667c18.056,0,32.667-17.695,32.667-39.561C266.75,260.585,222.854,207.425,168.75,207.425z"/>
<path id="HeadNoClick_2_" fill="#020202" d="M217.75,153.333c0,27.053-21.945,49-49,49c-27.053,0-49-21.947-49-49
	c0-27.053,21.947-49,49-49C195.805,104.333,217.75,126.28,217.75,153.333z"/>
<text transform="matrix(1.1728 0 0 1 266.751 288.3848)" font-family="'ArialMT'" font-size="143.3626">-</text>
</svg>
