<?xml version="1.0" encoding="utf-8"?>
<!-- Generator: Adobe Illustrator 15.0.0, SVG Export Plug-In . SVG Version: 6.00 Build 0)  -->
<!DOCTYPE svg PUBLIC "-//W3C//DTD SVG 1.1//EN" "http://www.w3.org/Graphics/SVG/1.1/DTD/svg11.dtd">
<svg version="1.1" id="Layer_1" xmlns="http://www.w3.org/2000/svg" xmlns:xlink="http://www.w3.org/1999/xlink" x="0px" y="0px"
	 width="730px" height="470px" viewBox="0 0 730 470" enable-background="new 0 0 730 470" xml:space="preserve">
<g>
	<path id="MenuButton" d="M363.426,119.002c-16.707,0-31.027,13.723-31.027,31.026c0,17.304,13.724,31.027,31.027,31.027
		s31.027-13.723,31.027-31.027C394.453,132.725,380.729,119.002,363.426,119.002z M363.426,170.912
		c-11.337,0-20.884-9.547-20.884-20.884c0-11.337,9.547-20.883,20.884-20.883c11.336,0,20.883,9.546,20.883,20.883
		C384.309,161.365,375.359,170.912,363.426,170.912z"/>
	<path id="BaseController" d="M604.482,147.642c-1.193-7.161-2.388-13.127-4.178-19.094c-6.563-23.866-17.899-40.573-31.027-51.91
		c1.192-2.386-89.5-23.867-90.098-23.27c-8.951,0.597-29.235,24.463-48.927,32.817c-19.69,8.354-66.231,7.161-66.231,7.161h-1.193
		c0,0-45.944,1.193-66.23-7.161c-19.69-8.354-39.978-32.22-48.927-32.817c-0.597,0-92.485,21.48-90.695,24.463
		c-16.11,14.321-29.237,36.397-34.01,70.408c0,0,0,0,0,0.596c-2.387,10.74-45.347,193.919-19.094,244.636
		c0.597,1.193,1.193,2.388,2.387,4.178c0.597,1.192,1.193,1.789,1.79,2.981c0,0,0,0.597,0.597,0.597
		c7.161,10.741,14.917,17.306,23.867,20.287h0.597c0.596,0,1.194,0.598,2.387,0.598c0.597,0,1.193,0,1.79,0.597
		c0.596,0,1.193,0,1.79,0c0.597,0,1.193,0,1.79,0c26.253,1.79,60.264-22.673,105.014-63.844c0,0,25.061-28.044,116.948-28.044h2.387
		c91.887,0,116.948,28.044,116.948,28.044c41.766,38.188,73.987,62.054,99.645,63.844c7.757,1.193,15.513-1.193,22.675-5.966
		c5.368-3.58,10.143-8.354,14.914-15.516l0,0c0.598-1.191,1.193-2.386,2.388-3.579c0.597-1.192,1.79-2.982,2.387-4.177
		C651.021,340.964,604.482,147.642,604.482,147.642z M158.171,145.255c0-22.674,17.304-39.977,38.187-39.977
		c20.884,0,42.364,17.303,42.364,39.977c0,22.674-19.094,39.977-39.977,39.977C177.861,185.232,158.171,167.929,158.171,145.255z
		 M277.505,295.02c-28.043,0-50.717-22.672-50.717-50.717c0-28.043,22.673-50.717,50.717-50.717s50.717,22.673,50.717,50.717
		C328.223,271.75,305.549,295.02,277.505,295.02z M395.05,167.333c-5.967,10.739-17.901,18.496-31.624,18.496
		c-13.127,0-23.867-6.563-30.43-16.707c0,0-2.984-5.37-7.16-5.37c-4.176,0-23.867,0-23.867,0c-7.757,0-14.32-6.563-14.32-14.32
		c0-7.756,6.563-14.32,14.32-14.32c0,0,17.9,0,22.674,0c4.773,0,8.354-4.773,8.354-4.773c6.563-10.144,17.9-16.708,30.43-16.708
		c13.128,0,24.464,7.161,31.027,17.304c0,0,2.386,4.176,7.159,4.176c4.772,0,23.271,0,23.271,0c7.758,0,14.32,6.564,14.32,14.32
		c0,7.757-6.563,14.32-14.32,14.32c0,0-16.706,0-22.077,0C396.839,163.752,395.05,167.333,395.05,167.333z M441.59,283.684
		c-21.479,0-40.572-17.899-40.572-40.574c0-22.672,17.303-40.573,38.782-40.573c21.48,0,42.364,17.901,42.364,40.573
		C482.164,266.38,462.474,283.684,441.59,283.684z M482.761,166.736c-11.338,0-20.884-9.547-20.884-20.884
		s9.546-20.884,20.884-20.884c11.336,0,20.884,9.547,20.884,20.884C503.645,157.786,494.097,166.736,482.761,166.736z
		 M526.316,209.696c-10.739,0-19.688-8.95-19.688-19.69c0-10.74,8.949-19.69,19.688-19.69c10.74,0,19.689,8.95,19.689,19.69
		C546.604,200.746,537.654,209.696,526.316,209.696z M526.316,122.582c-11.336,0-20.285-8.95-20.285-20.287
		c0-11.336,8.949-20.286,20.285-20.286c11.338,0,20.286,8.95,20.286,20.286C546.604,113.631,537.654,122.582,526.316,122.582z
		 M568.681,164.945c-10.738,0-19.094-8.353-19.094-19.093c0-10.74,8.354-19.094,19.094-19.094c10.741,0,19.095,8.354,19.095,19.094
		C587.775,156.592,579.422,164.945,568.681,164.945z"/>
	<path id="ActionButtons" d="M524.933,211.438c-35.771,0-65.582-29.813-65.582-65.587c0-35.773,29.812-65.586,65.582-65.586
		c35.778,0,65.589,29.813,65.589,65.586C592.508,181.626,562.698,211.438,524.933,211.438z"/>
	<path id="Back" d="M307.936,138.095h-4.177c-5.966,0-11.337,4.773-11.337,10.74l0,0c0,5.967,4.774,10.74,11.337,10.74h4.177
		c5.966,0,11.336-4.773,11.336-10.74l0,0C318.676,143.465,313.902,138.095,307.936,138.095z"/>
	<path id="Start" d="M418.916,160.172h4.177c5.968,0,11.338-4.773,11.338-10.74l0,0c0-5.966-4.772-10.74-11.338-10.74h-4.177
		c-5.966,0-11.336,4.774-11.336,10.74l0,0C407.58,155.399,412.95,160.172,418.916,160.172z"/>
	<path id="DPad" d="M297.196,222.822c-5.967-7.159-6.563-19.093-6.563-19.093s-12.53-5.371-29.237,0.597
		c0,0,2.387,11.933-5.967,17.9c-7.756,6.563-18.496,6.563-18.496,6.563s-5.371,13.723,0,30.432c0,0,12.53-1.193,17.9,5.965
		c5.967,7.16,6.563,14.918,5.967,18.498c0,0,14.32,7.159,29.237,0.596c0,0-2.387-10.145,4.773-17.303
		c7.757-7.162,20.287-6.563,20.287-6.563s6.564-17.304-0.597-31.624C315.692,228.192,303.162,229.983,297.196,222.822z"/>
	<path id="RightAnalog" d="M442.188,208.502c-19.69,0-35.802,16.11-35.802,35.8c0,19.69,16.11,35.802,35.802,35.802
		c19.69,0,35.801-16.11,35.801-35.802C477.988,224.611,461.877,208.502,442.188,208.502z M443.38,268.17
		c-13.126,0-23.867-10.74-23.867-23.867c0-13.126,10.741-23.867,23.867-23.867c13.128,0,23.867,10.74,23.867,23.867
		S456.508,268.17,443.38,268.17z"/>
	<path id="X" fill="#FFFFFF" d="M482.761,166.736c-11.338,0-20.884-9.547-20.884-20.884s9.546-20.884,20.884-20.884
		c11.336,0,20.884,9.547,20.884,20.884C503.645,157.786,494.097,166.736,482.761,166.736z"/>
	<path id="Y" fill="#FFFFFF" d="M526.316,122.582c-11.336,0-20.285-8.95-20.285-20.287c0-11.336,8.949-20.286,20.285-20.286
		c11.338,0,20.286,8.95,20.286,20.286C546.604,113.631,537.654,122.582,526.316,122.582z"/>
	<path id="B" fill="#FFFFFF" d="M568.681,164.945c-10.738,0-19.094-8.353-19.094-19.093c0-10.74,8.354-19.094,19.094-19.094
		c10.741,0,19.095,8.354,19.095,19.094C587.775,156.592,579.422,164.945,568.681,164.945z"/>
	<path id="A" fill="#FFFFFF" d="M526.316,209.696c-10.739,0-19.688-8.95-19.688-19.69c0-10.74,8.949-19.69,19.688-19.69
		c10.74,0,19.689,8.95,19.689,19.69C546.604,200.746,537.654,209.696,526.316,209.696z"/>
	<path id="RightShoulder" d="M483.703,53.813C483.599,53.793,483.703,53.813,483.703,53.813s3.371-8.308,6.047-8.134
		C554.083,49.845,569.277,69,569.277,69l-1.527,6.125C567.75,75.125,542.567,64.743,483.703,53.813z"/>
	<path id="LeftShoulder" d="M243.682,53.813C243.786,53.793,243.682,53.813,243.682,53.813s-3.371-8.308-6.047-8.134
		C173.302,49.845,158.107,69,158.107,69l1.527,6.125C159.635,75.125,184.817,64.743,243.682,53.813z"/>
	<path id="RightTrigger" d="M507.241,46.375c-3.459-0.326,6.782-16.25,6.782-16.25l25.227,4.625c0,0,0.667,18.583-2.5,17.25
		C536.75,52,514.375,47.048,507.241,46.375z"/>
	<path id="LeftTrigger" d="M210.642,48.125c3.459-0.326-7.496-16.713-7.496-16.713l-25.227,4.625c0,0-1.086,20.671,2.081,19.338
		C180,55.375,203.508,48.798,210.642,48.125z"/>
	<g id="LeftAnalog_1_">
		<path id="LeftAnalogStick" fill="#FFFFFF" d="M193.971,166.139c-12.53,0-22.674-10.144-22.674-22.674
			c0-12.53,10.144-22.673,22.674-22.673c12.53,0,22.674,10.144,22.674,22.673C216.645,155.996,206.501,166.139,193.971,166.139z"/>
		<path id="NoClick" d="M196.955,108.858c-19.094,0-34.607,15.513-34.607,34.607c0,19.093,15.513,34.606,34.607,34.606
			c19.093,0,34.606-15.513,34.606-34.606C231.562,124.372,216.048,108.858,196.955,108.858z M193.971,166.139
			c-12.53,0-22.674-10.144-22.674-22.674c0-12.53,10.144-22.673,22.674-22.673c12.53,0,22.674,10.144,22.674,22.673
			C216.645,155.996,206.501,166.139,193.971,166.139z"/>
	</g>
</g>
</svg>
